<?xml version="1.0" encoding="utf-8"?>
<!-- Generator: Adobe Illustrator 22.1.0, SVG Export Plug-In . SVG Version: 6.00 Build 0)  -->
<svg version="1.1" id="Livello_1" xmlns="http://www.w3.org/2000/svg" xmlns:xlink="http://www.w3.org/1999/xlink" x="0px" y="0px"
	 viewBox="0 0 32 30.8" style="enable-background:new 0 0 32 30.8;" xml:space="preserve">
<style type="text/css">
	.st0{fill:none;}
	.st1{fill:#9D7C7A;}
	.st2{fill:#9F7D7D;}
	.st3{fill:#B09494;}
	.st4{fill:#A88989;}
	.st5{fill:#B29897;}
	.st6{fill:#A08080;}
	.st7{fill:#AF9190;}
	.st8{fill:#AD9191;}
	.st9{fill:#AF9392;}
	.st10{fill:#B49999;}
	.st11{fill:#A98C8B;}
	.st12{fill:#A68787;}
	.st13{fill:#B19695;}
	.st14{fill:#9E7E7E;}
	.st15{fill:#A48484;}
	.st16{fill:#9C7A7A;}
	.st17{fill:#BBA3A2;}
	.st18{fill:#AB8D8C;}
	.st19{fill:#A48483;}
	.st20{fill:#A78887;}
	.st21{fill:#A28281;}
	.st22{fill:#AA8D8D;}
	.st23{fill:#B09594;}
	.st24{fill:#A68888;}
	.st25{fill:#AC8F8F;}
	.st26{fill:#A18081;}
	.st27{fill:#AA8B8B;}
	.st28{fill:#A48585;}
	.st29{fill:#9D7979;}
	.st30{fill:#9B7978;}
	.st31{fill:#A88888;}
	.st32{fill:#9A7676;}
	.st33{fill:#946F6F;}
	.st34{fill:#AF9493;}
	.st35{fill:#A0807F;}
	.st36{fill:#B69B9A;}
	.st37{fill:#B79E9E;}
	.st38{fill:#9E7D7C;}
	.st39{fill:#AB8E8E;}
	.st40{fill:#936E6D;}
	.st41{fill:#B29796;}
	.st42{fill:#A68685;}
	.st43{fill:#9B7877;}
	.st44{fill:#9C7D7C;}
	.st45{fill:#9B7979;}
	.st46{fill:#977272;}
	.st47{fill:#A58585;}
	.st48{fill:#A38181;}
	.st49{fill:#8A6262;}
	.st50{fill:#8F6969;}
	.st51{fill:#926D6C;}
	.st52{fill:#A48584;}
	.st53{fill:#9D7B7A;}
	.st54{fill:#967171;}
	.st55{fill:#916D6B;}
	.st56{fill:#AC8E8D;}
	.st57{fill:#AC9090;}
	.st58{fill:#744B4B;}
	.st59{fill:#9A7777;}
	.st60{fill:#A28180;}
	.st61{fill:#6B4241;}
	.st62{fill:#B19493;}
	.st63{fill:#684140;}
	.st64{fill:#B49A99;}
	.st65{fill:#BAA0A1;}
	.st66{fill:#BDA6A6;}
	.st67{fill:#B99F9F;}
	.st68{fill:#B69C9B;}
	.st69{fill:#B9A1A1;}
	.st70{fill:#C0A8A7;}
	.st71{fill:#BDA5A5;}
	.st72{fill:#BFA9AA;}
	.st73{fill:#BCA3A3;}
	.st74{fill:#C9B6B6;}
	.st75{fill:#B59A99;}
	.st76{fill:#9E7D7D;}
	.st77{fill:#78504F;}
	.st78{fill:#876262;}
	.st79{fill:#C4AFAF;}
	.st80{fill:#AA8D8C;}
	.st81{fill:#C2ABA9;}
	.st82{fill:#8E6867;}
	.st83{fill:#744A4B;}
	.st84{fill:#977373;}
	.st85{fill:#7D5858;}
	.st86{fill:#724B4B;}
	.st87{fill:#7E5555;}
	.st88{fill:#906B6A;}
	.st89{fill:#9F7E7D;}
	.st90{fill:#BFA7A7;}
	.st91{fill:#D0BFC0;}
	.st92{fill:#B79D9C;}
	.st93{fill:#B49897;}
	.st94{fill:#C3ADAD;}
	.st95{fill:#B39898;}
	.st96{fill:#C6B3B3;}
	.st97{fill:#C0A9A8;}
	.st98{fill:#85605F;}
	.st99{fill:#845B5C;}
	.st100{fill:#694040;}
	.st101{fill:#AE9695;}
	.st102{fill:#D8CBCC;}
	.st103{fill:#79504F;}
	.st104{fill:#C0AAAA;}
	.st105{fill:#C6B2B2;}
	.st106{fill:#C1A9A9;}
	.st107{fill:#C7B2B3;}
	.st108{fill:#7E5354;}
	.st109{fill:#916F6D;}
	.st110{fill:#6E4746;}
	.st111{fill:#BAA5A5;}
	.st112{fill:#D3C4C4;}
	.st113{fill:#CBB9B8;}
	.st114{fill:#76504F;}
	.st115{fill:#C7B4B5;}
	.st116{fill:#C0ABAB;}
	.st117{fill:#634341;}
	.st118{fill:#7D5353;}
	.st119{fill:#855E5D;}
	.st120{fill:#5B3635;}
	.st121{fill:#EAE2E2;}
	.st122{fill:#EBE6E6;}
	.st123{fill:#3E1F1F;}
	.st124{fill:#D5CCCC;}
	.st125{fill:#D0C0C0;}
	.st126{fill:#B8A6A6;}
	.st127{fill:#876B6B;}
	.st128{fill:#EFEAEB;}
	.st129{fill:#2F1818;}
	.st130{fill:#E2DBDB;}
	.st131{fill:#EDE6E7;}
	.st132{fill:#EEE5E5;}
	.st133{fill:#E6E2E2;}
	.st134{fill:#3A2121;}
	.st135{fill:#CFC8C8;}
	.st136{fill:#4E2F2F;}
	.st137{fill:#402525;}
	.st138{fill:#3A1C1B;}
	.st139{fill:#DDDBDA;}
	.st140{fill:#1C1012;}
	.st141{fill:#342626;}
	.st142{fill:#DEDADA;}
	.st143{fill:#968283;}
	.st144{fill:#251315;}
	.st145{fill:#F6F2F3;}
	.st146{fill:#AEA4A5;}
	.st147{fill:#715B5B;}
	.st148{fill:#8E8383;}
	.st149{fill:#D4C8C8;}
	.st150{fill:#201315;}
	.st151{fill:#888181;}
	.st152{fill:#847878;}
	.st153{fill:#352323;}
	.st154{fill:#B7AEAF;}
	.st155{fill:#29191B;}
	.st156{fill:#8A7E7F;}
	.st157{fill:#B5AFAF;}
</style>
<path class="st0" d="M3.2,15.3L3.2,15.3L3.2,15.3L3.2,15.3z"/>
<path class="st0" d="M14.7,23.8L14.7,23.8L14.7,23.8L14.7,23.8z"/>
<path class="st0" d="M24.8,14L24.8,14L24.8,14z"/>
<polygon class="st0" points="21.5,19.7 21.5,19.7 21.5,19.7 21.5,19.7 "/>
<polygon class="st0" points="5.4,12.3 5.4,12.3 5.4,12.3 5.4,12.3 "/>
<path class="st0" d="M1.8,13C1.8,12.9,1.8,12.9,1.8,13C1.8,12.9,1.8,12.9,1.8,13C1.8,12.9,1.8,12.9,1.8,13z"/>
<polygon class="st0" points="14.3,4 14.3,4 14.3,4 14.3,4 14.3,4 "/>
<path class="st0" d="M24,9.4L24,9.4L24,9.4z"/>
<path class="st0" d="M16,16.3L16,16.3L16,16.3z"/>
<polygon class="st0" points="18.8,19.4 18.8,19.4 18.8,19.4 "/>
<path class="st0" d="M21.9,5.5C21.8,5.5,21.8,5.5,21.9,5.5C21.8,5.6,21.8,5.5,21.9,5.5L21.9,5.5z"/>
<path class="st0" d="M9.1,12.1L9.1,12.1L9.1,12.1L9.1,12.1z"/>
<path class="st0" d="M11.2,14.7l-0.1-0.1l0,0L11.2,14.7z"/>
<path class="st0" d="M15,17.5L15,17.5L15,17.5z"/>
<path class="st0" d="M15.3,15.3L15.3,15.3L15.3,15.3L15.3,15.3z"/>
<path class="st0" d="M14.9,13.2L14.9,13.2L14.9,13.2z"/>
<path class="st0" d="M26.3,21.5L26.3,21.5L26.3,21.5z"/>
<path class="st0" d="M25.9,4.6L25.9,4.6L25.9,4.6L25.9,4.6z"/>
<path class="st0" d="M27,8.2L27,8.2L27,8.2z"/>
<path class="st0" d="M22.2,25.5L22.2,25.5L22.2,25.5z"/>
<path class="st0" d="M19.7,18.9L19.7,18.9L19.7,18.9z"/>
<path class="st0" d="M4.9,21.2L4.9,21.2L4.9,21.2L4.9,21.2z"/>
<path class="st1" d="M10.4,7.2L10.4,7.2L10.4,7.2z"/>
<path class="st1" d="M12.1,0.4L12.1,0.4L12.1,0.4z"/>
<path class="st1" d="M9.8,7.8c0.5,0,0.5-0.3,0.6-0.6c-0.8-0.5-0.6-1.1-0.1-1.7l0,0l0,0l0,0l0,0c0.1,0,0.1-0.1,0.2-0.1
	c-0.2-0.2-0.6-0.3-0.6-0.7C10.4,4.4,10.5,5.4,11,5c0.4,0,0.3-0.3,0.4-0.5c0-0.2,0-0.3-0.1-0.5l0,0l0,0c-0.2,0.1-0.4,0.4-0.6,0.1
	c-0.1-0.1,0-0.3,0.1-0.4c0.3-0.2,0.4,0.1,0.5,0.3l0,0l0,0c0.1,0,0.1-0.1,0.2-0.1c-0.4-0.5,0.1-1-0.2-1.5c0.7,0,0.4,1.2,1.3,0.8
	c0.1,0,0,1.5-0.2,1.6c-0.4,0.2-0.8,0.5-0.9,1c-0.1,0-0.1,0.1-0.2,0.1l0,0l0,0c0.2,0,0.4,0.1,0.6,0.1c0.1-0.1,0.2-0.2,0.4-0.2
	c0.6-0.9,0.9-0.3,1.2,0.2c0.6,0.6,0.9,0,1.2-0.3c0.3-0.4,0-0.6-0.3-0.8s-0.5-0.4-0.3-0.8c0-0.1,0.3,0,0.5,0l0,0
	c-0.6-0.6-1.2-1.1-1.1-2c-0.5-0.5-0.2-0.9,0.1-1.3l0,0c-0.1-0.1-0.3-0.2-0.4-0.2c-0.1,0-0.1,0.1-0.2,0.1c0.1,0.5-0.1,0.9-0.4,1.1
	c-0.3,0.1-0.4-0.3,0-0.6c0.1-0.1,0.3-0.1,0.3-0.4c-0.1-0.1-0.3-0.2-0.4-0.3C12,0.7,11.6,1.3,11,1.2c-0.2,0-0.2,0-0.1-0.4
	c-0.2,0-0.5,0.1-0.6,0.2c0,0.1,0,0.2-0.1,0.3c0.1,0.2,0.1,0.4-0.1,0.6c0.4,0.2,1.2-0.3,1.1,0.7c0,0.2-0.1,0.3-0.3,0.4
	c-0.1,0-0.3,0-0.3-0.2C10.3,2,9.8,2.4,9.4,2.6C9,4.1,9.5,5.7,9.2,7.3c0,0.1,0.2,0.2,0.2,0.3C9.5,7.3,9.6,7.6,9.8,7.8z"/>
<path class="st2" d="M13.2,6.5L13.2,6.5L13.2,6.5z"/>
<path class="st2" d="M9.2,10c0,0.1,0.1,0.1,0.1,0.2c0.1,0,0.2,0,0.3,0.1l0,0c0.1,0,0.1-0.1,0.2-0.1l0,0l0,0c0-0.3-0.3-0.8,0.4-0.5
	l0,0c0.2-0.1-0.1-0.6,0.3-0.5c0.3,0,0.4,0.3,0.3,0.6l0,0l0,0C10.9,9.9,11,10,11,10.1l0,0c0.3,0,0.7-0.2,0.9,0.2l0.1-0.1l0,0
	c0.7-0.3,0.3-1.4,1.2-1.6l0,0c0.1,0,0.1-0.1,0.2-0.1c-0.2-0.4-0.2-0.6,0.3-0.7c-0.2-0.4-0.4-0.8-0.5-1.2c-0.3-0.3-0.7-0.5-1-0.8
	C12.1,5.9,12,6,11.8,6c0.2,0.1,0.4,0.3,0.5,0.4c0.5,0.2,0.5,0.5,0.2,1c-0.2-0.2-0.3-0.4-0.4-0.6c-0.3-0.4-0.5-0.1-0.6,0.2
	c0.1,0.5,0.1,0.9,0.2,1.4l0,0c0.1,0,0.2,0,0.3,0.1c0.1-0.1,0.2-0.2,0.3-0.4l0.1,0.1c0,0.3-0.2,0.3-0.3,0.4c-0.4,0,0.1,0.7-0.4,0.6
	c-0.5-0.1-0.1-0.5-0.2-0.7c-0.6-0.2-0.8-0.8-1.1-1.3l0,0c-0.1,0.3-0.1,0.7-0.6,0.6c0,0.1-0.1,0.4-0.1,0.4c-0.3,0-0.3-0.3-0.5-0.5
	C9,8,9.2,8.3,9.3,8.6C9.4,8.8,9.5,9,9.2,9.2C9.4,9.5,9.6,9.7,9.2,10z"/>
<path class="st3" d="M10.3,20.4c0,0.1,0.1,0.1,0.1,0.2c0,0.3-0.2,0.4-0.4,0.5c-0.3,0.1-0.5,0.4-0.7-0.1c-0.2-0.7-0.4-0.3-0.7,0l0,0
	c0.1,0.6,0.2,1.1-0.8,0.9c0.1-0.3,0.6-0.3,0.4-0.7c-0.2,0.1-0.3,0.2-0.5,0.3c0.3-0.4,0.1-1.1,0.8-1.2c0.2-0.1,0.2-0.5,0-0.8
	c-0.1,0-0.1,0.1-0.2,0.1l0,0l0,0c-0.1,0.5-0.3,0.2-0.5,0.1c-0.4,0.3-0.7,0.9-1.3,0.7c0.2,0.3,0.7,0.7-0.2,0.9c0.2,0.5,0,1.1,0.5,1.5
	c0.7,0.6,0.3-0.4,0.6-0.4c0.1,0.4,0.6,0.4,0.8,0.7l0,0c0.1,0,0.1-0.1,0.2-0.1c0.4,0,0.4,0.4,0.6,0.6c0.2-0.1,0.4-0.2,0.4-0.5
	C9,22.8,9.1,22.4,9.5,22c0.1,0.4-0.2,0.8,0.1,1c0.2-0.1,0.3-0.3,0.6-0.2c0.4-0.6,0.7-1.2,1.1-1.7C11.2,20.7,10.9,20.1,10.3,20.4z"/>
<path class="st4" d="M4.2,8.6C4.4,8.8,4.6,9,4.8,9.2l0,0l0,0c0.4,0,0.5,0.4,0.6,0.6l0,0l0,0c1-0.9,1.7-0.1,2.5,0.5
	C7,9.9,7.6,11.1,7,11l0,0l0,0c0.2,0.3,0.3,0.5,0.7,0.3c0.2,0.1,0.5,0.2,0.7,0.3l0,0c-0.3-0.5,0.2-0.6,0.5-0.8c0-0.1,0-0.2,0.1-0.3
	C8.5,10.4,8.7,10,8.8,9.8C9,9.6,9.1,10,9.2,10.1c0.4-0.3,0.2-0.5,0-0.8C8.6,8.7,7.8,8.4,7,8.3C6.4,8.8,5.9,8.8,5.7,7.9
	C5.3,7.9,4.9,8,4.5,8C4.8,8.3,4.8,8.5,4.2,8.6z"/>
<path class="st5" d="M27,8.2L27,8.2C27,8.2,26.9,8.2,27,8.2c0,0.2,0.1,0.4-0.2,0.5c-0.1,0-0.2-0.1-0.2-0.1C26.5,8.2,26.8,8.3,27,8.2
	c0-0.2,0.2-0.5,0-0.8l0,0c-0.1,0.3-0.5,0.3-0.7,0.5l0,0c-0.2,0.3,0.1,0.8-0.5,0.8c-0.1,0-0.1,0.1-0.2,0.1c-0.5,0-0.5,0.4-0.5,0.8
	c0,0.1,0,0.3-0.2,0.3c-0.1-0.1-0.1-0.3-0.2-0.4c-0.3-0.3-0.5-0.2-0.8,0l0,0c0.3,0.2,0.6,0.3,0.6,0.9c-0.3-0.3-0.6-0.5-0.8-0.8
	c-0.3,0.1-0.6,0.2-0.7-0.3c-0.3-0.2-0.5-0.3-0.8-0.5c0,0.2,0.1,0.4,0.2,0.6c0.3,0.5,0.1,0.9-0.3,1.1c-0.7,0.3-0.5-0.3-0.7-0.6
	c0-0.1-0.2-0.1-0.3-0.1l0,0c-0.1,0-0.1,0.1-0.2,0.1c0.1,0.1,0.2,0.3,0.1,0.5c0.1,0.2-0.4,0.6,0.2,0.6c0.5,0,1,0.3,1.3-0.4
	c0.1-0.1,0.2-0.4,0.4-0.3c0.3,0.1,0.4,0.3,0.3,0.6l0.1,0.1l0.1,0.1c0.3-0.3,0.6-0.1,1-0.1l0,0c0.9-0.4,1.7-0.9,2.5-1.5
	c-0.2-0.6,0.4-0.6,0.7-0.9l0,0l0,0c0.1-0.2,0.2-0.4,0.3-0.5c-0.1,0-0.2,0-0.3,0C27.4,8.1,27.2,8.1,27,8.2z"/>
<path class="st6" d="M9.2,15.6c0.2-0.4-0.6-0.8-0.1-1.2C9,14.2,9,14,9.2,13.8c0.1-0.1,0.2-0.2,0.3-0.2c0.1-0.1,0.3-0.2,0.2-0.4
	c-0.4,0-0.8,0.4-1.2,0.1l0,0c-0.1,0-0.2,0-0.3-0.1C8.3,14,7.6,14.4,7.5,15c-0.8,0.1,0.8-1.4-0.7-0.9l0,0c-0.1,0-0.1,0.1-0.2,0.1
	c-0.4-0.2-0.7-0.3-1.1-0.5c0.1,0.5-0.8,1.5,0.7,1.3c0.2,0,0.5,0.2,0.1,0.5c-0.3,0.2-0.5,0.4-0.7,0.6c0.8,0.2,1.6,0.5,2.5,0.3
	C8.4,16,8.5,15.5,9.2,15.6z M7.5,15.6l0.1-0.1c0.2,0,0.3,0.1,0.3,0.4C7.8,15.9,7.6,15.8,7.5,15.6z"/>
<path class="st7" d="M5,13.1c-0.2-0.3,0-0.5,0-0.8c-0.5,0.2-0.7-0.1-0.7-0.5c0-0.3,0-0.5-0.2-0.8l0,0l0,0c-0.6,0.2-0.1-0.5-0.4-0.5
	c0-0.1-0.1-0.1-0.1-0.2c-0.2,0.2-0.4,0.4-0.6,0.6l0,0l0,0c0.1,0.1,0.3,0.2,0.4,0.4c0.1,0.1,0.3,0.2,0.1,0.3c-0.1,0.1-0.2,0-0.4,0
	c0.4,0.6,0.1,0.8-0.5,0.8c-0.2,0.5-0.6,0.4-1,0.4l0,0c0.7,0.7,1.3-0.4,2-0.1l0,0l0,0c-0.1-0.2-0.2-0.4,0.1-0.5c0.1,0,0.2,0,0.2,0.1
	c0.1,0.3-0.2,0.3-0.3,0.4l0,0l0,0c0.3,0.2,0.7,0.3,0.5,0.8c-0.4,0.2-0.6-0.7-1-0.2c-0.1,0.1,0,0.4,0,0.6c0,0.2,0.1,0.3,0.3,0.4
	c0.2,0,0.6-0.4,0.7,0c0.1,0.4-0.4,0.5-0.7,0.7c-0.1,0.1-0.2,0.1-0.3,0.2c0,0,0,0,0,0.1c0.1,0.2,0.3,0.3,0.6,0.1
	c0.1-0.1,0.2-0.2,0.3-0.2C5.7,15.1,5.2,14,5,13.1z"/>
<path class="st8" d="M7.8,17.7c-0.1,0.5-0.4,1,0,1.5l0,0c0.2,0.1,0.5,0.2,0.7,0.3l0,0c-0.2-0.4-0.1-1,0.2-1.1
	c0.4-0.2,0.7,0.2,0.9,0.6c0,0.4-0.1,0.9,0.6,0.9c0-0.1,0.1-0.2,0-0.3c-0.5-0.7,0-0.7,0.5-0.8c-0.1-0.1-0.2-0.2-0.2-0.3
	c-0.2-0.2-0.7,0.3-0.7-0.2c-0.1-0.4,0.3-0.4,0.6-0.4l0,0l0,0l0,0l0,0l0,0c-0.1-0.5,0.9-0.5,0.5-1.1c-0.2,0.1-0.3,0.2-0.5,0.3
	c-0.7,0.6-0.9,0.3-0.8-0.5c0-0.1-0.1-0.1-0.1-0.2c-0.2-0.1-0.3,0-0.5,0.1l0,0c-0.1,0.1-0.2,0.2-0.4,0.2c-0.2,0.2-0.4,0.4-0.6,0.7
	C8.1,17.5,8,17.6,7.8,17.7z"/>
<path class="st9" d="M14.3,20.2L14.3,20.2c0,0.2,0,0.3,0.1,0.5c0.2,0,0.3,0.1,0.4,0.2l0,0l0,0c0-0.4-0.2-1,0.6-0.5
	c0.3,0.2,0.6,0.3,0.9,0.5c0.2-0.1,0.4-0.2,0.5-0.4c0-0.1-0.1-0.1-0.1-0.2l0,0l0,0C16.4,20.5,16,20.4,16,20c0-0.3,0.1-0.6,0.4-0.6
	c0.4,0,0.8,0.1,0.7,0.7c0.5,0.1,0.3-0.2,0.2-0.4l0,0c-0.2-0.2-0.3-0.5-0.5-0.7l0,0l0,0c-0.5-0.2-1.1-0.1-1.5-0.6
	c-0.2-0.3-0.4,0-0.7,0.2c-0.2,0.2-0.6,0.5-0.7-0.1h-0.1c-0.2,0.6-0.7,1.2-0.5,1.9C13.6,19.9,14,20.2,14.3,20.2z"/>
<path class="st10" d="M24.7,3.4L24.7,3.4c0.1,0.3,0.6,0.3,0.4,0.7c-0.2,0.6-0.7-0.3-0.9,0.1c0.2,0.1,0.3,0.3,0.5,0.4
	c0.2,0.2,0.1,0.6,0.5,0.7c0.1-0.2,0.2-0.4,0.4-0.6c0.2-0.2,0.2-0.2,0.3-0.1l0,0l0,0c0,0.1,0,0.2,0.1,0.2c0.4-0.2,0.7-0.1,1,0.1
	c0.3-0.5-0.6-1.2,0.2-1.6c-0.1-0.2-0.2-0.3,0-0.5l0,0l0,0c-0.8-0.3-1.6-0.2-2.3,0.3l0,0C24.7,3.1,24.7,3.3,24.7,3.4L24.7,3.4z"/>
<path class="st11" d="M13.5,17.9c-0.1-0.1-0.3-0.1-0.4-0.2c-0.4-0.2-0.8-0.6-1.2,0.1c0.6,0.5,0.1,0.6-0.3,0.7l0,0l0,0
	c0,0.3-0.2,0.4-0.4,0.5l0,0l0,0c0.1,0.1,0.3,0.4,0.3,0.3c0.3-0.1,0.6-0.1,0.6,0.2s-0.3,0.5-0.7,0.6c-0.3,0-0.5,0-0.5-0.3
	s-0.1-0.7-0.1-1c-0.5,0.1-1,0.2-0.5,0.8c0,0.1,0,0.2,0,0.3c-0.1,0.2,0,0.3,0.1,0.5c0.5-0.2,0.8,0.4,1.3,0.4l0,0
	c0.9-0.7,1.4-1.7,1.9-2.7l0,0l0,0C13.5,18,13.5,17.9,13.5,17.9z"/>
<path class="st12" d="M22.5,26.4L22.5,26.4L22.5,26.4c-0.2,0.1-0.4,0.3-0.5,0.1c-0.2-0.3,0.1-0.5,0.4-0.8c0-0.1-0.1-0.1-0.1-0.2l0,0
	c-0.3,0.2-0.6,0.4-0.9,0.6c-0.2-0.3-0.1-0.8-0.4-1c-0.2,0-0.4,0-0.6-0.1c-0.1,0-0.1,0.1-0.2,0.1c-0.2,0.5-0.2,1.2-1,1.2l0,0l0,0l0,0
	c0,0.2,0,0.3,0.1,0.5c0.3-0.2,0.6-0.1,0.9-0.1c0.3-0.1,0.5,0,0.7,0.3c0.2-0.2,0.3-0.8,0.5-0.1c0.2,0.6,0.4,1.2-0.1,1.8
	c0.1,0.1,0.3,0.1,0.4,0.2c0.5-0.5,0.6-1.2,0.9-1.8l0,0l0,0C22.5,26.9,22.5,26.6,22.5,26.4z"/>
<path class="st13" d="M25.8,22.6c0-0.4-0.2-0.7-0.6-0.9c-0.2-0.1-0.5-0.4-0.3-0.7c0.2-0.2,0.4,0.1,0.6,0.2c0.2,0.1,0.5,0.2,0.7,0.3
	l0,0l0,0l0,0c-0.2-0.2-0.3-0.5-0.3-0.8l0,0c-0.7-0.3-0.7-0.6-0.1-1.2c-0.2-0.1-0.4-0.3-0.5-0.4c-0.2,0.5-0.4,0.9-1,0.7
	c-0.5,0-0.3,0.5-0.6,0.6l0,0l0,0c0.2,0.1,0.5,0.2,0.4,0.5c0.3,0.8-0.3,0.3-0.5,0.3c0,0.2-0.1,0.4-0.1,0.6l0,0l0,0
	c0.2,0.1,0.4,0.2,0.6,0.4C24.8,21.7,25.2,22.7,25.8,22.6z"/>
<path class="st11" d="M6.4,15.5C6.9,15.2,6.6,15,6.3,15c-1.5,0.2-0.6-0.8-0.7-1.3c0-0.3,0.2-0.5,0.5-0.4c0.3-0.2,0.7-0.1,0.9-0.6
	c0-0.1-0.1-0.1-0.1-0.2c-0.1,0-0.2,0-0.3-0.1c-0.1,0-0.1,0.1-0.2,0.1c-0.3,0-0.5,0-0.8,0C5.4,12.7,5.3,13,4.9,13
	c0.2,0.9,0.7,2-0.9,2.1c-0.1,0-0.2,0.2-0.3,0.2c0.6,0.3,1.2,0.8,2,0.7C5.9,15.9,6.1,15.7,6.4,15.5z"/>
<path class="st9" d="M21.2,18.9c0.2-0.5,0.7-0.7,1.1-1c-0.1-0.6-0.6-0.5-0.9-0.6l0,0l0,0c0-0.1-0.1-0.1-0.1-0.2
	c-0.6,0-1.5-0.4-1.5,0.8l0.1,0.1l0.1,0.1c0.2,0.2,0.1,0.6,0.4,0.8c0.3,0.3-0.1,0.2-0.2,0.4l0,0l0,0c0.1,0.1,0.2,0.2,0.3,0.3
	C20.9,19.6,20.7,18.7,21.2,18.9z"/>
<path class="st4" d="M4.1,26.1c-0.2-0.3-0.2-0.5,0-0.8c0-0.1-0.1-0.1-0.1-0.2c-0.2-0.2-0.1-0.4,0.1-0.6c0-0.3-0.1-0.6-0.3-0.8l0,0
	l0,0c-0.2,0-0.3,0-0.5,0.1v0.1c0.2,1-0.3,1.4-1.3,1.3c0,0.1,0,0.2-0.1,0.3c0.2,0.4,1-0.2,0.9,0.6c0.2,0,0.5-0.2,0.6,0.1
	c0.1,0.4-0.2,0.6-0.5,0.8c0.6,0.2,1.2,0.1,1.8,0l-0.1-0.1C4.5,26.6,4.1,26.5,4.1,26.1z"/>
<path class="st14" d="M16.5,5.8c-0.1,0-0.1,0.1-0.2,0.1c0.1,0.1,0.2,0.2,0.2,0.3c0.2,0,0.5-0.1,0.3,0.3c-0.3,0.4,0.1,0.4,0.3,0.6
	c0.1-0.3,0.4-0.5,0.7-0.3s-0.1,0.5-0.1,0.7c-0.1,0.8-0.9,0.6-1.4,0.9c0.5,0.1,0.7,0.4,0.6,0.8c0,0.4,0.1,0.2,0.3,0.2
	c0.1-0.1,0.2-0.1,0.3-0.2l0,0l0,0c0.1,0,0.1-0.1,0.2-0.1l0,0c0-0.2,0-0.3,0-0.5c0-0.4,0.3-0.7,0.6-0.9c0-0.2,0.1-0.4,0.1-0.6
	c-0.4-0.6-0.2-1.5-0.8-2C17.3,5.5,16.9,5.6,16.5,5.8z"/>
<path class="st15" d="M5.9,19.8c0.3,0.1,0.2-0.7,0.6-0.4c0.3,0.2,0.1,0.6,0,1l0,0l0,0c0.1,0,0.1-0.1,0.2-0.1l0,0
	c0.7,0.2,0.9-0.4,1.3-0.7c-0.1-0.1-0.1-0.2-0.2-0.3l0,0l0,0c-0.4-0.5-0.1-1,0-1.5c-0.2,0.1-0.4,0.3-0.7,0.1l0,0l0,0
	c-0.9,0.8-1.8,1.4-2.4,2.4C5.3,20.6,5.3,19.6,5.9,19.8z M7.2,19.1c0.1,0.1,0.2,0.2,0.2,0.3c0.1,0.1,0.1,0.3-0.1,0.3
	c-0.1,0-0.2-0.1-0.2-0.2C7,19.4,7,19.3,7.2,19.1z"/>
<path class="st16" d="M14.1,1.1L14.1,1.1L14.1,1.1c0.2,0.4-0.1,0.3-0.3,0.4c-0.2,0-0.7-0.1-0.4,0.4C13.9,2.3,14.9,2,15,3.1
	c0,0.2,0.4-0.2,0.6-0.1C15.9,2.8,16,3,16,3.2c0.4-0.2,0.5,0,0.7,0.3l0.1-0.1c-0.5-0.7-0.8-1.5-1.6-2C14.9,1.3,14.5,1,14.1,1.1z"/>
<path class="st4" d="M23.3,11.1c-0.6,0.6-1.5,0.5-2.2,0.9l0,0c-0.1,0-0.1,0.1-0.2,0.1c0.2,0.1,0.6-0.1,0.7,0.3
	c0.1,0.3-0.2,0.2-0.3,0.3l0,0c0,0.1,0,0.1,0.1,0.2c0.1,0.1,0.2,0.2,0.2,0.3c0.4-0.3,0.7-0.2,0.9,0.2c0.2-0.1,0.4-0.3,0.6-0.2
	c0.2,0,0.3,0,0.5-0.1l0,0c-0.1-0.1-0.2-0.2-0.2-0.4l0,0l0,0c-0.2-0.2-0.6,0-0.7-0.4c0-0.3,0.4-0.4,0.6-0.5c0.3-0.3,0.8-0.4,1-0.9
	l0,0C24,11,23.6,10.8,23.3,11.1z"/>
<path class="st17" d="M20.7,5.3c0.3-0.5,0.6,0,0.9-0.1C22,5,22.3,4.7,22.8,4.7l0,0c0.4-0.6,0.5,0.4,0.9,0.2
	c-0.2-0.2-0.4-0.5,0.1-0.6c0.1-0.1,0.3-0.1,0.5-0.1c0.3-0.4,0.7,0.5,0.9-0.1c0.2-0.4-0.4-0.4-0.4-0.7l0,0c-0.2-0.1-0.3,0-0.5,0.1
	c-0.6,0.1-1,0.6-1.6,0.6c-0.2,0.1-0.4,0.1-0.6-0.1c-0.4,0.5-1.1,0.6-1.5,1.2C20.6,5.2,20.6,5.2,20.7,5.3L20.7,5.3z"/>
<path class="st18" d="M20.8,21.2L20.8,21.2L20.8,21.2L20.8,21.2L20.8,21.2c0.2,0.5,0.3,0.9-0.5,0.8c-0.1,0-0.2,0-0.3-0.1
	c-0.1,0-0.1,0.1-0.2,0.1l0,0c0.7,0.6,0.2,0.6-0.3,0.7c0,0.1,0.1,0.3,0.1,0.4c-0.1,0.5-0.6,1,0.2,1.5c0,0,0,0.2,0,0.3
	c0.1,0.1,0.2,0.3,0.4,0.2c0.1,0,0.1-0.1,0.2-0.1c-0.2-0.1-0.4-0.3-0.1-0.5c0.4-0.5-0.6-0.9-0.2-1.4l0,0c0.1-0.4,0.3-0.6,0.7-0.5
	c0.2,0.1,0,0.2-0.1,0.3c0.2,0.1,0.3,0.3,0.5,0.4c0.1-0.4,0.4-0.2,0.6-0.2c0-0.2,0-0.3-0.1-0.5c-0.4-0.1-0.6-0.4-0.5-0.9
	s-0.4-0.8-0.5-1.2c-0.1,0-0.1,0.1-0.2,0.1C20.6,21,20.7,21.1,20.8,21.2z"/>
<path class="st19" d="M29.9,16.8c0,0.4-0.3,0.7-0.6,0.9l0,0c-0.1,0-0.1,0.1-0.2,0.1c0.2,0.1,0.5,0,0.7,0.3c0.4-0.1,0.8-0.3,1.1-0.4
	l0.1,0.1c-0.3,0.3-0.7,0.6-1,0.9c0.2,0,0.4,0.1,0.6,0.1c0.7,0,1-0.3,1.1-1c0-0.1,0-0.2,0-0.3c-0.5-0.7-1-1.3-1.8-1.6l0,0
	C30.2,16.3,29.9,16.5,29.9,16.8z M30.8,17.3c-0.3,0.1-0.5,0.3-0.7,0.4c0-0.1-0.1-0.1-0.1-0.2C30.1,17.2,30.3,17,30.8,17.3z"/>
<path class="st8" d="M15.6,26.2L15.6,26.2c0.1-0.2,0.3-0.3,0.4-0.5c-0.5-0.4-1-0.8-1.1-1.6c-0.1-0.1-0.1-0.2-0.2-0.3l0,0
	c-0.1,0.2,0,0.5-0.4,0.5c0.3,0.6-0.2,0.6-0.6,0.6c0,0.6,0.3,0.9,0.7,1.3C14.8,26.2,15.2,26.6,15.6,26.2z"/>
<path class="st9" d="M28.7,5.2c-0.1-0.2-0.2-0.3-0.3-0.5l0,0C28,5.1,27.3,5,26.9,5.5C27.8,5.6,28,6,27.7,7.4
	c-0.1,0.2-0.2,0.4-0.2,0.7c0.1,0,0.2,0,0.3,0c0.6-0.6,0.8-1.4,1.1-2.2C28.7,5.7,28.3,5.6,28.7,5.2z"/>
<path class="st16" d="M1,14.3c-0.1-0.2-0.2-0.4-0.2-0.5C1.7,13,1,13,0.3,13c0.6-0.2,1.2-0.5,1.8-0.7c0-0.1-0.1-0.1-0.1-0.2l0,0
	c-0.1-1.1-0.6,0.1-0.9-0.2l0,0c-0.3,0.1-0.6-0.1-0.8-0.3l0,0l0,0c0,0.6-0.6,1.1-0.3,1.8c0.2,0.3,0.5,0.5,0.3,0.8
	c0.2,0.3,0.2,0.6,0.6,0.6C1.1,14.6,1.1,14.4,1,14.3z"/>
<path class="st8" d="M21.2,23.4c-0.2-0.1-0.3-0.3-0.5-0.4c-0.2,0.1-0.4,0.3-0.6,0.2c-0.4,0.5,0.6,0.9,0.2,1.4c0.5,0.2,1-0.2,1.5,0.3
	l0,0l0,0c0.4,0,0.3,0.3,0.4,0.5l0,0c0.2,0,0.3,0,0.5-0.1c0.1-0.2,0-0.3-0.1-0.5c-0.1-0.4-1.1-0.6-0.3-1.3c-0.1-0.1-0.2-0.2-0.2-0.4
	C21.6,23.2,21.4,23,21.2,23.4z M20.8,24c-0.2-0.5,0.3-0.4,0.4-0.6l0,0l0,0l0,0C21.2,23.7,21.1,23.9,20.8,24z"/>
<path class="st4" d="M28.3,22.7c0.1-0.2-0.2-0.3-0.3-0.2c-1,0.4-1.2-0.4-1.6-1l0,0c-0.2-0.1-0.5-0.2-0.7-0.3
	c0.1,0.2,0.3,0.4,0.5,0.6c0.6,0.5,0.2,0.7-0.3,0.8c-0.6,0.1-1-0.9-1.7-0.4c1.1,0.8,2.4,1,3.7,0.8C28,22.9,28.2,22.9,28.3,22.7z"/>
<path class="st20" d="M2.2,24.8c0.2-0.3,0.4-0.6,0.5-1c0.2-0.3,0.4-0.3,0.6,0c0.2,0,0.3,0,0.5-0.1l0,0c0-0.4,0.3-0.3,0.5-0.3
	c-0.2-0.3-0.4-0.6-0.2-1c0.1-0.2,0-0.5-0.3-0.4c-0.8,0.8-1.7,1.6-1.9,2.8l0,0l0,0C2,24.8,2.1,24.8,2.2,24.8z"/>
<path class="st21" d="M28.5,22.1c-0.7-0.4,0.1-0.7,0.1-1c-0.3-0.2-0.6-0.4-1-0.3c0.2,0.4,0,0.5-0.3,0.7c0.1,0.3,0.3,0.5,0.4,0.8
	c-0.7,0-0.8-0.5-1-0.9c-0.1,0.1-0.2,0.2-0.4,0.2l0,0l0,0c0.4,0.5,0.6,1.4,1.6,1c0.2-0.1,0.4,0,0.3,0.2c0,0.1-0.3,0.2-0.5,0.3
	c0.4,0.2,0.8,0.1,1.2-0.1C28.9,22.6,28.3,22.6,28.5,22.1z"/>
<path class="st4" d="M25.6,14.4L25.6,14.4c0.2,0.2,0.6,0.3,0.4,0.5c-0.2,0.3-0.3-0.1-0.5-0.3c-0.1,0.4-0.6,0.2-0.8,0.4
	c0,0.4,0.4,0.4,0.5,0.6c0.2,0.1,0.3,0,0.5-0.1l0,0l0,0c0.1,0,0.2,0,0.3,0c0.1-0.2,0.3-0.4,0.4-0.5l0,0c0.1-0.1,0.2-0.2,0.3-0.2
	c0-0.6-0.4-0.9-0.7-1.4c-0.3-0.1-0.6-0.4-1-0.3l0,0l0,0C25.5,13.5,25.1,14.1,25.6,14.4z"/>
<path class="st22" d="M19.2,30.1L19.2,30.1c0.8-0.5,0.3-1.1,0.2-1.6c-0.2,0-0.5,0.2-0.4-0.2c-0.2-0.2-0.4-0.3-0.6-0.1l0,0l0,0
	c0,0.2-0.1,0.5,0,0.7c0.6,0.9-0.1,0.8-0.6,1c0.3,0.2,0.4,0.5,0.8,0.5C18.7,30.2,19,30.2,19.2,30.1L19.2,30.1z"/>
<path class="st23" d="M14.4,23c0.2-0.2,0.5-0.3,0.7-0.5l0,0l0,0c0-0.1-0.1-0.1-0.1-0.2c-0.3,0-0.5,0-0.7-0.3c-0.4,0.6-0.7-0.3-1-0.1
	c-0.1,0.6,0,1.1,0.2,1.7c0.2,0,0.4,0.1,0.5,0.1C14.1,23.5,14.2,23.2,14.4,23z"/>
<path class="st24" d="M18.4,28.8c-0.1-0.2,0-0.5,0-0.7c-0.3,0.1-0.5,0.4-0.8,0.3c-0.1,0.6-0.7,0.2-1,0.4l0,0l0,0
	c0.3,0.4,0.7,0.7,1.2,0.9C18.3,29.7,18.9,29.7,18.4,28.8z"/>
<path class="st25" d="M30.4,20L30.4,20c-0.7,0.1-0.9-0.1-0.6-0.9c0.1-0.2,0.1-0.3-0.1-0.4c0,0.5-1.2,0.3-0.7,1.1
	c0.4,0.5-0.6,0.6-0.3,1c0.1-0.1,0.3-0.1,0.5-0.1l0,0c0.4-0.3,0.8-0.3,1.3-0.4l0,0c0.1-0.2,0.2-0.5,0.6-0.3l0,0l0,0
	c0.1,0,0.1-0.1,0.1-0.2C30.9,19.7,30.6,19.9,30.4,20z"/>
<path class="st26" d="M16.9,5.1c-0.1,0.1-0.2,0.2-0.3,0.2c-0.1-0.1-0.1-0.3-0.2-0.4c0-0.1-0.1-0.1-0.1-0.2c-0.4,0.3-0.8-0.5-1.2,0.1
	l0,0l0,0c0.1,0.1,0.1,0.3,0.1,0.5c0.4,0.4,1,0.2,1.4,0.6c0.3-0.2,0.8-0.3,1-0.7c0.1-0.3-0.1-0.6-0.2-0.8c-0.2,0-0.3,0-0.5,0.1
	C16.7,4.6,17.2,4.8,16.9,5.1z"/>
<path class="st27" d="M4.9,21.2L4.9,21.2c0.1-1.3,1-0.2,1.4-0.5l0,0l0,0c0-0.2,0.1-0.3,0.2-0.4l0,0c0-0.3,0.3-0.7,0-1
	c-0.4-0.3-0.3,0.5-0.6,0.4c-0.6-0.2-0.6,0.8-1.2,0.5c-0.2,0.1-0.4,0.3-0.4,0.5C4.6,20.8,4.7,21,4.9,21.2z"/>
<path class="st8" d="M23.6,21.3c-0.2-0.7,0.2-0.5,0.5-0.3c0.2-0.4-0.2-0.4-0.4-0.5l0,0c-0.1,0-0.2,0-0.3-0.1
	c-0.2,0.1-0.4,0.1-0.6,0.2c-0.1,0-0.2,0-0.3-0.1c-0.2,0.1-0.4,0.3-0.7,0.4c0.5,0.3,1,0.8,1.6,1l0,0C23.5,21.7,23.6,21.5,23.6,21.3z"
	/>
<path class="st28" d="M27.3,15L27.3,15L27.3,15c-0.2,0-0.3-0.4-0.6-0.1c0.2,0.2,0.3,0.5,0.5,0.7c0.3-0.2,0.6-0.2,0.9,0.2l0,0l0,0
	c0.1,0,0.1-0.1,0.2-0.1l0,0c0.2-0.1,0.4-0.1,0.6,0.1c0.1-0.2,0.3-0.4,0.4-0.5c-0.2-0.5-0.7-0.5-1.1-0.8C27.9,14.7,27.9,15.3,27.3,15
	z"/>
<path class="st8" d="M3.1,8.8c0.2,0,0.4,0.1,0.6,0.1C3.8,8.7,4,8.6,4.2,8.5c0.6,0,0.6-0.3,0.3-0.7c-0.7,0.1-1.4,0-2,0.3
	c0,0.1,0.1,0.1,0.1,0.2C2.7,8.5,2.9,8.7,3.1,8.8z"/>
<path class="st2" d="M15.6,3.7L15.6,3.7c-0.1-0.1-0.2-0.2-0.2-0.3c-0.2,0.8,0.5,1,0.9,1.4c0,0.1,0.1,0.1,0.1,0.2
	c0.1-0.2,0.3-0.3,0.4-0.5c0.2,0,0.3,0,0.5-0.1c0.1-0.4-0.3-0.7-0.5-1l-0.1,0.1C16.3,3.7,16.2,4.6,15.6,3.7z"/>
<path class="st2" d="M3.1,14.9c-0.6,0.3-0.8-0.1-1.1-0.5c-0.3-0.2-0.7-0.4-1.1-0.1c0.1,0.2,0.1,0.3,0,0.5c0.7,0.2,1.3,0.8,2.2,0.6
	v-0.1C3.1,15.1,3.1,15,3.1,14.9z"/>
<path class="st29" d="M29.8,21.1L29.8,21.1c0.1,0.8-0.5,0.5-0.9,0.6c0,0.4-0.3,0.3-0.5,0.3c-0.1,0.5,0.5,0.5,0.6,0.8
	c0.7-0.3,1-1.1,1.4-1.7C30.2,21.2,30,21.2,29.8,21.1L29.8,21.1z"/>
<path class="st30" d="M31.7,17.9c-0.1,0.7-0.4,1-1.1,1c0,0.3,0,0.5,0,0.8c-0.1,0.1-0.2,0.2-0.2,0.4c0.2-0.2,0.5-0.3,0.7,0
	c0.2-0.5,0.8-0.8,0.8-1.5C31.8,18.3,31.8,18.1,31.7,17.9z"/>
<path class="st31" d="M10.3,2.7c0.1,0.1,0.2,0.2,0.3,0.2c0.2,0,0.2-0.2,0.3-0.4c0.1-1-0.7-0.5-1.1-0.7C9.6,2,9.3,2.2,9.1,1.8
	C9,2,9.1,2.3,9.1,2.5C9.5,2.3,10,1.9,10.3,2.7z"/>
<path class="st32" d="M20.9,29.7c-0.7-0.2-1.1,0.1-1.2,0.8l0,0c0,0.1,0,0.2-0.1,0.3c0.8,0.1,1.2-0.5,1.5-1.1
	C21.1,29.7,21,29.7,20.9,29.7L20.9,29.7z"/>
<path class="st8" d="M8,24.4c-0.2,0.1-0.3,0-0.4-0.2c0-0.2,0.2-0.1,0.3-0.2c0.4-0.3,0.3-0.7,0.1-1c-0.1,0.1-0.2,0.2-0.3,0.2
	c0.2,0.4,0.1,0.6-0.4,0.5c-0.1,0-0.1,0.1-0.2,0.1c0.4,0.3,0.1,0.9,0.5,1.1l0,0c0.1,0,0.2,0,0.3,0.1c0.2-0.2,0.4-0.3,0.7-0.5
	C8.4,24.3,8.3,24.3,8,24.4z"/>
<path class="st33" d="M12.9,0.4c0.1,0.1,0.3,0.2,0.4,0.2l0,0l0,0c0.3,0.2,0.6,0.1,0.8,0.4l0,0c0.4-0.1,0.8,0.2,1.1,0.2
	c-0.6-0.9-1.4-1.3-2.5-1.1C12.8,0.3,12.8,0.4,12.9,0.4z"/>
<path class="st34" d="M3,27.1c0.3-0.2,0.6-0.4,0.5-0.8c-0.1-0.3-0.4-0.1-0.6-0.1c-0.2,0.2-0.5,0.2-0.7,0c0,0.2,0,0.5,0,0.7l0,0
	C2.4,27.1,2.7,27.1,3,27.1z"/>
<path class="st15" d="M28.5,16.2c0.4,0.8,0.7,0.4,0.9-0.1l0,0c0.2,0,0.3,0,0.5-0.1l0,0c0-0.5-0.4-0.6-0.8-0.7
	c-0.1,0.2-0.3,0.4-0.4,0.5C28.7,15.9,28.6,16.1,28.5,16.2z"/>
<path class="st12" d="M17.5,28.4c-0.3-0.6-0.8-0.4-1.3-0.4l0,0l0,0c-0.1,0.1-0.2,0.2-0.4,0.2c0.1,0.4,0.3,0.5,0.6,0.6l0,0
	C16.8,28.6,17.4,29,17.5,28.4z"/>
<path class="st35" d="M4.1,22.4c-0.2,0.4,0,0.7,0.2,1c0.2,0.2,0.4,0.3,0.6,0.1c0-0.1-0.1-0.1-0.1-0.2c-0.1-0.1-0.4-0.1-0.2-0.3
	c0-0.3,0-0.6,0.2-0.9l0,0c0-0.1-0.1-0.1-0.1-0.2l0,0c-0.5,0-0.2-0.5-0.5-0.7l0,0l0,0H4.1l0,0l0,0c-0.3,0.2-0.5,0.4-0.3,0.7
	C4.1,21.9,4.2,22.2,4.1,22.4z"/>
<path class="st36" d="M9,24L9,24c-0.8-0.1-0.5-0.7-0.5-1.1l0,0c-0.2,0-0.3,0-0.5,0.1c0.2,0.4,0.3,0.7-0.1,1c-0.1,0.1-0.3,0-0.3,0.2
	s0.2,0.3,0.4,0.2s0.4-0.1,0.5,0.1c0.3-0.1,0.6-0.3,0.6-0.6C9.2,23.9,9.1,24,9,24L9,24z"/>
<path class="st37" d="M14.3,22c0-0.3,0.2-0.4,0.4-0.5c-0.1-0.2-0.2-0.3-0.3-0.5c-0.2,0.1-0.4,0.1-0.6,0.2c-0.1,0.2-0.1,0.5-0.5,0.4
	c-0.1,0.2-0.1,0.3,0,0.4C13.6,21.8,13.9,22.6,14.3,22z"/>
<path class="st15" d="M1.1,11.9c0.4-0.5,0.2-1.1,0.2-1.6c-0.5-0.1-0.4,0.3-0.4,0.5c0.2,0.6-0.5,0.4-0.6,0.7l0,0c0,0.1,0,0.1,0.1,0.1
	l0,0C0.6,11.8,0.8,12,1.1,11.9z"/>
<path class="st14" d="M16.3,28c-0.1-0.5,0.4-0.8,0.4-1.3c-0.2-0.3-0.5-0.4-0.9-0.2l0,0c0.5,0.5,0.2,0.8-0.2,1.2
	c-0.1,0-0.1,0.1-0.2,0.1c0.2,0.1,0.3,0.3,0.5,0.4C16,28.2,16.1,28.1,16.3,28L16.3,28z"/>
<path class="st22" d="M27.3,15L27.3,15c0.6,0.3,0.6-0.3,0.9-0.6c-0.5-0.6-1.2-0.5-1.8-0.8C26.5,14.2,27.4,14.3,27.3,15z"/>
<path class="st38" d="M0.9,10.8c0-0.3-0.1-0.6,0.4-0.5c0.1,0,0.1-0.1,0.2-0.1C1.5,9.9,1.9,10,2,9.9c0-0.3-0.1-0.6-0.5-0.7l0,0l0,0
	l0,0C1.4,9.5,1.2,9.7,0.8,9.9l0,0l0,0c-0.1,0.4-0.3,0.7-0.4,1.1C0.6,10.8,0.7,10.8,0.9,10.8z"/>
<path class="st2" d="M15.8,26.6L15.8,26.6c-0.1-0.1-0.2-0.2-0.2-0.4c-0.4,0.4-0.8,0-1.2,0.1c0.4,0.5,0.7,1,1.1,1.6
	c0.1,0,0.1-0.1,0.2-0.1C15.1,27.2,15.2,26.8,15.8,26.6z"/>
<path class="st16" d="M14.3,24.3c-0.1-0.2-0.2-0.3-0.4-0.5c-0.2,0-0.4-0.1-0.5-0.1c0.2,0.4-0.1,0.9,0.3,1.3
	C14.1,24.9,14.5,24.9,14.3,24.3z"/>
<path class="st39" d="M23.7,13.1c0.2,0.2,0.4,0.4,0.6,0.6c0.2,0,0.3,0.1,0.4,0.2l0,0l0,0l0,0l0,0c0.1-0.2,0.2-0.5,0.3-0.7l0,0l0,0
	l0,0c-0.5-0.2-1-0.5-1.6-0.5l0,0C23.5,12.9,23.6,13,23.7,13.1z"/>
<path class="st8" d="M21.5,19.7L21.5,19.7c0-0.3-0.1-0.6-0.3-0.8c-0.5-0.1-0.3,0.8-0.8,0.6c0.1,0.4,0.4,0.6,0.8,0.7
	C21.2,19.9,21.1,19.7,21.5,19.7z"/>
<path class="st10" d="M18.3,7.7c0.1,0.2,0.2,0.3,0.3,0.5l0,0l0,0C18.8,8.1,19,8,19.1,7.8C19,7.6,19,7.4,19.2,7.2
	C19,7.1,18.9,7,18.9,6.7c-0.2,0.1-0.4,0.2-0.6,0.3C18.3,7.3,18.3,7.5,18.3,7.7L18.3,7.7z"/>
<path class="st9" d="M22.6,20.5L22.6,20.5c0.1,0,0.2,0,0.3,0.1c-0.1-0.1-0.1-0.3-0.1-0.5c-0.3-0.4-0.9,0.2-1.2-0.2
	c0-0.1-0.1-0.1-0.1-0.2l0,0l0,0c-0.4,0-0.3,0.3-0.4,0.5c0.1,0.1,0.3,0.2,0.4,0.2C21.9,20.4,22.2,20.5,22.6,20.5z"/>
<path class="st40" d="M10.6,1.1c0.7,0.1,1-0.4,1.5-0.7l0,0c-0.6-0.2-1.1,0.1-1.6,0.3C10.5,1.1,10.5,1.1,10.6,1.1z"/>
<path class="st29" d="M2.1,26.1c0.3,0.2,0.5,0.2,0.7,0c0.1-0.8-0.8-0.2-0.9-0.6c-0.1,0-0.3,0-0.4,0c0,0.2-0.1,0.5,0.1,0.6
	C1.8,26.1,2,26.1,2.1,26.1z"/>
<path class="st15" d="M30.4,20.5c-0.4,0.1-0.9,0-1.3,0.4c0,0.6,0.5,0.1,0.7,0.3l0,0c0.2,0,0.4,0.1,0.6,0.1c0.1-0.1,0.2-0.3,0.2-0.4
	C30.6,20.7,30.5,20.6,30.4,20.5z"/>
<path class="st8" d="M5.7,26.5c-0.1-0.1-0.2-0.2-0.2-0.3c-0.5,0.4-0.9-0.4-1.3-0.1c0,0.4,0.4,0.5,0.6,0.9c0.3-0.1,0.5-0.5,0.9-0.1
	c0.1,0,0.1-0.1,0.2-0.1C5.7,26.6,5.7,26.6,5.7,26.5L5.7,26.5z"/>
<path class="st41" d="M22.6,4c0.6,0,1-0.5,1.6-0.6c-0.1-0.1-0.3-0.1-0.4-0.2l0,0c-0.5-0.2-0.9,0.1-1.2,0.5C22.7,3.8,22.6,3.9,22.6,4
	z"/>
<path class="st42" d="M13.7,21.2c-0.1-0.5,0.3-0.7,0.6-0.9c-0.3,0-0.7-0.3-0.9,0.1c-0.1,0.4-0.1,0.8-0.2,1.2
	C13.5,21.6,13.5,21.3,13.7,21.2z"/>
<path class="st43" d="M9.3,15.8c0-0.1-0.1-0.1-0.1-0.2c-0.7-0.1-0.8,0.4-0.9,0.9c0.1,0.1,0.3,0.2,0.4,0.3c0.1-0.1,0.2-0.2,0.4-0.2
	C8.9,16.2,9,15.9,9.3,15.8z"/>
<path class="st9" d="M27.2,3.2c0.1,0.2,0,0.5,0.3,0.5c0.5,0,0.2-0.6,0.5-0.8l0,0c-0.3-0.1-0.6-0.1-0.9-0.2l0,0
	C27,2.9,27.1,3.1,27.2,3.2z"/>
<path class="st30" d="M7,8.2C6.6,8,6.2,7.7,5.7,7.8C5.9,8.7,6.4,8.6,7,8.2z"/>
<path class="st34" d="M26.7,14.9L26.7,14.9c0.3-0.3,0.4,0.1,0.6,0.1l0,0c0.1-0.8-0.7-0.9-0.9-1.4c-0.1,0-0.2,0-0.3-0.1
	C26.3,14,26.7,14.4,26.7,14.9L26.7,14.9z"/>
<path class="st38" d="M1.5,9.1L1.5,9.1C1.7,9,1.9,8.9,2,8.8c0.2,0,0.4-0.1,0.5-0.4c0-0.1-0.1-0.1-0.1-0.2c-0.5,0-0.9,0.2-1.1,0.7
	C1.4,9,1.5,9,1.5,9.1z"/>
<path class="st20" d="M19.7,18.9c-0.1,0.1-0.2,0.3-0.2,0.4c0.2,0.2,0.1,0.6,0.5,0.7l0,0l0,0c0.2,0.1,0.4,0.2,0.7,0.3
	c-0.2-0.3-0.4-0.7-0.6-1C19.9,19.1,19.8,19,19.7,18.9L19.7,18.9z"/>
<path class="st37" d="M28.4,3.6c0,0.3-0.5,0.5-0.2,0.9l0.1,0.1l0.1,0.1l0,0c0.2-0.1,0.3-0.2,0.5-0.4c-0.2-0.2-0.2-0.5,0-0.7
	c0-0.1-0.1-0.1-0.1-0.2C28.6,3.5,28.4,3.4,28.4,3.6z"/>
<path class="st4" d="M9.9,22.7c-0.1,0-0.1,0.1-0.2,0.1c0,0.3-0.2,0.4-0.4,0.5c0,0.1,0,0.3,0,0.4c0.4-0.4,0.9-0.7,1.1-1.3
	C10.2,22.4,10.1,22.6,9.9,22.7z"/>
<path class="st44" d="M20.3,18.8c-0.3-0.2-0.2-0.6-0.4-0.8c-0.1,0.1-0.2,0.3-0.2,0.4l0,0c-0.1,0-0.1,0.1-0.2,0.1
	c0.1,0.1,0.2,0.2,0.2,0.4l0,0c0.1,0.1,0.2,0.3,0.3,0.4l0.1-0.1l0,0C20.2,19,20.6,19,20.3,18.8z"/>
<path class="st23" d="M19.9,20c-0.3,0.6,0.2,0.7,0.6,0.9l0,0c0.1,0,0.1-0.1,0.2-0.1c0.1-0.2,0-0.3-0.1-0.4l0,0
	C20.4,20.2,20.2,20.1,19.9,20L19.9,20z"/>
<path class="st4" d="M19.3,6.5c0.6-0.1,0.9-0.7,1.3-1.1c0.1,0,0.1-0.1,0.2-0.1c0-0.1-0.1-0.1-0.1-0.2C20,5.5,19.5,5.9,19.3,6.5
	L19.3,6.5L19.3,6.5C19.2,6.5,19.3,6.5,19.3,6.5z"/>
<path class="st42" d="M7.4,25.4L7.4,25.4L7.4,25.4c-0.2,0.1-0.4,0.1-0.6,0.2l0,0l0,0c-0.1,0.4-0.4,0.6-0.9,0.6l0,0
	c-0.1,0.1-0.2,0.3-0.2,0.4l0,0l0,0l0.1,0.1c0.6-0.4,1.2-0.8,1.7-1.2C7.5,25.5,7.4,25.4,7.4,25.4L7.4,25.4z"/>
<path class="st1" d="M9.3,23.3c-0.2-0.2-0.3-0.6-0.6-0.6c0.1,0.4,0.2,0.8,0.4,1.3l0,0c0.1,0,0.1-0.1,0.2-0.1c0.1,0,0.1-0.1,0.1-0.1
	C9.3,23.6,9.3,23.5,9.3,23.3z"/>
<path class="st1" d="M21.1,28.8L21.1,28.8c0,0.3-0.5,0.5-0.2,0.9c0.1,0,0.2,0,0.3,0c0.2-0.3,0.3-0.5,0.5-0.8
	c-0.1-0.1-0.3-0.1-0.4-0.2C21.2,28.7,21.1,28.8,21.1,28.8z"/>
<path class="st45" d="M19.7,30.5L19.7,30.5c-0.2-0.1-0.4-0.3-0.5-0.4l0,0c-0.2,0.1-0.4,0.1-0.7,0.2c0.3,0.4,0.7,0.4,1.1,0.5
	C19.7,30.7,19.7,30.6,19.7,30.5L19.7,30.5z"/>
<path class="st46" d="M9.8,1.8c0.2-0.2,0.3-0.4,0.1-0.6C9.6,1.4,9.4,1.5,9.1,1.7l0,0l0,0C9,1.7,9,1.7,9,1.8C9.3,2.2,9.5,1.9,9.8,1.8
	z"/>
<path class="st35" d="M22.4,24.8c0.1-0.5-0.3-0.8-0.3-1.3C21.3,24.2,22.3,24.4,22.4,24.8z"/>
<path class="st26" d="M1.9,25.5c0-0.1,0-0.2,0.1-0.3s0.2-0.3,0.2-0.4c-0.1,0-0.2,0-0.4-0.1l0,0c-0.5,0.1-0.4,0.5-0.3,0.8
	C1.7,25.5,1.8,25.5,1.9,25.5z"/>
<path class="st6" d="M28.9,4.3c-0.2,0.1-0.3,0.2-0.5,0.4c0.1,0.2,0.2,0.3,0.3,0.5C28.8,5.1,29,5,29.1,5c0-0.3,0-0.5,0-0.8
	C29,4.2,29,4.3,28.9,4.3z"/>
<path class="st12" d="M22.2,25.5L22.2,25.5c0,0.1,0.1,0.1,0.1,0.2l0,0c0.1,0.2,0.2,0.3,0.4,0.5c0,0.1,0.1,0.1,0.1,0.2l0,0l0,0
	c0.1-0.4,0-0.8-0.2-1.1c-0.2,0-0.3,0-0.5,0.1C22.1,25.4,22.1,25.5,22.2,25.5z"/>
<path class="st8" d="M13.9,17.4L13.9,17.4c-0.1,0-0.1,0.1-0.2,0.1c-0.1,0.1-0.2,0.2-0.2,0.4l0,0V18l0,0c0.1,0.1,0.2,0.3,0.3,0.4h0.1
	C14,18.1,14.2,17.8,13.9,17.4z"/>
<path class="st16" d="M28.7,5.2c-0.4,0.4,0,0.5,0.2,0.6c0.2-0.3,0.2-0.6,0.2-0.9C29,5,28.9,5.1,28.7,5.2z"/>
<path class="st47" d="M9.6,8.2c0,0,0.1-0.2,0.1-0.4C9.5,7.6,9.4,7.3,9,7.5l0,0c0,0.1,0,0.1,0.1,0.2C9.3,7.9,9.4,8.2,9.6,8.2z"/>
<path class="st19" d="M28,3.7c0.2,0.1,0.3,0,0.5-0.1c0-0.3,0.2-0.2,0.3-0.2C28.6,3.1,28.4,3,28,2.9l0,0C28.1,3.2,28.1,3.4,28,3.7z"
	/>
<path class="st6" d="M7.8,17.7C7.9,17.6,8,17.5,8,17.3c-0.3,0.3-0.8,0-0.9,0.5l0,0C7.4,18,7.6,17.9,7.8,17.7z"/>
<path class="st48" d="M26.8,9.5c0.3-0.3,0.6-0.5,0.7-0.9l0,0C27.2,8.8,26.6,8.8,26.8,9.5z"/>
<path class="st24" d="M24.2,3.4c0.1-0.1,0.3-0.1,0.5-0.1l0,0c0-0.1,0-0.2,0.1-0.3l0,0c-0.3-0.2-0.6-0.1-0.9,0.2l0,0
	C24,3.3,24.1,3.4,24.2,3.4z"/>
<path class="st28" d="M22.6,20.5c-0.3,0-0.7,0-1-0.1c0.1,0.2,0.2,0.3,0.4,0.5C22.1,20.8,22.3,20.6,22.6,20.5L22.6,20.5z"/>
<path class="st25" d="M22.7,26.2c-0.1,0-0.1,0.1-0.2,0.1l0,0c0,0.3,0,0.5,0.1,0.8l0,0c0.1-0.2,0.5-0.4,0.2-0.7l0,0
	C22.7,26.4,22.7,26.3,22.7,26.2z"/>
<path class="st30" d="M30.4,20.5L30.4,20.5c0.1,0.1,0.1,0.2,0.2,0.3c0.1-0.2,0.2-0.4,0.4-0.7l0,0C30.6,20,30.6,20.3,30.4,20.5z"/>
<path class="st12" d="M19.3,7.3L19.3,7.3c0.3-0.3-0.1-0.5,0-0.8l0,0l0,0c-0.1,0.1-0.2,0.2-0.3,0.3l0,0C18.9,7,19,7.2,19.3,7.3z"/>
<path class="st9" d="M22.6,4c0-0.1,0-0.2,0.1-0.3c-0.3-0.1-0.4,0.1-0.6,0.2C22.2,4.1,22.4,4.2,22.6,4z"/>
<path class="st30" d="M0.9,10.8c-0.1,0-0.3,0.1-0.4,0.1c-0.2,0.1-0.3,0.3-0.1,0.6l0,0C0.4,11.1,1.1,11.4,0.9,10.8z"/>
<path class="st49" d="M1.5,9.1L1.5,9.1C1.5,9,1.4,9,1.4,8.9C1.1,9.1,1,9.4,0.9,9.8l0,0C1.2,9.6,1.4,9.4,1.5,9.1z"/>
<path class="st50" d="M31.9,18.5c0.2-0.4,0.1-0.7-0.2-0.9c0,0.1,0,0.2,0,0.3C31.8,18.1,31.8,18.3,31.9,18.5z"/>
<path class="st51" d="M0,13.3c-0.1,0.4-0.1,0.7,0.3,0.8C0.5,13.8,0.2,13.6,0,13.3z"/>
<path class="st52" d="M7.6,25L7.6,25c-0.1,0.1-0.2,0.3-0.2,0.4l0,0l0.1,0.1c0.2-0.1,0.4-0.2,0.4-0.5C7.8,25,7.7,25,7.6,25L7.6,25z"
	/>
<path class="st53" d="M4.1,21.2L4.1,21.2c0.2-0.2,0.5,0,0.8,0l0,0l0,0c-0.1-0.2-0.2-0.4-0.5-0.4C4.2,20.9,4,21,4.1,21.2L4.1,21.2
	L4.1,21.2z"/>
<path class="st26" d="M1.7,26.2c0.2,0.2,0.3,0.4,0.5,0.7l0,0c0-0.2,0-0.5,0-0.7C2,26.1,1.8,26.1,1.7,26.2z"/>
<path class="st54" d="M21.8,22.8c-0.2-0.3-0.4-0.6-0.5-0.9C21.1,22.3,21.4,22.6,21.8,22.8z"/>
<path class="st42" d="M4.7,26.9L4.8,27c0.3-0.1,0.5-0.2,0.8-0.3C5.2,26.4,5,26.8,4.7,26.9z"/>
<path class="st49" d="M9.9,1.2c0-0.1,0-0.2,0.1-0.3l0,0C9.6,1.1,9.2,1.2,9.2,1.7l0,0C9.4,1.5,9.6,1.4,9.9,1.2z"/>
<path class="st55" d="M12.1,0.4c0.1,0.1,0.3,0.2,0.4,0.3c0.1,0,0.1-0.1,0.2-0.1l0,0c0.1,0,0.1-0.1,0.2-0.1c0-0.1-0.1-0.1-0.1-0.2
	C12.5,0.1,12.3,0.3,12.1,0.4L12.1,0.4L12.1,0.4L12.1,0.4L12.1,0.4z"/>
<path class="st56" d="M28.9,4.3c0.1,0,0.1-0.1,0.2-0.1c0.1-0.3-0.1-0.4-0.2-0.6C28.7,3.9,28.7,4.1,28.9,4.3z"/>
<path class="st42" d="M14.1,7.2C14,7,13.8,6.9,14,6.7s0.4-0.1,0.6,0c0.7-0.5,1.1-0.5,1.1,0.5C16,7.3,16.1,7.1,16.3,7
	c0-0.1,0-0.2,0.1-0.3c-0.2-0.3-0.2-0.5,0-0.8c0.1,0,0.1-0.1,0.2-0.1c-0.4-0.4-1-0.2-1.4-0.6c-0.7-0.1-0.4-0.9-0.8-1.2l0,0l0,0
	c-0.2,0-0.4,0-0.5,0c-0.1,0.4,0.1,0.6,0.3,0.8c0.3,0.2,0.7,0.4,0.3,0.8c-0.3,0.3-0.6,0.9-1.2,0.3c0,0.2-0.1,0.3-0.1,0.5v0.1
	c0.2,0.4,0.4,0.8,0.5,1.2C13.9,7.5,14,7.4,14.1,7.2z"/>
<path class="st27" d="M14.3,4C15,3.8,15,4.3,15.1,4.8l0,0c0.4-0.5,0.8,0.2,1.2-0.1c-0.5-0.4-1.2-0.6-0.9-1.4
	c0.1-0.1,0.3-0.2,0.2-0.4C15.4,2.9,15,3.2,15,3c-0.1-1.1-1.1-0.8-1.6-1.2c-0.1,0-0.1,0.1-0.2,0.1C13.1,2.9,13.7,3.5,14.3,4L14.3,4
	L14.3,4z"/>
<path class="st15" d="M11.4,5.7c0.1-0.5,0.5-0.8,0.9-1c0.2-0.1,0.3-1.6,0.2-1.6c-0.8,0.4-0.6-0.8-1.3-0.8c0.3,0.5-0.3,1,0.2,1.5
	c0.6,0.3,0,0.4-0.1,0.6c-0.1,0.2,0,0.5-0.4,0.5C10.9,5,11,5,11,5.1C11.2,5.4,11.3,5.6,11.4,5.7z"/>
<path class="st15" d="M11.2,5.9c-0.2,0.2-0.4,0.5-0.7,0.5c0.1,0.2,0.1,0.4,0.2,0.6c0.3-0.2,0.5-0.3,0.8,0c0.2-0.2,0.3-0.6,0.6-0.2
	c0.1-0.1,0.2-0.3,0.2-0.4c-0.2-0.1-0.4-0.3-0.5-0.4C11.6,5.9,11.4,5.9,11.2,5.9L11.2,5.9z"/>
<path class="st19" d="M13.4,1.9c-0.2-0.5,0.2-0.4,0.4-0.4s0.6,0.1,0.3-0.4l0,0c-0.2-0.3-0.6-0.3-0.8-0.4l0,0C13,1.1,12.7,1.5,13.2,2
	C13.2,2,13.3,1.9,13.4,1.9z"/>
<path class="st2" d="M10.7,7c-0.1-0.2-0.1-0.4-0.2-0.6c-0.1-0.3-0.2-0.5-0.3-0.8c-0.5,0.6-0.6,1.2,0.1,1.7l0,0
	C10.5,7.1,10.6,7,10.7,7z"/>
<path class="st2" d="M10.2,5.5L10.2,5.5L10.2,5.5z"/>
<path class="st18" d="M13.3,6c-0.3-0.5-0.6-1.1-1.2-0.2c0.3,0.3,0.7,0.5,1,0.8V6.5C13.3,6.3,13.3,6.1,13.3,6z"/>
<path class="st34" d="M10.5,6.3c0.3,0,0.5-0.3,0.7-0.5l0,0c0.1,0,0.1-0.1,0.2-0.1c-0.1-0.2-0.2-0.3-0.4-0.5
	c-0.2,0.1-0.4,0.3-0.6,0.2c-0.1,0-0.1,0.1-0.2,0.1l0,0l0,0l0,0C10.3,5.8,10.4,6.1,10.5,6.3z"/>
<path class="st15" d="M12.5,0.7c0,0.2-0.2,0.2-0.3,0.4c-0.3,0.3-0.3,0.7,0,0.6c0.4-0.2,0.6-0.6,0.4-1.1l0,0
	C12.7,0.6,12.6,0.6,12.5,0.7z"/>
<path class="st28" d="M11,5.2c0-0.1-0.1-0.1-0.1-0.2c-0.5,0.4-0.6-0.6-1.1-0.3c0,0.4,0.3,0.5,0.6,0.7C10.7,5.5,10.8,5.3,11,5.2z"/>
<path class="st28" d="M11.3,4.1L11.3,4.1L11.3,4.1z"/>
<path class="st28" d="M10.7,3.8c-0.1,0-0.1,0.3-0.1,0.4c0.2,0.3,0.4,0,0.6-0.1C11.1,3.9,11.1,3.6,10.7,3.8z"/>
<path class="st57" d="M11.3,4.1L11.3,4.1L11.3,4.1z"/>
<path class="st57" d="M11.4,3.9c-0.1,0-0.1,0.1-0.2,0.1c0,0.2,0,0.3,0.1,0.5C11.5,4.3,12,4.2,11.4,3.9z"/>
<path class="st58" d="M10.3,9.7c0,0.3,0.1,0.5,0,0.8c-0.2,0.3,0.2,0.4,0.3,0.5l0,0l0,0c0.7,0.7,1.1,1.6,1.5,2.5c0.2,0,0.3,0,0.5-0.1
	c-0.2-1.1,0.8-1.3,1.4-1.7l0,0l0,0c0-0.2-0.1-0.4-0.1-0.6l0,0c-0.1-0.1-0.1-0.1-0.2-0.2l0,0c-0.2,0.1-0.5,0.5-0.6-0.1
	c0-0.1-0.1-0.1-0.1-0.2l0,0c-0.3-0.1-0.5-0.3-0.7-0.6l0,0c-0.1,0-0.2,0-0.3-0.1l0,0l0,0c-0.1,0-0.1,0.1-0.1,0.1
	c-0.4,0.3-0.7,0.3-0.9-0.2l0,0l0,0c-0.1-0.1-0.2-0.2-0.2-0.3l0,0C10.6,9.7,10.5,9.7,10.3,9.7z M12.1,11.5c0.2,0,0.3-0.1,0.6-0.2
	c-0.2,0.4-0.4,0.7-0.7,0.6C11.8,11.8,11.5,11.4,12.1,11.5z"/>
<path class="st59" d="M12.3,10.2L12.3,10.2L12.3,10.2c0.4-0.1,0.5-0.8,0.8-0.8c0.4,0,0.8,0.4,1.2,0.6c0.2-0.6-0.2-0.7-0.4-0.9l0,0
	l0,0c-0.1-0.3-0.4-0.4-0.6-0.6l0,0l0,0c-0.9,0.2-0.6,1.2-1.2,1.6l0,0C12.2,10.1,12.2,10.1,12.3,10.2z"/>
<path class="st31" d="M9.2,10.8c0.2,0.3,0.1,0.6-0.2,0.9c-0.1,0.2,0,0.3,0.1,0.4l0,0c0.2-0.4,0.5-0.2,0.8-0.3
	c0.1-0.4,0.3-0.7,0.7-0.7l0,0c-0.1-0.2-0.5-0.2-0.3-0.5c-0.2-0.1-0.4-0.3-0.5-0.4l0,0c-0.1,0-0.1,0.1-0.2,0.1
	C9.6,10.5,9.4,10.6,9.2,10.8z"/>
<path class="st22" d="M10.7,7c-0.1,0.1-0.2,0.2-0.3,0.2l0,0c0.3,0.5,0.5,1,1.1,1.3c0.1,0,0.1-0.1,0.2-0.1c-0.1-0.5-0.1-0.9-0.2-1.4
	C11.2,6.6,11,6.8,10.7,7z"/>
<path class="st43" d="M14.4,8.3c0.3-0.1,0.5-0.3,0.7-0.4c0-0.5-0.6-0.3-0.7-0.7l0,0l0,0c-0.1,0-0.2,0-0.3-0.1
	c-0.1,0.2-0.3,0.3-0.4,0.5c-0.5,0.1-0.5,0.3-0.3,0.7C13.7,8.3,14,7.9,14.4,8.3z"/>
<path class="st60" d="M13.9,9.1L13.9,9.1c0.4-0.1,0.4-0.5,0.5-0.8c-0.4-0.4-0.6,0-0.9,0.1c-0.1,0-0.1,0.1-0.2,0.1l0,0
	C13.5,8.7,13.8,8.8,13.9,9.1z"/>
<path class="st61" d="M10.3,10.5c0.1-0.3,0-0.5,0-0.8l-0.1-0.1c-0.7-0.3-0.4,0.3-0.4,0.5l0,0C9.9,10.3,10.1,10.4,10.3,10.5z"/>
<path class="st27" d="M12.1,6.8c0.1,0.2,0.3,0.4,0.4,0.6c0.3-0.5,0.3-0.8-0.2-1C12.3,6.5,12.2,6.7,12.1,6.8z"/>
<path class="st52" d="M10.3,9.7c0.2,0,0.3,0,0.5,0l0,0c0.1-0.3,0-0.6-0.3-0.6c-0.4-0.1-0.1,0.4-0.3,0.5l0,0L10.3,9.7z"/>
<path class="st21" d="M9.3,10.2L9.3,10.2c0-0.1-0.1-0.1-0.1-0.2C9.1,9.9,9,9.5,8.8,9.7S8.5,10.3,9,10.4C9.1,10.3,9.2,10.3,9.3,10.2z
	"/>
<path class="st62" d="M11.5,8.5c0.1,0.2-0.3,0.6,0.2,0.7c0.6,0.1,0-0.6,0.4-0.6c0-0.1-0.1-0.1-0.1-0.2c-0.1,0-0.2,0-0.3-0.1l0,0
	C11.6,8.4,11.5,8.4,11.5,8.5z"/>
<path class="st63" d="M11.9,10.2c-0.3-0.3-0.6-0.1-0.9-0.2l0,0C11.2,10.5,11.5,10.5,11.9,10.2z"/>
<path class="st13" d="M9.2,10.8L9.2,10.8c0.2-0.1,0.4-0.2,0.4-0.5l0,0c-0.1,0-0.2,0-0.3-0.1l0,0c-0.1,0.1-0.2,0.2-0.3,0.2
	c0,0.1,0,0.2-0.1,0.3C9,10.7,9.1,10.7,9.2,10.8z"/>
<path class="st20" d="M12.4,8.2l-0.1-0.1c-0.1,0.1-0.2,0.2-0.3,0.4c0,0.1,0.1,0.1,0.1,0.2C12.2,8.5,12.4,8.4,12.4,8.2z"/>
<path class="st36" d="M4.9,22c0.4-0.3,0.6,0.3,0.9,0.2c0.1,0,0.1-0.1,0.2-0.1l0,0c-0.1-0.1-0.2-0.3,0-0.4c0.1,0,0.2,0,0.3,0
	c0.1,0.1,0,0.2-0.1,0.3c0.2,0.5,0.4,0.9,0.8,1.2c0-0.2,0.1-0.4,0.1-0.6c-0.4-0.4-0.2-1-0.5-1.5c-0.1-0.1-0.2-0.2-0.2-0.3l0,0
	C5.9,21,5.1,20,5,21.3l0,0l0,0c-0.1,0.2-0.2,0.5-0.3,0.7l0,0l0,0c0,0.1,0.1,0.1,0.1,0.2l0,0l0,0C4.8,22.1,4.8,22.1,4.9,22z"/>
<path class="st64" d="M8.7,19.4c0.2,0.3,0.2,0.8,0,0.8C8,20.4,8.1,21,7.9,21.4c0.2-0.1,0.3-0.2,0.5-0.3C8.5,21,8.6,21,8.7,20.9
	c0.2-0.3,0.4-0.7,0.7,0c0.2,0.5,0.4,0.3,0.7,0.1c-0.2-0.1-0.4-0.2-0.5-0.4c0.3-0.1,0.6-0.2,0.9-0.1c0-0.1-0.1-0.1-0.1-0.2
	c-0.1-0.1-0.1-0.3-0.1-0.5c-0.7,0-0.5-0.5-0.6-0.9C9.5,19.4,9.1,19.5,8.7,19.4z"/>
<path class="st65" d="M6.9,23.2c-0.1,0.1-0.2,0.2-0.3,0.2c0.1,0.2,0.2,0.3,0.3,0.5l0,0l0,0c0.1,0,0.1-0.1,0.2-0.1l0,0
	c0.1,0,0.1-0.1,0.2-0.1c0.1-0.2,0.3-0.3,0.4-0.5l0,0C7.8,23.1,7.9,23,8,23c0.2,0,0.3,0,0.5-0.1c-0.2-0.3-0.8-0.3-0.8-0.7
	c-0.4,0,0.1,1-0.6,0.4C7,22.8,7,23,6.9,23.2z"/>
<path class="st12" d="M9.7,19c-0.2-0.4-0.6-0.8-0.9-0.6c-0.3,0.2-0.4,0.7-0.2,1.1c0.1,0,0.1-0.1,0.2-0.1C9.1,19.5,9.5,19.4,9.7,19z"
	/>
<path class="st60" d="M8.4,21.2c0.2,0.4-0.3,0.4-0.4,0.7c0.9,0.2,0.9-0.3,0.8-0.9l0,0C8.6,21,8.5,21.1,8.4,21.2z"/>
<path class="st66" d="M6.6,21.1c0.9-0.1,0.3-0.5,0.2-0.9l0,0c-0.1,0-0.1,0.1-0.2,0.1l0,0c-0.1,0.1-0.3,0.2-0.2,0.4l0,0
	C6.4,20.9,6.5,21,6.6,21.1z"/>
<path class="st8" d="M9,24L9,24c-0.1-0.4-0.2-0.8-0.4-1.3c-0.1,0-0.1,0.1-0.2,0.1C8.6,23.3,8.3,23.9,9,24z"/>
<path class="st18" d="M9.6,20.6c0.1,0.3,0.3,0.3,0.5,0.4c0.2-0.1,0.4-0.2,0.4-0.5C10.2,20.4,9.9,20.5,9.6,20.6z"/>
<path class="st67" d="M9.9,22.7c-0.2-0.3,0-0.6-0.1-1c-0.4,0.5-0.5,0.8-0.1,1.1C9.8,22.8,9.8,22.7,9.9,22.7z"/>
<path class="st64" d="M8.5,19.5L8.5,19.5c-0.2-0.1-0.5-0.2-0.7-0.3l0,0c0.1,0.1,0.1,0.2,0.2,0.3C8.3,19.8,8.4,20,8.5,19.5z"/>
<path class="st36" d="M10.2,12.9L10.2,12.9c0-0.1-0.1-0.1-0.1-0.2l0,0l0,0c-0.4,0-0.7-0.3-0.9-0.6l0,0c-0.1-0.1-0.1-0.3-0.1-0.4
	c-0.2,0-0.4-0.1-0.6-0.1l0,0l0,0c-0.2-0.1-0.5-0.2-0.7-0.3c-0.3,0.4-0.5,0.7-0.2,1.2c0.2,0,0.4,0.1,0.6,0.1c0.3-0.2,0.6-0.3,0.8,0
	c0.3,0.4-0.1,0.5-0.4,0.7l0,0l0,0c0.4,0.3,0.8-0.1,1.2-0.1C9.9,13.1,10.2,13.2,10.2,12.9z"/>
<path class="st48" d="M5.6,9.9c0.3,0.3,0.5,0.5,0.8,0.8c0.2,0.1,0.5,0.2,0.7,0.3l0,0c0.6,0.1,0-1.1,0.9-0.7C7.2,9.6,6.5,8.8,5.5,9.8
	C5.5,9.8,5.6,9.8,5.6,9.9z"/>
<path class="st13" d="M7.5,12.4c-0.3-0.5,0-0.8,0.2-1.2c-0.4,0.2-0.5,0-0.7-0.3l0,0c-0.2-0.1-0.5-0.2-0.7-0.3
	c0.1,0.3,0.2,0.5,0.3,0.8c0.2,0.4,0.5,0.7-0.1,1c0.1,0,0.2,0,0.3,0.1C7.1,12.5,7.3,12.5,7.5,12.4z"/>
<path class="st21" d="M9,11.6c0.3-0.2,0.4-0.5,0.2-0.9l0,0c-0.1,0-0.2,0-0.3-0.1c-0.2,0.2-0.7,0.3-0.5,0.8l0,0
	C8.6,11.6,8.8,11.6,9,11.6z"/>
<path class="st48" d="M4.5,10.1c0.3,0.1,0.4-0.1,0.6-0.2l0,0c0.1-0.1,0.2-0.2,0.3-0.2C5.2,9.5,5.1,9.1,4.8,9.1
	C4.9,9.5,4.9,9.9,4.5,10.1z"/>
<path class="st15" d="M3.7,9L3.7,9C4,8.9,4.2,9,4.3,9.2c0.2,0,0.3,0,0.5-0.1C4.6,8.9,4.4,8.7,4.2,8.5C3.9,8.6,3.8,8.7,3.7,9L3.7,9z"
	/>
<path class="st68" d="M25.7,6L25.7,6L25.7,6z"/>
<path class="st68" d="M27.4,3.7c-0.3,0-0.2-0.3-0.3-0.5c-0.8,0.5,0.1,1.1-0.2,1.6c-0.4,0.2-0.7,0.3-1-0.1c0-0.1,0-0.1-0.1-0.2l0,0
	c0-0.1-0.1-0.1-0.3,0.1c-0.1,0.2-0.2,0.4-0.4,0.6l0,0c0.1,0.2,0.2,0.3,0.4,0.5l0.1,0.1l0.1,0.1c0.7-0.3,1.3,0.5,1.2,1.4
	c0.2,0.3,0,0.5,0,0.8l0,0l0,0l0,0C27.1,8,27.3,8,27.5,7.9c-0.1-0.3,0.1-0.5,0.2-0.7c0.3-1.3,0.1-1.8-0.8-1.9
	c0.4-0.4,1.1-0.4,1.5-0.8l-0.1-0.1l-0.1-0.1c-0.8,0-0.7-0.4-0.3-0.8l0,0c0.2-0.2,0.2-0.5,0-0.7l0,0C27.6,3.1,27.9,3.7,27.4,3.7z"/>
<path class="st69" d="M22.4,8.2c-0.1-0.2-0.2-0.3-0.3-0.5c-0.1,0.1-0.2,0.1-0.3,0.2c-0.3,0-0.5,0-0.8,0c0.1,0.1,0.2,0.2,0.2,0.3
	c0,0.4-0.4,0.5-0.6,0.6C20.7,9,21.5,8.7,21,9.3c0.1,0.1,0.2,0.2,0.2,0.3c0.1,0,0.2,0,0.3,0.1c0.2,0.3,0,0.9,0.7,0.6
	c0.5-0.2,0.6-0.6,0.3-1.1c-0.1-0.2-0.1-0.4-0.2-0.6C22.1,8.6,22.2,8.4,22.4,8.2z"/>
<path class="st37" d="M24.7,8.9c-0.1-0.2-0.1-0.4-0.2-0.6c-0.5-0.4,0.2-0.6,0.2-0.9c-0.2-0.1,0-0.5-0.4-0.5c-0.2,0.4-0.5,0.7-1,0.7
	l0,0l0,0c-0.1,0.2-0.3,0.3-0.4,0.5c0,0.2,0.1,0.4,0.3,0.5c0.5,0.2,0.2,0.4-0.1,0.6c0.1,0.5,0.4,0.4,0.7,0.3c0.1,0,0.1-0.1,0.2-0.1
	l0,0l0,0c0.2-0.2,0.5-0.3,0.8,0C24.8,9.2,24.8,9.1,24.7,8.9z"/>
<path class="st70" d="M25.9,7.1c-0.2,0.2,0,0.8-0.6,0.6c-0.4,0.2-0.5,0-0.7-0.3c0,0.3-0.6,0.5-0.2,0.9c0.2-0.1,0.5-0.4,0.6,0.1
	c0.2,0.1,0.3,0.3,0.5,0.4c0.1,0,0.1-0.1,0.2-0.1c-0.3-0.5-0.1-0.8,0.5-0.8l0,0c0.1-0.4,0.3-0.6,0.7-0.5l0,0C27,6.5,26.3,5.7,25.7,6
	l0,0C25.9,6.3,26.8,6.5,25.9,7.1z"/>
<path class="st36" d="M20.4,10.8c-0.1,0-0.1,0.1-0.2,0.1c0.2,0.5,0.4,0.9,1,1.1l0,0l0,0c0.7-0.5,1.5-0.4,2.2-0.9L23.3,11l-0.1-0.1
	c-0.4,0.2-0.6,0.2-0.7-0.3c-0.3,0.6-0.8,0.4-1.3,0.4C20.8,11.8,20.6,11.1,20.4,10.8z"/>
<path class="st9" d="M23.2,8.6c-0.2-0.1-0.3-0.3-0.3-0.5l0,0c0-0.1-0.1-0.1-0.1-0.2l0,0c-0.1,0.1-0.2,0.2-0.4,0.2l0,0
	c-0.2,0.2-0.3,0.4-0.1,0.6c0.3,0.2,0.5,0.3,0.8,0.5C23.4,9.1,23.6,8.9,23.2,8.6z"/>
<path class="st71" d="M20.4,10.1c-0.2,0.3-0.2,0.5,0,0.8c0.3,0.2,0.4,1,0.9,0.2c-0.6-0.1-0.1-0.4-0.2-0.6
	C20.8,10.3,20.6,10.2,20.4,10.1z"/>
<path class="st71" d="M25.1,8.4c-0.1,0.2-0.3,0.3-0.4,0.5c0.1,0.1,0.2,0.3,0.1,0.5c0.1,0.2,0.1,0.4,0.2,0.4c0.2,0.1,0.2-0.1,0.2-0.3
	c0-0.3,0-0.7,0.5-0.8C25.4,8.7,25.3,8.6,25.1,8.4z"/>
<path class="st72" d="M21,9.4c-0.2-0.1-0.3-0.3-0.5-0.4l0,0c-0.2,0.5-0.7,0.1-1,0.4c0.2,0.3,0.5,0.2,0.7,0.3l0,0l0,0
	c0.3-0.2,0.6,0,0.9,0.2c0.1,0,0.1-0.1,0.2-0.1l0,0C21.1,9.7,21,9.5,21,9.4z"/>
<path class="st73" d="M23.2,10.9c0.1-0.3,0-0.5-0.3-0.6c-0.2-0.1-0.3,0.2-0.4,0.3C22.6,11.2,22.9,11.1,23.2,10.9z"/>
<path class="st74" d="M20.1,9.7L20.1,9.7c0.1,0.1,0.2,0.2,0.2,0.3c0.2,0.1,0.5,0.2,0.7,0.3c0.1-0.2,0-0.3-0.1-0.5
	C20.7,9.8,20.5,9.5,20.1,9.7z"/>
<path class="st71" d="M25.8,8.7c0.6,0,0.3-0.5,0.5-0.8C25.7,7.9,25.5,8.2,25.8,8.7z"/>
<path class="st21" d="M24,9.4c-0.1,0-0.1,0.1-0.2,0.1c0.2,0.2,0.5,0.4,0.8,0.8C24.6,9.7,24.3,9.6,24,9.4L24,9.4L24,9.4z"/>
<path class="st68" d="M26.5,8.5l0.2,0.1c0.3,0,0.2-0.3,0.2-0.5l0,0C26.8,8.3,26.5,8.2,26.5,8.5z"/>
<path class="st68" d="M26.2,7.9c0.2-0.2,0.6-0.1,0.7-0.5C26.5,7.3,26.3,7.5,26.2,7.9z"/>
<path class="st4" d="M8.1,12.5c-0.2,0-0.4-0.1-0.6-0.1c-0.2,0.1-0.4,0.1-0.6,0.2c0,0.1,0.1,0.1,0.1,0.2c0.3,0.2,0.5,0.4,0.1,0.6
	c-0.4,0.2-0.3,0.5-0.2,0.7l0,0l0,0C8.4,13.5,6.8,15,7.6,15c0.1-0.6,0.8-1.1,0.7-1.8C8.2,12.9,8.2,12.7,8.1,12.5z"/>
<polygon class="st22" points="10.7,13.8 10.7,13.8 10.7,13.8 "/>
<path class="st22" d="M10.4,14L10.4,14c0.1-0.1,0.2-0.2,0.3-0.2c-0.1-0.1-0.4-0.3-0.1-0.4c0.3-0.1,0.7-0.1,0.8-0.5
	c-0.5-0.3-0.9,0.1-1.3,0.1c0,0.3-0.2,0.2-0.4,0.3c0,0.2-0.1,0.3-0.2,0.4C9.7,13.9,10,14.1,10.4,14z"/>
<path class="st12" d="M9.9,15.9L9.9,15.9L9.9,15.9c0.3-0.3-0.2-0.8,0.3-1l0,0c-0.3-0.3-1,0.2-1.1-0.5l0,0l0,0
	c-0.6,0.4,0.3,0.8,0.1,1.2c0,0.1,0.1,0.1,0.1,0.2l0,0C9.5,15.6,9.7,15.6,9.9,15.9z"/>
<path class="st60" d="M9.7,14.2c-0.1,0.3-0.4,0-0.6,0.1c0.1,0.8,0.8,0.2,1.1,0.5c0.1-0.3,0.1-0.6,0.2-0.9C10,14,9.8,13.7,9.6,13.4
	c-0.1,0.1-0.2,0.2-0.3,0.2C9.4,13.9,9.7,14,9.7,14.2z"/>
<path class="st69" d="M8.9,12.5c-0.2-0.3-0.6-0.2-0.8,0c0.1,0.2,0.1,0.4,0.2,0.6c0.1,0,0.2,0,0.3,0.1l0,0C8.8,13,9.2,12.9,8.9,12.5z
	"/>
<path class="st6" d="M7.1,13.3c0.4-0.2,0.1-0.4-0.1-0.6c-0.1,0.4-0.6,0.4-0.9,0.6c0.4,0.1,0.4,0.6,0.6,0.9c0.1,0,0.1-0.1,0.2-0.1
	l0,0C6.9,13.8,6.7,13.5,7.1,13.3z"/>
<path class="st4" d="M6.1,13.3c-0.3-0.1-0.5,0-0.5,0.4C6,13.9,6.3,14,6.7,14.2C6.6,13.9,6.6,13.5,6.1,13.3z"/>
<path class="st25" d="M9.1,14.4c0.2-0.1,0.5,0.2,0.6-0.1S9.4,14,9.2,13.9C9,13.9,9,14.1,9.1,14.4L9.1,14.4L9.1,14.4z"/>
<path class="st12" d="M7.7,15.6l-0.1,0.1C7.7,15.9,7.8,16,8.1,16C8,15.7,7.9,15.6,7.7,15.6z"/>
<path class="st21" d="M2.4,14.1c0.3,0.2,0.8,0.2,0.8,0.8c0,0.1,0,0.3,0.1,0.4l0,0c0.1-0.1,0.2-0.1,0.3-0.2c0.2-0.2,0.8-0.3,0.7-0.7
	s-0.5,0-0.7,0S3.3,14.2,3.3,14s-0.1-0.5,0-0.6c0.4-0.5,0.6,0.4,1,0.2c0.2-0.5-0.2-0.6-0.5-0.8c-0.7-0.3-1.3,0.8-2,0.1l0,0
	C1.4,13.6,2.2,13.7,2.4,14.1z"/>
<path class="st21" d="M3.8,12.9L3.8,12.9L3.8,12.9z"/>
<path class="st4" d="M3.8,9.6C3.7,9.5,3.7,9.3,3.7,9.1L3.6,9L3.5,8.9c-0.2,0-0.4-0.1-0.6-0.1c-0.3,0-0.7,0.6-1,0
	C1.7,8.9,1.6,9,1.4,9.2l0,0c0.3,0.1,0.5,0.4,0.5,0.7c0.3,0.2-0.1,0.8,0.5,0.7c-0.1-0.2-0.2-0.4,0-0.5c0.4-0.2,0.1,0.2,0.2,0.3
	c0.1,0.2,0.5,0.2,0.3,0.5C2.9,11,3,11,3,11.1l0,0c0.2-0.2,0.4-0.4,0.6-0.6C3.7,10.1,3.8,9.8,3.8,9.6z"/>
<path class="st42" d="M2.1,12.2c-0.6,0.2-1.2,0.5-1.8,0.7c0.7,0.1,1.3,0,0.5,0.8c0,0,0.1,0.3,0.2,0.5c0.4-0.3,0.7-0.2,1.1,0.1
	c0.1-0.1,0.2-0.2,0.3-0.2c-0.1-0.4-1-0.5-0.5-1.2l0,0c0.4,0,0.8,0.1,1-0.4C2.6,12.4,2.3,12.3,2.1,12.2z"/>
<path class="st75" d="M5.4,12.3L5.4,12.3C5.3,12,4.6,12,4.8,11.4C4.7,11.2,4.6,11,4.3,11c-0.1,0-0.1,0.1-0.2,0.1l0,0
	c0.2,0.2,0.2,0.5,0.2,0.8c0,0.4,0.2,0.7,0.7,0.5C5.1,12.3,5.3,12.3,5.4,12.3z"/>
<path class="st76" d="M2.5,11.7C2.5,12.1,2.2,12,2,12c0,0.1,0.1,0.1,0.1,0.2c0.2,0.1,0.5,0.2,0.7,0.3c0.5-0.1,0.9-0.2,0.5-0.8l0,0
	C3,11.7,2.8,11.7,2.5,11.7z"/>
<path class="st4" d="M4.3,11c0.1-0.5,0.5-0.3,0.8-0.3c0.1,0,0.1-0.1,0.2-0.1c-0.1-0.2-0.1-0.4-0.2-0.6c-0.2,0.1-0.4,0.3-0.6,0.2l0,0
	l0,0c-0.2,0.2-0.5,0.3-0.7,0.5c0.3,0.1-0.3,0.7,0.4,0.5l0,0C4.2,11.1,4.3,11,4.3,11z"/>
<path class="st15" d="M4.5,10.1c0-0.3-0.1-0.6-0.1-0.9C4.2,9.3,4.2,9.6,3.9,9.6c-0.1,0.3-0.1,0.6-0.2,0.9c0,0.1,0.1,0.1,0.1,0.2
	C4,10.4,4.3,10.3,4.5,10.1z"/>
<path class="st26" d="M5.4,12.3L5.4,12.3L5.4,12.3c-0.2,0-0.3,0-0.5,0c0,0.3-0.2,0.5,0,0.8c0.3,0,0.5-0.3,0.7-0.5
	C5.6,12.5,5.5,12.4,5.4,12.3z"/>
<path class="st68" d="M3,10.9L3,10.9c-0.1,0.1-0.2,0.2-0.3,0.2c0.2,0.2,0.4,0.4,0.6,0.6l0,0c0.1,0,0.3,0.1,0.4,0
	c0.2-0.1,0-0.2-0.1-0.3S3.3,11.1,3.2,11l0,0C3.1,11,3,11,3,10.9z"/>
<path class="st28" d="M4.1,12.4l-0.2-0.1c-0.3,0.1-0.2,0.3-0.1,0.5C3.9,12.7,4.2,12.7,4.1,12.4z"/>
<path class="st28" d="M3.8,12.9L3.8,12.9L3.8,12.9z"/>
<path class="st6" d="M11.9,17.8c0.4-0.7,0.8-0.2,1.2-0.1c0-0.1-0.1-0.1-0.1-0.2c-0.2-0.2-0.3-0.5-0.5-0.7l0,0l0,0
	c-0.2,0-0.5,0-0.5-0.2c-0.2-0.9-0.8-0.6-1.3-0.4c0.1,0.1,0.1,0.3,0.2,0.4l0,0c0.3,0.6-0.6,0.6-0.5,1.1
	C10.9,17.8,11.4,17.8,11.9,17.8z"/>
<path class="st9" d="M10.9,19.8c0,0.3,0.2,0.4,0.5,0.3c0.4,0,0.6-0.3,0.7-0.6c0-0.3-0.3-0.3-0.6-0.2c-0.1,0-0.2-0.2-0.3-0.3l0,0
	c-0.2-0.2-0.3-0.5-0.5-0.7c-0.1,0-0.1,0.1-0.2,0.1c0.1,0.1,0.2,0.2,0.2,0.3C10.8,19.1,10.9,19.4,10.9,19.8z"/>
<path class="st77" d="M10.6,16.2L10.6,16.2L10.6,16.2c0.3-0.2,0.6-0.4,1-0.4c0-0.2,0-0.3-0.1-0.5c-0.1,0-0.2,0-0.3-0.1l0,0
	c-0.1,0.1-0.2,0.2-0.4,0.2l0,0l0,0c-0.3,0.2-0.5,0.5-1,0.4l0,0l0,0l0,0c-0.1,0.2-0.3,0.4-0.4,0.5c0,0.1,0.1,0.1,0.1,0.2
	C9.9,16.4,10.2,16.3,10.6,16.2z"/>
<path class="st13" d="M10.7,16.3L10.7,16.3l-0.1-0.1l0,0c-0.3,0.1-0.7,0.3-1,0.4c-0.1,0.8,0.2,1,0.8,0.5c0.2-0.1,0.3-0.2,0.5-0.3
	l0,0C10.8,16.5,10.8,16.4,10.7,16.3z"/>
<path class="st26" d="M10.4,17.8L10.4,17.8L10.4,17.8z"/>
<path class="st26" d="M10.7,18.3L10.7,18.3L10.7,18.3c-0.1-0.2-0.2-0.3-0.4-0.5c-0.3,0-0.6,0-0.6,0.4c0.1,0.5,0.5,0,0.7,0.2
	C10.6,18.4,10.7,18.4,10.7,18.3z"/>
<path class="st60" d="M9.9,15.9c-0.2-0.2-0.4-0.2-0.6-0.1l0,0C9.1,16,9,16.2,9,16.5l0,0c0.1-0.1,0.3-0.1,0.5-0.1
	C9.6,16.2,9.7,16,9.9,15.9z"/>
<path class="st25" d="M15.8,21.7L15.8,21.7L15.8,21.7c0.2,0.5-0.1,0.5-0.4,0.5c0,0.4,0.5,0.6,0.4,1l0,0l0,0c0.2,0.2,0.5,0.5,0.8,0.5
	c0,0,0.1-0.4,0.2-0.6l0,0c0,0,0.1-0.1,0.2-0.1c0.1-0.1,0.2-0.2,0.3-0.2c-0.2-0.2-0.3-0.4-0.5-0.5s-0.6-0.1-0.5-0.5s0.3-0.6,0.7-0.6
	l0.1-0.1l0,0l0,0c-0.1-0.2-0.2-0.3-0.3-0.5c-0.2,0.1-0.4,0.2-0.5,0.4C16.1,21.2,16.1,21.5,15.8,21.7z"/>
<path class="st78" d="M17.1,19.1c0.1,0,0.1-0.1,0.2-0.1l0,0l0,0c-0.1-0.3-0.4-0.4-0.6-0.6c-0.4-0.3-1-0.1-1.4-0.6
	c-0.8,0.5-0.8-0.5-1.2-0.7c-0.1,0-0.1,0.1-0.2,0.1c0,0.1,0.1,0.1,0.1,0.2l0,0l0,0c0.2,0.3,0.1,0.7,0,1c0.1,0.7,0.5,0.3,0.7,0.1
	s0.4-0.5,0.7-0.2c0.4,0.5,1,0.4,1.5,0.6l0,0C16.9,19.1,17,19.1,17.1,19.1L17.1,19.1z"/>
<path class="st17" d="M17.1,21.1L17.1,21.1c0.2,0,0.3,0,0.5,0l0,0l0,0c0.1,0,0.1-0.1,0.2-0.1c-0.1-0.2-0.2-0.5,0.2-0.4
	c0.2-0.1,0.3-0.2,0.5-0.3c-0.1-0.2-0.2-0.3-0.4-0.5c-0.3,0.2-0.6,0.1-0.9,0.1l0,0l0,0c0.1,0.2,0.2,0.5-0.2,0.4
	c-0.1,0.1-0.2,0.2-0.4,0.2l0,0c0,0.1,0.1,0.1,0.1,0.2C16.9,20.7,17,20.9,17.1,21.1z"/>
<path class="st21" d="M14.9,21.1c0.3,0.1,0.9-0.3,0.8,0.5l0,0c0,0.1,0.1,0.1,0.1,0.2l0,0c0.3-0.2,0.3-0.5,0.5-0.8
	c-0.3-0.2-0.6-0.3-0.9-0.5c-0.8-0.5-0.6,0.1-0.6,0.5l0,0C14.8,21,14.9,21,14.9,21.1z"/>
<path class="st79" d="M17,20.1c0.1-0.6-0.3-0.7-0.7-0.7c-0.3,0-0.5,0.4-0.4,0.6c0.1,0.4,0.4,0.5,0.7,0.3l0,0
	C16.8,20.3,16.9,20.2,17,20.1z"/>
<path class="st80" d="M18.2,19.6c0.2-0.1,0.4-0.1,0.6-0.2l0,0c-0.2-0.5-0.6-0.5-1-0.3c-0.3,0.1-0.5,0.2-0.7-0.1l0,0l0,0
	c-0.1,0-0.2,0-0.3-0.1l0,0c0.2,0.2,0.3,0.5,0.5,0.7l0,0C17.6,19.7,17.9,19.8,18.2,19.6z"/>
<path class="st39" d="M14.4,20.7L14.4,20.7c0-0.2,0-0.3-0.1-0.5l0,0c-0.3,0.2-0.7,0.4-0.6,0.9c0.2-0.1,0.4-0.1,0.6-0.2
	C14.3,20.9,14.4,20.8,14.4,20.7z"/>
<path class="st81" d="M14.9,21.1c0-0.1-0.1-0.1-0.1-0.2l0,0c-0.1-0.1-0.2-0.2-0.4-0.2l0,0c0,0.1,0,0.2-0.1,0.3
	c0.1,0.2,0.2,0.3,0.3,0.5C14.7,21.4,14.8,21.2,14.9,21.1z"/>
<path class="st71" d="M24.6,5.3c0,0-0.1,0.1-0.2,0c-0.2-0.2,0-0.4,0-0.6c-0.3,0.5-1,0.1-1.3,0.6c0,0.2-0.1,0.4-0.1,0.6l0,0
	c0.2-0.1,0.4-0.1,0.6-0.2C24,5.4,24.3,5.4,24.3,6c0,0.3,0,0.5,0,0.8c0.3,0,0.2,0.4,0.4,0.5c0.2,0.3,0.3,0.5,0.7,0.3l0,0
	c0-0.1,0-0.2,0.1-0.3c-0.4-0.1-0.7-0.3-0.3-0.8c-0.3-0.5,0.2-0.6,0.5-0.8c-0.1-0.2-0.2-0.3-0.4-0.5l0,0c-0.3-0.1-0.2-0.5-0.5-0.7
	c-0.1,0-0.1,0.1-0.2,0.1C24.7,4.9,24.8,5.1,24.6,5.3z"/>
<path class="st79" d="M22.5,5.4L22.5,5.4c0,0.1,0.1,0.1,0.1,0.2c0.1-0.1,0.3-0.2,0.5-0.1c0.3-0.5,1-0.2,1.3-0.6
	c0.1,0,0.1-0.1,0.2-0.1l0,0c0.1,0,0.1-0.1,0.2-0.1c-0.2-0.1-0.3-0.3-0.5-0.4c-0.2-0.1-0.3,0-0.5,0.1c0.1,0.2,0.5,0.5-0.1,0.6l0,0
	c-0.3,0.2-0.5-0.8-0.9-0.2C23.4,5.2,22.6,5.1,22.5,5.4z"/>
<path class="st66" d="M27,4.9c-0.3-0.2-0.7-0.3-1-0.1C26.3,5.2,26.6,5,27,4.9z"/>
<path class="st41" d="M10.8,18.3c0.3,0.1,0.6,0.1,0.9,0.2l0,0c0.3-0.1,0.9-0.2,0.3-0.7c-0.5,0-1,0-1.5,0l0,0l0,0l0,0l0,0
	C10.5,18,10.6,18.1,10.8,18.3z"/>
<path class="st21" d="M10.8,18.3C10.7,18.3,10.7,18.3,10.8,18.3C10.7,18.3,10.7,18.3,10.8,18.3c0.2,0.2,0.3,0.5,0.5,0.7l0,0
	c0.2-0.1,0.4-0.2,0.4-0.5l0,0C11.3,18.4,11,18.4,10.8,18.3z"/>
<path class="st82" d="M13,17.5c0,0.1,0.1,0.1,0.1,0.2c0.1,0.1,0.3,0.1,0.4,0.2l0,0c0.1-0.1,0.2-0.2,0.2-0.4
	C13.5,17.2,13.3,17.4,13,17.5z"/>
<path class="st8" d="M19.3,27L19.3,27L19.3,27L19.3,27L19.3,27c0.3,0.6-0.6,0.8-0.4,1.3c0,0.4,0.2,0.2,0.4,0.2
	c-0.2-0.9,0.7-0.5,0.9-0.9c0.1-0.3,0.2-0.7-0.1-0.9c-0.3,0.1-0.6-0.1-0.9,0.1C19.3,26.8,19.3,26.9,19.3,27z"/>
<path class="st25" d="M20.8,28L20.8,28L20.8,28c0.1,0.3,0.2,0.5,0.3,0.8l0,0l0,0c0.1,0,0.1-0.1,0.2-0.1c0.6-0.6,0.3-1.2,0.1-1.8
	c-0.2-0.7-0.4-0.1-0.5,0.1C20.8,27.3,20.4,27.6,20.8,28z"/>
<path class="st4" d="M19.1,25.1L19.1,25.1c-0.1,0.1-0.2,0.2-0.3,0.2c-0.2,0.4,0.6,0.5,0.4,1l0,0c0.8,0,0.8-0.6,1-1.2
	c-0.2,0-0.3-0.1-0.4-0.2C19.5,25,19.3,25,19.1,25.1z"/>
<path class="st10" d="M18.2,26.4L18.2,26.4c0,0-0.1,0.1-0.2,0.1c0.2,0.3,0.4,0.6,0.6,0.9c0.3,0,0.5-0.3,0.7-0.5
	c0-0.1-0.1-0.1-0.1-0.2c0-0.2,0-0.3-0.1-0.5l0,0C18.9,26.5,18.5,26.5,18.2,26.4z"/>
<path class="st10" d="M19.3,27L19.3,27L19.3,27z"/>
<path class="st4" d="M20.9,25.1c0.1-0.3,0.3,0.1,0.5-0.1l0,0c0.1-0.1,0.2-0.2,0.3-0.2l0,0c-0.4-0.4-1-0.1-1.5-0.3
	c-0.3,0.2-0.1,0.3,0.1,0.5C20.5,25.1,20.7,25.2,20.9,25.1z"/>
<path class="st8" d="M21.4,25.1c-0.1,0.1-0.4-0.3-0.5,0.1c0.3,0.2,0.2,0.7,0.4,1c0.3-0.2,0.6-0.4,0.9-0.6l0,0c0-0.1-0.1-0.1-0.1-0.2
	l0,0C21.7,25.6,21.5,25.3,21.4,25.1z"/>
<path class="st35" d="M20.3,27.6c0.1,0.2,0.2,0.4,0.5,0.4l0,0c-0.4-0.4,0-0.7,0.1-1c-0.2-0.2-0.4-0.3-0.7-0.3
	C20.4,26.9,20.3,27.3,20.3,27.6z"/>
<path class="st8" d="M21.9,26.5c0.1,0.2,0.4,0,0.5-0.1l0,0c0.1,0,0.1-0.1,0.2-0.1c-0.1-0.2-0.2-0.3-0.4-0.5l0,0
	C22.1,25.9,21.8,26.2,21.9,26.5z"/>
<path class="st8" d="M24.4,19.8c0-0.1-0.1-0.1-0.1-0.2c-0.1-0.3-0.7-0.6-0.3-1c0.4-0.3,1-0.3,1.3,0.3l0,0c0.3-0.2,0.6-0.4,0.7-0.8
	c0-0.1-0.1-0.1-0.1-0.2c-0.6-0.2,0-0.5,0-0.8c-0.6-0.1-1.1-0.2-1.7,0.1l0,0c0,0.2,0.1,0.5,0,0.6c-0.2,0.1-0.4-0.1-0.5-0.2
	c-0.1,0.1-0.3,0.2-0.2,0.4l0,0c0.2,0.3,0.1,0.5-0.3,0.6c-0.2,0-0.4,0-0.5-0.2c0-0.1,0.2-0.2,0.3-0.3c-0.1-0.1-0.2-0.2-0.2-0.4l0,0
	l0,0c-0.1,0.1-0.2,0.2-0.3,0.2c-0.3,0.6-0.5,1.2-0.8,1.8c0.3,0.5,0.8-0.1,1.2,0.2c0.3-0.3-1.2-0.9,0.2-1.1c0.5-0.1,0.8,0.1,0.6,0.7
	c-0.1,0.2-0.1,0.5-0.1,0.7c0.1,0,0.2,0,0.3,0.1l0,0C24.1,20.3,23.9,19.7,24.4,19.8L24.4,19.8L24.4,19.8z"/>
<path class="st5" d="M27.3,19.3c-0.4,0.2-0.5,0-0.7-0.3c-0.8,0.1-0.1-0.8-0.6-0.9l0,0c-0.2,0.3-0.4,0.6-0.7,0.8
	c0,0.1,0.1,0.1,0.1,0.2c0.2,0.1,0.4,0.3,0.5,0.4c0.3,0.4,0.6,0.8,0.1,1.2c0,0.3,0.1,0.6,0.3,0.8l0,0c0.1-0.1,0.2-0.2,0.4-0.2
	c0.2-0.2,0.2-0.2,0.6,0.1c0.3-0.2,0.5-0.3,0.3-0.7C27.5,20.2,27.4,19.8,27.3,19.3z"/>
<path class="st6" d="M25,21c-0.2,0.3,0.1,0.5,0.3,0.7c0.3,0.2,0.6,0.5,0.6,0.9c0.5-0.1,0.8-0.3,0.3-0.8c-0.2-0.2-0.3-0.4-0.5-0.6
	C25.4,21.1,25.1,20.8,25,21z"/>
<path class="st60" d="M25.9,19.5c-0.6,0.6-0.6,0.9,0.1,1.2l0,0C26.5,20.3,26.2,19.9,25.9,19.5z"/>
<path class="st8" d="M25.3,18.9L25.3,18.9c-0.7-0.1-0.5,0.7-0.9,0.9l0,0l0,0l0,0c0.7,0.2,0.9-0.2,1-0.7C25.4,19,25.3,19,25.3,18.9z"
	/>
<path class="st38" d="M23.6,21.3c0.2-0.1,0.8,0.4,0.5-0.3C23.8,20.8,23.4,20.6,23.6,21.3z"/>
<path class="st67" d="M6.6,11.5c-0.1-0.3-0.2-0.5-0.3-0.8C6,10.4,5.8,10.2,5.5,9.9c-0.3,0.2,0.4,0.7-0.3,0.7c-0.1,0-0.1,0.1-0.2,0.1
	c0.1,0.2,0.3,0.3,0.3,0.5c-0.1,0.3-0.4,0.2-0.6,0.2c-0.2,0.5,0.4,0.6,0.6,0.9l0,0l0,0c0.1,0.1,0.2,0.2,0.2,0.3c0.3,0,0.5,0,0.8,0
	C6.5,12.2,5.3,11.6,6.6,11.5z"/>
<path class="st70" d="M6.6,11.5c-1.3,0.1-0.2,0.8-0.2,1.2c0.1,0,0.1-0.1,0.2-0.1C7.2,12.2,6.9,11.8,6.6,11.5z"/>
<path class="st53" d="M19.9,16.6c0.4-0.2,0.8-0.2,1.2-0.2c-0.1-0.3,0.1-0.6-0.1-0.9c-0.1,0-0.2,0-0.3-0.1c-0.2,0.1-0.3,0.2-0.5,0.4
	c-0.2,0.4-0.4,0.7-0.9,0.4l0,0l0,0c-0.1,0.1-0.3,0.2-0.4,0.2l0,0l0,0c0,0.2,0,0.3,0,0.5c0.2,0.5,0.5,1,0.7,1.5
	c0.1-0.1,0.2-0.3,0.2-0.4l-0.1-0.1l-0.1-0.1C19.3,17.2,19.4,16.9,19.9,16.6z"/>
<path class="st37" d="M22.4,18c0.1-0.1,0.2-0.2,0.3-0.2l0,0c0-0.5,0-1,0-1.5c0-0.4,0.3-0.3,0.5-0.4c-0.2-0.4-0.7-0.1-1-0.3
	c-0.1,0-0.1,0.1-0.2,0.1l0,0c0.1,0.1,0.1,0.2,0.2,0.3l0,0c0.3,0.9-0.7,0.8-1,1.2l0,0c0.3,0.2,0.9,0.1,0.9,0.6
	C22.4,17.9,22.4,18,22.4,18z"/>
<path class="st44" d="M21.4,16.2c-0.1,0.1-0.2,0.2-0.3,0.2c-0.4,0-0.8,0-1.2,0.2c-0.5,0.3-0.6,0.6-0.1,1.2c0-1.2,0.9-0.7,1.5-0.8
	C21.6,16.8,21.7,16.5,21.4,16.2z"/>
<path class="st26" d="M22.4,18c0-0.1-0.1-0.1-0.1-0.2c-0.4,0.3-0.9,0.5-1.1,1c0.2,0.2,0.3,0.5,0.3,0.8l0,0l0,0
	c0,0.1,0.1,0.1,0.1,0.2C21.9,19.2,22.2,18.6,22.4,18z"/>
<path class="st39" d="M22.4,16.1c-0.4,0.2-0.5,0-0.7-0.3c-0.1,0.1-0.2,0.2-0.2,0.4l0,0c0.2,0.3,0.1,0.6-0.2,0.9
	c0,0.1,0.1,0.1,0.1,0.2l0,0C21.7,16.8,22.6,16.9,22.4,16.1z"/>
<path class="st19" d="M5.7,25.5c-0.5-0.4-1.1-0.2-1.6-0.2c-0.2,0.3-0.2,0.5,0,0.8c0.5-0.3,0.8,0.6,1.3,0.1c0.1-0.5,0.3-0.3,0.5-0.1
	l0,0C6,25.9,5.8,25.7,5.7,25.5z"/>
<path class="st41" d="M3.3,23.9C3.3,23.9,3.3,23.8,3.3,23.9c-0.2-0.3-0.4-0.4-0.5-0.1c-0.2,0.3-0.4,0.6-0.5,1
	c-0.1,0.1-0.2,0.3-0.2,0.4C3,25.3,3.5,24.9,3.3,23.9z"/>
<path class="st62" d="M5.7,25.5L5.7,25.5L5.7,25.5c-0.3-0.4-0.5-0.7,0.2-0.9l0,0l0,0c0.1,0,0.1-0.1,0.2-0.1l0,0
	c-0.1-0.1-0.3-0.1-0.4-0.2l0,0c-0.6,0.3-1.1,0.6-1.7,0.9c0,0.1,0.1,0.1,0.1,0.2C4.6,25.3,5.2,25.1,5.7,25.5z"/>
<path class="st69" d="M5.7,24.3L5.7,24.3L5.7,24.3c0.1-0.1,0.2-0.3,0.2-0.4c0-0.1-0.1-0.1-0.1-0.2C5.5,23.8,5.3,23.9,5,24
	s-0.4,0.6-0.9,0.6C3.9,24.8,3.8,25,4,25.2C4.5,24.9,5.1,24.6,5.7,24.3z"/>
<path class="st13" d="M4.1,24.6c0.4,0,0.5-0.4,0.9-0.6c0-0.2,0-0.3-0.1-0.5l0,0c-0.2,0.2-0.4,0.1-0.6-0.1c-0.2,0.1-0.5,0-0.5,0.3
	l0,0C4,24,4.1,24.3,4.1,24.6z"/>
<path class="st83" d="M16,10c-0.6,0.1-1.2,0.2-1.2,1l0,0l0,0c0,0.3-0.6,0.6,0,0.9h0.1l0,0c0.7-0.1,1.2-1.2,2-0.4
	c0.5-0.1,0.9,0,1.3,0.1C18,11.3,18,11,18.4,10.7l0,0l0,0c-0.2-0.2-0.2-0.5,0-0.8l0,0c0-0.1-0.1-0.1-0.1-0.2l0,0l0,0
	c-0.3,0.1-0.5,0-0.7-0.3c0-0.1,0-0.3-0.1-0.4l0,0c-0.1,0.1-0.2,0.1-0.3,0.2C17,10.1,16.5,10,16,10z"/>
<path class="st84" d="M16.2,8.3c-0.3,0.1-0.3-0.5-0.5-0.3c-0.2,0.2-0.2,0.5-0.1,0.8c0.1,0.2,0.6,0.4,0.2,0.7
	c-0.5,0.4-1.1,1.2-1.8,0.8s-0.7,0.2-1,0.4c0,0.1,0.1,0.1,0.1,0.2c0.2,0,0.4,0.1,0.6,0.1l0,0l0,0c0.1,0.1,0.1,0.1,0.2,0.2
	c0.1,0,0.1-0.1,0.2-0.1c0.2-0.2,0.5-0.2,0.7,0h0.1l0,0c0-0.8,0.6-0.9,1.2-1c0.5-0.1,1,0.1,1.2-0.6C17.1,9.6,17,9.7,17,9.3
	s-0.1-0.7-0.6-0.8C16.3,8.5,16.2,8.4,16.2,8.3z"/>
<path class="st39" d="M16.3,6.7c0,0.1,0,0.2-0.1,0.3c0.3,0.5,0.3,0.9-0.1,1.3c0,0.1,0.1,0.1,0.1,0.2c0.5-0.3,1.3-0.1,1.4-0.9
	c-0.2-0.1-0.4-0.3-0.5-0.4c-0.2-0.1-0.5-0.2-0.3-0.6c0.2-0.4-0.1-0.3-0.3-0.3C16.6,6.5,16.5,6.6,16.3,6.7z"/>
<path class="st85" d="M17.6,9.7c0.3-0.3,0.6-0.6,0.9-0.9c0-0.1,0.1-0.2,0.1-0.3s0-0.2,0-0.3l0,0c-0.1-0.2-0.2-0.3-0.3-0.5l0,0
	c-0.3,0.2-0.6,0.5-0.6,0.9c0.1,0,0.3-0.2,0.4,0.1c0.1,0.2-0.2,0.3-0.3,0.4l0,0l0,0c-0.1,0-0.1,0.1-0.2,0.1l0,0
	C17.5,9.4,17.6,9.5,17.6,9.7z"/>
<path class="st20" d="M17.7,7.6c0.1-0.2,0.4-0.5,0.1-0.7c-0.2-0.2-0.5,0-0.7,0.3C17.3,7.3,17.5,7.4,17.7,7.6z"/>
<path class="st86" d="M18,8.7c-0.1-0.2-0.2-0.1-0.4-0.1c0,0.2,0,0.3,0,0.5l0,0C17.8,9,18.1,8.9,18,8.7z"/>
<path class="st62" d="M16.3,6.7c0.1-0.1,0.3-0.2,0.2-0.4c-0.1-0.1-0.2-0.2-0.2-0.3C16.2,6.2,16.2,6.5,16.3,6.7z"/>
<path class="st3" d="M7.3,19.7c0.2,0,0.2-0.2,0.1-0.3c-0.1-0.1-0.2-0.2-0.2-0.3C7,19.3,7,19.4,7.1,19.5C7.1,19.6,7.2,19.7,7.3,19.7z
	"/>
<path class="st28" d="M15.6,3.7c0.6,0.9,0.8,0,1.1-0.2C16.5,3.2,16.4,3,16,3.2C15.8,3.3,15.7,3.5,15.6,3.7z"/>
<path class="st39" d="M15.3,3.3c0.1,0.1,0.2,0.2,0.2,0.3l0,0c0.1-0.2,0.3-0.3,0.4-0.5c0-0.2-0.1-0.5-0.4-0.2
	C15.6,3.1,15.5,3.2,15.3,3.3z"/>
<path class="st87" d="M20.7,12.4L20.7,12.4L20.7,12.4c-0.1,0-0.2,0-0.3,0l0,0l0,0c-0.1,0.1-0.1,0.3-0.2,0.3
	c-1.1,0.1-1.2,0.7-0.8,1.5c0,0-0.1,0.1-0.2,0.2l0,0c-0.1,0.2-0.2,0.3-0.4,0.5c-0.1,0.1-0.2,0.2-0.3,0.3c0.1,0.1,0.1,0.2,0.2,0.3
	c1.1-0.4,0.6,0.3,0.6,0.7l0,0c0.5,0.3,0.7,0,0.9-0.4c-0.1-1.2,0.8-2.1,1.2-3.1l0,0l0,0c0.1-0.1,0.4,0,0.3-0.3
	c-0.1-0.3-0.5-0.1-0.7-0.3C20.9,12.2,20.8,12.3,20.7,12.4z"/>
<path class="st36" d="M21.7,13.5c0.2,0.1,0.4,0,0.5,0.2S22,14,21.9,14.1c-0.2,0.1-0.3,0.3-0.2,0.5c0.6-0.2,0.4,0.6,0.8,0.6
	c0.2-0.2,0.5-0.3,0.7-0.5c0.1,0,0.1-0.1,0.2-0.1c0.1,0,0.1-0.1,0.2-0.1l0,0l0,0c-0.6-0.2-0.4-0.9-0.8-1.2l0,0
	c-0.2-0.4-0.5-0.5-0.9-0.2C21.7,13.3,21.7,13.4,21.7,13.5z"/>
<path class="st12" d="M20.8,14.8L20.8,14.8L20.8,14.8c0.4,0.1,0.2,0.4,0.2,0.6c0.2,0.3,0.1,0.6,0.1,0.9c0.1-0.1,0.2-0.2,0.3-0.2l0,0
	c0-0.2,0.1-0.3,0.2-0.4c0.1-0.5,0.3-0.2,0.5-0.1l0,0l0,0c0.1,0,0.1-0.1,0.2-0.1l0,0c0-0.1,0-0.2,0.1-0.3c-0.4-0.1-0.1-0.9-0.8-0.6
	c-0.1-0.3,0.1-0.4,0.2-0.5c-0.1-0.2-0.3-0.4-0.2-0.6c0-0.1,0-0.2,0.1-0.3c-0.1-0.1-0.2-0.2-0.2-0.3C21.2,13.5,21.4,14.3,20.8,14.8z"
	/>
<path class="st21" d="M20.2,10.9c-0.1-0.3-0.5-0.2-0.6-0.7c0-0.7-0.9-0.3-1.1-0.7c-0.1,0.1-0.1,0.3-0.2,0.4l0,0
	c0,0.1,0.1,0.1,0.1,0.2l0,0l0,0c0.9,0.6,1.6,1.4,2.3,2.2l0,0c0.1-0.1,0.2-0.1,0.3-0.2c0.1,0,0.1-0.1,0.2-0.1l0,0
	C20.7,11.9,20.4,11.4,20.2,10.9z"/>
<path class="st88" d="M20.2,15.8c0.2-0.1,0.3-0.2,0.5-0.4c0-0.2,0-0.4,0.1-0.6l0,0c0.6-0.5,0.4-1.3,0.7-2c0-0.1-0.1-0.1-0.1-0.2l0,0
	C20.9,13.7,20.1,14.5,20.2,15.8z"/>
<path class="st24" d="M23.4,14.6L23.4,14.6c0.4-0.4,1-0.1,1.3-0.6l0,0l0,0c-0.1-0.1-0.2-0.3-0.4-0.2c-0.6,0.3-1,0.2-1.1-0.5
	c-0.3-0.1-0.4,0.1-0.6,0.2l0,0C23,13.7,22.9,14.4,23.4,14.6z"/>
<path class="st89" d="M24.3,13.7c-0.2-0.2-0.4-0.4-0.6-0.6l0,0c-0.2,0-0.3,0-0.5,0.1C23.3,14,23.7,14,24.3,13.7z"/>
<path class="st90" d="M20.5,6.2c0.5,0.1,0.4,1,1,0.8l0,0l0,0c0-0.1,0-0.2,0-0.3l0,0c-0.1-0.4-0.6-0.9,0.2-1.1c0,0,0,0,0.1,0
	c-0.1-0.1-0.1-0.2-0.2-0.3c-0.3,0.2-0.7-0.4-0.9,0.1l0,0c-0.1,0-0.1,0.1-0.2,0.1C20.5,5.7,20.5,5.9,20.5,6.2z"/>
<path class="st91" d="M21.9,5.5L21.9,5.5L21.9,5.5c0.1,0,0.2,0.1,0.3,0.1c0.1-0.1,0.2-0.2,0.3-0.2l0,0l0,0c0.1-0.2,0.9-0.2,0.3-0.7
	l0,0c-0.5,0-0.8,0.3-1.2,0.5C21.7,5.3,21.8,5.4,21.9,5.5z"/>
<path class="st25" d="M23.8,4.2c-0.5,0.1-0.3,0.3-0.1,0.6l0,0C24.3,4.7,23.9,4.5,23.8,4.2z"/>
<path class="st92" d="M19,22.6c-0.2,0-0.3,0-0.5,0.1c0.1,0.2,0.2,0.3,0.4,0.5c0.1,0,0.1,0,0.2,0.1c-0.2,0.5-0.2,1-0.2,1.5
	c0.1,0.1,0.1,0.2,0.2,0.3c0.2-0.1,0.4-0.1,0.7-0.2c0-0.1,0.1-0.3,0-0.3c-0.8-0.4-0.3-1-0.2-1.5c0-0.1,0-0.3-0.1-0.4
	C19.4,22.7,19.2,22.7,19,22.6z"/>
<path class="st92" d="M19.8,21.3c-0.2,0.3-0.3,0.8-0.8,0.3c-0.8,0.2-0.6-0.4-0.8-0.8c-0.1,0.1-0.3,0.2-0.5,0.1
	c-0.1,0-0.1,0.1-0.2,0.1l0,0c0.1,0.1,0.1,0.2,0.2,0.3c0.5,0.3,0.7,0.8,1.2,1c0.3-0.1,0.5-0.2,0.8-0.3l0,0l0,0c0.1,0,0.1-0.1,0.2-0.1
	C19.9,21.7,20.5,21.3,19.8,21.3z"/>
<path class="st23" d="M19.9,21c0,0.1,0,0.2-0.1,0.3c0.7,0,0.1,0.4,0.2,0.6c0.1,0,0.2,0,0.3,0.1c0.3-0.2,0.3-0.6,0.5-0.8
	c-0.1-0.1-0.2-0.2-0.2-0.4l0,0C20.3,20.9,20.1,21,19.9,21z"/>
<path class="st23" d="M20.8,21.2L20.8,21.2L20.8,21.2z"/>
<path class="st23" d="M19,22.4c0,0.1,0,0.2-0.1,0.3c0.2,0,0.4,0.1,0.6,0.1c0.4-0.1,1-0.1,0.3-0.7l0,0C19.6,22.2,19.3,22.3,19,22.4z"
	/>
<path class="st38" d="M20.7,23c0.1-0.1,0.3-0.2,0.1-0.3c-0.4-0.1-0.7,0.1-0.7,0.5l0,0C20.3,23.3,20.5,23.1,20.7,23z"/>
<path class="st2" d="M20.3,22c0.7,0,0.6-0.4,0.5-0.8l0,0l0,0l0,0C20.6,21.4,20.6,21.8,20.3,22z"/>
<path class="st80" d="M27.8,15.9c0.1,0.1,0.1,0.3,0.1,0.5c0.3,0.7-0.6,0.5-0.6,0.9c0.2,0.5,0.3,1-0.5,1.1c0,0.2,0,0.4-0.1,0.6
	c0.2,0.3,0.3,0.5,0.7,0.3c0.1,0.5,0.1,0.9,0.2,1.4c0.4-0.1,0.7,0.2,1,0.3c0.1,0,0.1-0.1,0.2-0.1l0,0l0,0c-0.3-0.5,0.7-0.5,0.3-1
	c-0.6-0.8,0.7-0.6,0.7-1.1c0.2,0.1,0.2,0.3,0.1,0.4c0.1,0.5,0.5,0.5,0.8,0.5c0-0.3,0-0.5,0-0.8c-0.2,0-0.4-0.1-0.6-0.1
	c-0.1-0.2-0.1-0.4-0.2-0.6c-0.2-0.3-0.5-0.2-0.7-0.3c-0.2,0-0.6,0.1-0.4-0.3c0.1-0.2,0.3-0.4,0.6-0.3c0.3,0.1,0,0.4,0,0.6
	c0.3-0.2,0.6-0.5,0.6-0.9c-0.5,0-0.4-0.4-0.5-0.7c-0.3,0.5-0.5,1-0.9,0.1c-0.2-0.1-0.3-0.3-0.3-0.5l0,0l0,0c-0.1,0-0.1,0.1-0.2,0.1
	l0,0C28,15.8,27.9,15.9,27.8,15.9z M28.5,18.8c-0.4,0.3-0.7,0.4-1.1,0.5l0,0l0,0l0,0c-0.2-0.3-0.4-0.6,0.2-0.6
	C27.9,18.7,28.1,18.8,28.5,18.8z"/>
<path class="st1" d="M30,18.8c0.3-0.3,0.7-0.6,1-0.9l-0.1-0.1c-0.4,0.1-0.8,0.3-1.1,0.4C29.9,18.3,30,18.5,30,18.8z"/>
<path class="st62" d="M29.3,17.2c-0.3-0.1-0.5,0.1-0.6,0.3c-0.1,0.4,0.2,0.4,0.4,0.3c0.1,0,0.1-0.1,0.2-0.1l0,0
	C29.2,17.5,29.5,17.3,29.3,17.2z"/>
<path class="st5" d="M29.9,16.8c0-0.3,0.2-0.5,0-0.8c-0.2,0-0.3,0-0.5,0.1l0,0C29.5,16.4,29.5,16.8,29.9,16.8z"/>
<path class="st22" d="M30,17.7c0.2-0.1,0.4-0.2,0.7-0.4c-0.5-0.4-0.7-0.1-0.8,0.2C30,17.6,30,17.6,30,17.7z"/>
<path class="st10" d="M17.3,24.3L17.3,24.3L17.3,24.3z"/>
<path class="st10" d="M16.5,25.8c0-0.1-0.1-0.1-0.1-0.2c0.1-0.3,0-0.7,0.5-0.8c-0.1-0.2-0.3-0.3-0.1-0.5s0.4-0.1,0.6,0
	c0.1-0.1,0.2-0.2,0.3-0.2l0,0c-0.2-0.1-0.3-0.3-0.5-0.4l0,0c-0.1-0.2-0.2-0.3-0.3-0.5c-0.1,0.2-0.1,0.6-0.2,0.6
	c-0.3,0-0.6-0.3-0.8-0.5l0,0c-0.1,0-0.1,0.1-0.2,0.1c0.1,0.2,0.3,0.4,0.2,0.6c-0.2,0.5,0.4,0.2,0.5,0.5c-0.8,0.2-0.8,0.2-0.8-0.6
	c0-0.1-0.1-0.1-0.1-0.2c-0.2,0.1-0.3,0.2-0.5,0.4c0,0.7,0.6,1.1,1.1,1.6C16.1,25.8,16.3,25.8,16.5,25.8z"/>
<path class="st12" d="M17,26.5L17,26.5c-0.1-0.1-0.2-0.3-0.1-0.5c-0.1-0.1-0.3-0.2-0.4-0.2c-0.2,0-0.4,0-0.6-0.1
	c-0.1,0.2-0.3,0.3-0.4,0.5l0,0c0.1,0.1,0.2,0.2,0.2,0.4c0.3-0.2,0.6-0.2,0.9,0.2C16.8,26.6,16.9,26.6,17,26.5z"/>
<path class="st10" d="M14.7,23.8c0-0.3-0.1-0.6-0.3-0.8c-0.2,0.3-0.3,0.5-0.5,0.8c0.1,0.2,0.2,0.3,0.4,0.5
	C14.6,24.3,14.6,24,14.7,23.8L14.7,23.8L14.7,23.8z"/>
<path class="st19" d="M15.4,23.8c-0.3-0.2-0.5-0.2-0.8,0l0,0l0,0c0.1,0.1,0.1,0.2,0.2,0.3C15.1,24,15.2,23.9,15.4,23.8z"/>
<path class="st31" d="M2.5,11.7c-0.5-0.4-0.3-1.3-1.1-1.6c-0.1,0-0.1,0.1-0.2,0.1c0.1,0.6,0.2,1.1-0.2,1.6l0,0
	c0.2,0.3,0.8-0.9,0.9,0.2l0,0C2.2,12,2.5,12.1,2.5,11.7z"/>
<path class="st92" d="M21.4,25.1L21.4,25.1c0.2,0.3,0.3,0.5,0.7,0.3c-0.1-0.2,0-0.5-0.4-0.5l0,0C21.6,24.9,21.5,25,21.4,25.1z"/>
<path class="st92" d="M21.2,23.4c-0.1,0.2-0.6,0.2-0.4,0.6C21.1,23.9,21.2,23.7,21.2,23.4z"/>
<path class="st92" d="M21.2,23.4L21.2,23.4L21.2,23.4z"/>
<path class="st93" d="M28.7,20.9c-0.1,0-0.1,0.1-0.2,0.1c0.1,0.4-0.8,0.7-0.1,1c0.2-0.1,0.5,0.1,0.5-0.3
	C28.9,21.4,28.9,21.2,28.7,20.9z"/>
<path class="st80" d="M26.6,21.3c0.2,0.5,0.3,1,1,0.9c-0.2-0.3-0.3-0.6-0.4-0.8C26.9,21.1,26.9,21.1,26.6,21.3z"/>
<path class="st13" d="M24.2,15.1c0.1,0.5-0.5,0.6-0.6,0.9c0.2,0.5,0,1.1,0.5,1.5c0.1,0,0.1-0.1,0.2-0.1l0,0l0,0
	c0.5-0.3,1.1-0.2,1.7-0.1c0.2,0,0.3,0,0.5-0.1c0.1,0,0.1-0.1,0.2-0.1c0-0.2,0-0.3-0.1-0.5c-0.2,0-0.3-0.1-0.4-0.2
	c0-0.1-0.1-0.1-0.1-0.2c-0.4,0.1-1.1,0.6-0.8-0.5c-0.1-0.2-0.5-0.2-0.5-0.6c0.2-0.2,0.7,0.1,0.8-0.4c0-0.1,0-0.2,0.1-0.3
	c-0.4-0.3-0.1-0.9-0.5-1.2l0,0c-0.1,0.2-0.2,0.5-0.3,0.7l0,0C25.1,14.6,24.6,14.8,24.2,15.1z"/>
<path class="st94" d="M26,16.2c-0.1-0.2-0.2-0.3-0.3-0.5l0,0c-0.1,0.1-0.3,0.1-0.5,0.1C24.9,16.8,25.6,16.2,26,16.2z"/>
<path class="st8" d="M26,16.2c0,0.1,0.1,0.1,0.1,0.2c0.2-0.1,0.4-0.1,0.6-0.2c0-0.2,0-0.3-0.1-0.5l0,0c-0.3-0.1-0.5,0.4-0.8,0
	c-0.1,0-0.2,0-0.3,0l0,0C25.7,15.8,25.9,16,26,16.2z"/>
<path class="st6" d="M25.5,14.7c0.2,0.1,0.3,0.6,0.5,0.3s-0.2-0.4-0.4-0.5l0,0C25.6,14.5,25.5,14.6,25.5,14.7z"/>
<path class="st28" d="M26.7,15.7c0-0.2-0.1-0.4-0.3-0.5c-0.1,0.2-0.3,0.4-0.4,0.5C26.2,16.1,26.4,15.6,26.7,15.7z"/>
<path class="st34" d="M26.7,15.7L26.7,15.7c0.2,0,0.3,0,0.5-0.1c-0.2-0.2-0.3-0.5-0.5-0.7l0,0l0,0c-0.1,0.1-0.2,0.2-0.3,0.2l0,0
	C26.6,15.3,26.7,15.4,26.7,15.7z"/>
<path class="st12" d="M20.8,28L20.8,28c-0.3,0-0.4-0.2-0.5-0.4c-0.2,0.4-1.2,0-0.9,0.9c0.1,0.6,0.7,1.2-0.2,1.6l0,0
	c0.2,0.1,0.4,0.3,0.5,0.4l0,0c0.1-0.7,0.5-1,1.2-0.8l0,0c-0.3-0.4,0.2-0.6,0.2-0.9l0,0C21,28.5,20.9,28.3,20.8,28z"/>
<path class="st47" d="M19.3,27L19.3,27L19.3,27L19.3,27c-0.2,0.2-0.4,0.5-0.7,0.5c-0.3,0.1-0.9,0.2-0.3,0.7c0.2-0.1,0.4-0.1,0.6,0.1
	C18.8,27.7,19.6,27.5,19.3,27z"/>
<path class="st34" d="M14.7,23.8c0.3-0.2,0.5-0.2,0.8,0c0,0.1,0.1,0.1,0.1,0.2c0.1,0,0.2,0,0.3,0.1c0.1-0.3-0.1-0.4-0.2-0.6
	c-0.2-0.3-0.4-0.6-0.6-0.9l0,0c-0.2,0.2-0.5,0.3-0.7,0.5C14.6,23.2,14.6,23.5,14.7,23.8z"/>
<path class="st95" d="M15.2,21.9L15.2,21.9c0.2-0.1,0.3-0.2,0.5-0.3c0.1-0.7-0.5-0.4-0.8-0.5c-0.1,0.1-0.2,0.3-0.2,0.4
	c-0.2,0.1-0.4,0.2-0.4,0.5c0.2,0.2,0.4,0.3,0.7,0.3C15,22.1,14.8,21.9,15.2,21.9z"/>
<path class="st96" d="M15.7,23.4c0.1,0,0.1-0.1,0.2-0.1l0,0c0.1-0.4-0.4-0.6-0.4-1c-0.1-0.1-0.2-0.2-0.2-0.4l0,0l0,0
	c-0.4,0-0.2,0.2-0.2,0.4c0,0.1,0.1,0.1,0.1,0.2l0,0C15.3,22.8,15.5,23.1,15.7,23.4z"/>
<path class="st22" d="M18.6,27.4c-0.2-0.3-0.4-0.6-0.6-0.9c-0.4,0.4-0.7,0-1-0.1l0,0l0,0c-0.1,0.1-0.2,0.2-0.3,0.2
	c0,0.5-0.5,0.8-0.4,1.3l0,0c0.5,0,1-0.2,1.3,0.4c0.4,0.1,0.6-0.2,0.8-0.3l0,0l0,0C17.8,27.6,18.3,27.5,18.6,27.4z M17.3,27.2
	c0.2-0.1,0.4-0.2,0.6,0c0.1,0.2-0.1,0.4-0.2,0.5c-0.2,0.1-0.3,0-0.4-0.1C17.1,27.4,17.1,27.2,17.3,27.2z"/>
<path class="st80" d="M28.7,20.9c0.2,0.2,0.3,0.5,0.3,0.8c0.4-0.1,1,0.2,0.9-0.6l0,0c-0.2-0.2-0.7,0.3-0.7-0.3l0,0
	C29,20.8,28.8,20.8,28.7,20.9L28.7,20.9L28.7,20.9z"/>
<path class="st21" d="M29.8,19.2c-0.3,0.8-0.2,1,0.6,0.9l0,0c0-0.2,0.1-0.3,0.2-0.4C30.2,19.6,29.8,19.7,29.8,19.2z"/>
<path class="st23" d="M14.3,4L14.3,4c0.4,0.3,0.1,1.1,0.8,1.2c0.1-0.2,0-0.3-0.1-0.5l0,0C15,4.4,15,3.9,14.3,4z"/>
<path class="st8" d="M16.9,5.1c0.3-0.3-0.1-0.5-0.1-0.7c-0.1,0.2-0.3,0.3-0.4,0.5c0.1,0.1,0.1,0.3,0.2,0.4
	C16.7,5.3,16.8,5.2,16.9,5.1z"/>
<path class="st36" d="M23.6,19.6c0.2-0.6-0.1-0.8-0.6-0.7c-1.3,0.2,0.2,0.8-0.2,1.1c-0.1,0.2,0,0.3,0.1,0.5c0.2-0.1,0.4-0.1,0.6-0.2
	C23.5,20.1,23.5,19.9,23.6,19.6z"/>
<path class="st93" d="M26.7,15.7c0,0.2,0,0.3,0.1,0.5c0.2,0,0.3,0.1,0.4,0.2l0,0l0,0c0,0.1,0.1,0.1,0.1,0.2c0.2-0.2,0.4-0.4,0.6-0.6
	c0.1,0,0.1-0.1,0.2-0.1l0,0c-0.2-0.3-0.5-0.4-0.9-0.2C27,15.6,26.8,15.7,26.7,15.7z"/>
<path class="st95" d="M28.5,16.2c0.1-0.1,0.2-0.3,0.2-0.4c-0.2-0.2-0.3-0.3-0.6-0.1l0,0C28.2,15.9,28.3,16.1,28.5,16.2z"/>
<path class="st15" d="M3.1,8.8C2.9,8.7,2.7,8.5,2.6,8.4C2.5,8.6,2.3,8.7,2.1,8.8C2.4,9.4,2.7,8.8,3.1,8.8z"/>
<path class="st57" d="M2.4,14.1c-0.1,0.1-0.2,0.2-0.3,0.2c0.3,0.4,0.5,0.9,1.1,0.5C3.2,14.3,2.7,14.3,2.4,14.1z"/>
<path class="st42" d="M6.9,23.9c-0.1,0.6,0.1,1,0.5,1.4l0,0l0,0c0.1-0.1,0.2-0.3,0.2-0.4l0,0c-0.4-0.3-0.1-0.9-0.5-1.1l0,0
	C7,23.8,7,23.9,6.9,23.9z"/>
<path class="st12" d="M7.3,23.7c0.5,0.1,0.6-0.1,0.4-0.5l0,0C7.5,23.3,7.4,23.5,7.3,23.7z"/>
<path class="st73" d="M5.5,23.3c-0.6-0.5,0.5-0.7,0.2-1.2c-0.3,0.1-0.5-0.5-0.9-0.2c-0.1,0.3,0.3,0.8-0.3,1
	c-0.1,0.3,0.1,0.2,0.2,0.3C5,23.3,5.3,23.3,5.5,23.3z"/>
<path class="st73" d="M5.5,23.3L5.5,23.3L5.5,23.3z"/>
<path class="st68" d="M5,24c0.3-0.1,0.5-0.2,0.8-0.3l0,0c0.2-0.1,0.5,0.2,0.6-0.2c-0.2-0.7-0.4-0.8-0.9-0.2l0,0l0,0l0,0l0,0
	c-0.2,0-0.5,0-0.7,0c0,0.1,0.1,0.1,0.1,0.2l0,0C4.9,23.7,4.9,23.8,5,24z"/>
<path class="st20" d="M4.9,21.2c-0.2,0-0.5-0.2-0.8,0l0,0c0.2,0.2,0,0.7,0.5,0.7l0,0C4.7,21.7,4.8,21.5,4.9,21.2z"/>
<path class="st20" d="M4.9,22c-0.1,0-0.1,0.1-0.2,0.1l0,0c-0.2,0.3-0.2,0.6-0.2,0.9C5.2,22.9,4.8,22.3,4.9,22z"/>
<path class="st80" d="M15.6,27.7c0.4-0.3,0.8-0.7,0.2-1.2C15.2,26.8,15.1,27.2,15.6,27.7z"/>
<path class="st15" d="M2.5,11.7c0.3,0,0.5,0,0.8,0c-0.2-0.2-0.4-0.4-0.6-0.6c-0.1-0.2-0.1-0.4-0.2-0.6C1.9,10.6,2.3,10,2,9.8
	c-0.1,0.2-0.5,0-0.5,0.3C2.2,10.4,2,11.3,2.5,11.7z"/>
<path class="st97" d="M18.6,8.5c0.1,0.2,0.2,0.4,0.5,0.4l0,0c-0.1-0.2-0.2-0.4,0-0.6c0.2,0.6,1.1,0.1,1.3,0.7l0,0
	c0.1,0,0.1-0.1,0.2-0.1c0.2-0.2,0.6-0.3,0.6-0.6c-0.3,0.2-0.6,0.2-1.1-0.1C20.4,8.1,20.7,8,20.9,8c-0.1-0.1-0.2-0.2-0.2-0.3
	c-0.4,0.2-0.7,0.3-1-0.1c-0.1,0.2-0.2,0.5-0.5,0.3C19,8,18.8,8.1,18.7,8.3l0,0C18.6,8.3,18.6,8.4,18.6,8.5z"/>
<path class="st92" d="M19.7,7.5c0.3-0.1,0.5-0.2,0.8-0.3c0.4-0.3-0.5-0.7,0.1-1c0-0.3,0-0.5,0-0.8c-0.4,0.4-0.7,1-1.3,1.1
	c-0.1,0.3,0.3,0.5,0,0.8l0,0c-0.2,0.2-0.3,0.3-0.1,0.6C19.5,8,19.5,7.7,19.7,7.5z"/>
<path class="st53" d="M5.4,26.2c0.1,0.1,0.2,0.2,0.2,0.3l0,0c0.1-0.1,0.2-0.3,0.2-0.4C5.7,25.9,5.5,25.7,5.4,26.2z"/>
<path class="st95" d="M18.8,19.4L18.8,19.4L18.8,19.4L18.8,19.4c-0.2,0.1-0.4,0.1-0.6,0.2c0.1,0.2,0.2,0.3,0.4,0.5
	c0.3,0.3,0.2,0.7,0,1c0.3,0.1,0.6-0.3,0.8-0.1c0.2,0.1,0.3,0,0.5-0.1s0.4-0.1,0.6-0.2c-0.4-0.2-0.9-0.3-0.6-0.9l0,0
	c-0.3-0.1-0.3-0.5-0.5-0.7C19.3,19.3,19.1,19.4,18.8,19.4z"/>
<path class="st76" d="M18.3,18.7c-0.3,0.2-0.6,0.4-1,0.3l0,0c-0.1,0-0.1,0.1-0.2,0.1l0,0c0.2,0.3,0.4,0.2,0.7,0.1
	c0.4-0.2,0.8-0.2,1,0.3l0,0l0,0c0.2-0.1,0.4-0.1,0.6-0.2c0.1-0.1,0.2-0.3,0.2-0.4l0,0c-0.1-0.1-0.2-0.2-0.2-0.4
	C19,18.3,18.7,18.5,18.3,18.7z"/>
<path class="st9" d="M28.4,3.6c-0.1,0.1-0.3,0.2-0.5,0.1l0,0c-0.4,0.5-0.5,0.8,0.3,0.8C28,4.2,28.5,3.9,28.4,3.6z"/>
<path class="st98" d="M18.9,16.9c-0.3,0.4-0.3,0.4-0.9,0.2c0,0.4,1,0.8,0.2,1.2c-0.4,0.2-1,0.2-1-0.6c-0.4,0.2-0.4,0.5-0.6,0.7
	c0.3,0.1,0.5,0.3,0.6,0.6l0,0c0.4,0.1,0.8-0.1,1-0.3c0.4-0.2,0.7-0.4,1.2-0.2c0.1,0,0.1-0.1,0.2-0.1l0,0
	C19.4,17.9,19.1,17.4,18.9,16.9z"/>
<path class="st34" d="M6.9,23.9L6.9,23.9c-0.1,0-0.1,0.1-0.2,0.1c-0.3,0.4,0,0.7,0.1,1c0,0,0,0.1-0.1,0.1H6.6
	c-0.1,0.2,0,0.3,0.1,0.5c0.2-0.1,0.4-0.1,0.6-0.2C7.1,24.9,6.8,24.5,6.9,23.9z"/>
<path class="st34" d="M6.2,25.4c-0.2,0-0.3,0-0.5,0.1l0,0l0,0l0,0c0.1,0.2,0.3,0.4,0.2,0.6c0.5,0.1,0.7-0.1,0.9-0.6
	C6.6,25.6,6.4,25.6,6.2,25.4z"/>
<path class="st99" d="M13.8,17.3c-0.3-0.7-0.8-0.4-1.3-0.4l0,0c0.2,0.2,0.3,0.5,0.5,0.7c0.2-0.2,0.5-0.3,0.8,0
	c0.1,0,0.1-0.1,0.2-0.1l0,0C13.9,17.4,13.9,17.3,13.8,17.3z"/>
<path class="st38" d="M14,10.3c0.7,0.4,1.2-0.4,1.8-0.8c0.4-0.3-0.1-0.5-0.2-0.7c-0.1-0.3-0.1-0.6,0.1-0.8c0.2-0.2,0.2,0.4,0.5,0.3
	c0.5-0.4,0.5-0.9,0.1-1.3c-0.2,0.1-0.4,0.3-0.6,0.2l0,0l0,0l0,0c-0.4,0-0.7,0.2-1-0.1c-0.1,0-0.1,0.1-0.2,0.1l0,0
	c0.1,0.3,0.7,0.2,0.7,0.7C15,8,14.7,8.1,14.5,8.3C14.4,8.6,14.4,9,14,9.1l0,0c0.3,0.2,0.7,0.3,0.4,0.9c-0.4-0.2-0.8-0.5-1.2-0.6
	c-0.4,0-0.4,0.7-0.8,0.8l0,0c0.2,0.3,0.4,0.5,0.7,0.6l0,0C13.3,10.4,13.3,9.9,14,10.3z M14.9,8.5C15.3,9,15.1,9.4,15,9.9
	C14.6,9.4,14.6,9,14.9,8.5z"/>
<path class="st89" d="M14.7,6.8L14.7,6.8c0.3,0.1,0.7,0,1,0.3l0,0l0,0c0-1-0.4-1.1-1.1-0.5L14.7,6.8L14.7,6.8z"/>
<path class="st25" d="M14.6,7.1c0-0.1,0-0.2,0.1-0.3l0,0l0,0l-0.1-0.1l-0.1-0.1c-0.2-0.1-0.4-0.2-0.6,0C13.7,6.8,14,7,14,7.1
	c0.1,0,0.2,0,0.3,0.1l0,0C14.5,7.2,14.5,7.2,14.6,7.1z"/>
<path class="st16" d="M11.4,13.6c0.2,0.1,0.4,0.3,0.6,0.4c0.1-0.1,0.1-0.3,0.2-0.4c-0.4-0.9-0.8-1.8-1.5-2.5l0,0
	c-0.4,0.1-0.6,0.4-0.7,0.7c0,0.3,0.1,0.6,0.1,0.9l0,0c0,0.1,0.1,0.1,0.1,0.2l0,0c0.4,0.1,0.9-0.4,1.3-0.1c-0.1,0.5-0.5,0.4-0.8,0.5
	c-0.3,0.2-0.1,0.3,0.1,0.4l0,0C11,13.7,11.1,13.3,11.4,13.6z"/>
<path class="st100" d="M12.9,14L12.9,14L12.9,14c0.3,0.1,0.3-0.1,0.4-0.2c0.2-0.1,0.4-0.1,0.6-0.2c-0.2-0.5,0.3-0.5,0.6-0.6
	c-0.3-0.5,0.4-0.6,0.4-1h-0.1c-0.3,0.2-0.6,0.2-0.8-0.2l0,0c-0.6,0.4-1.5,0.6-1.4,1.7C12.7,13.7,12.8,13.9,12.9,14z"/>
<path class="st101" d="M14.8,12c-0.6-0.3,0-0.6,0-0.9l0,0h-0.1c-0.2,0.2-0.5,0.4-0.7,0c-0.1,0-0.1,0.1-0.2,0.1l0,0
	c0,0.2,0.1,0.4,0.1,0.6l0,0C14.2,12.2,14.5,12.2,14.8,12z"/>
<path class="st102" d="M12,14c0.1,0.1,0.1,0.2,0.2,0.3c0.3-0.1,0.5,0.1,0.7,0.3c0-0.1,0.1-0.1,0.1-0.1c0-0.2-0.1-0.3-0.1-0.5l0,0
	c-0.1-0.2-0.2-0.3-0.3-0.5c-0.2,0-0.3,0-0.5,0.1C12.1,13.7,12,13.9,12,14z"/>
<path class="st103" d="M12,11.9c0.3,0.1,0.5-0.2,0.7-0.6c-0.3,0.1-0.4,0.2-0.6,0.2C11.5,11.4,11.8,11.8,12,11.9z"/>
<path class="st103" d="M13.1,10.9c0,0.7,0.3,0.2,0.6,0.1l0,0C13.5,11,13.3,10.9,13.1,10.9z"/>
<path class="st22" d="M9.9,11.8c-0.3,0.1-0.6-0.1-0.8,0.3l0,0c0.2,0.3,0.5,0.6,0.9,0.6l0,0C10,12.4,10,12.1,9.9,11.8z"/>
<path class="st22" d="M6.6,23.4L6.6,23.4c0.1-0.1,0.2-0.2,0.3-0.2c-0.4-0.3-0.7-0.7-0.8-1.2C6,22,6,22.1,5.9,22.1l0,0l0,0
	c-0.1,0-0.1,0.1-0.2,0.1c0.3,0.5-0.8,0.7-0.2,1.2l0,0l0,0l0,0c0.4-0.7,0.7-0.5,0.9,0.2C6.5,23.5,6.5,23.4,6.6,23.4z"/>
<path class="st104" d="M6.1,21.9c0.1-0.1,0.2-0.2,0.1-0.3c0-0.1-0.2-0.1-0.3,0c-0.2,0.1-0.1,0.3,0,0.4l0,0C6,22,6,22,6.1,21.9z"/>
<path class="st105" d="M6.8,24c0.1,0,0.1-0.1,0.2-0.1l0,0c-0.1-0.2-0.2-0.3-0.3-0.5l0,0c-0.1,0-0.1,0.1-0.2,0.1
	c-0.1,0.4-0.4,0-0.6,0.2l0,0c0,0.1,0.1,0.1,0.1,0.2C6.1,24.5,6.5,23.9,6.8,24z"/>
<path class="st9" d="M5.1,10L5.1,10c0.1,0.2,0.1,0.4,0.2,0.6c0.7,0,0-0.5,0.3-0.7c0-0.1-0.1-0.1-0.1-0.2l0,0l0,0
	C5.4,9.8,5.2,9.9,5.1,10z"/>
<path class="st4" d="M4.4,9.2c0,0.3,0.1,0.6,0.1,0.9l0,0l0,0c0.5-0.2,0.4-0.6,0.3-1l0,0l0,0C4.7,9.2,4.5,9.2,4.4,9.2z"/>
<path class="st22" d="M3.8,9.1c-0.1,0.2,0,0.3,0.1,0.5c0.3,0.1,0.3-0.3,0.5-0.4C4.2,9,4,8.9,3.8,9.1z"/>
<path class="st79" d="M25.1,6.6c0.1,0.3,0.4,0.5,0.3,0.8c0,0.1,0,0.2-0.1,0.3l0,0c0.6,0.1,0.3-0.5,0.6-0.6c-0.1-0.4-0.7-0.6-0.2-1.1
	l0,0l-0.1-0.1l-0.1-0.1C25.3,6,24.9,6.1,25.1,6.6z"/>
<path class="st71" d="M22.4,6.7c0.1,0.4,0.1,0.8-0.3,1c0.1,0.2,0.2,0.3,0.3,0.5l0,0C22.5,8.1,22.6,8,22.8,8c0.4-0.4,0.2-1,0.3-1.4
	c0-0.2,0-0.3-0.1-0.5l0,0c-0.4,0-0.3-0.3-0.4-0.5c0-0.1-0.1-0.1-0.1-0.2l0,0c-0.1,0.1-0.2,0.2-0.3,0.2C22.2,6,22.3,6.3,22.4,6.7z"/>
<path class="st41" d="M20.9,7.9L20.9,7.9c0.3,0,0.5,0,0.8,0c-0.2-0.3-0.1-0.6-0.1-0.9l0,0c-0.7,0.2-0.5-0.7-1-0.8
	c-0.5,0.3,0.4,0.7-0.1,1c0.1,0.1,0.2,0.2,0.2,0.3C20.8,7.7,20.9,7.8,20.9,7.9L20.9,7.9z"/>
<path class="st24" d="M21.7,7.9c0.1-0.1,0.2-0.1,0.3-0.2c0.4-0.2,0.4-0.6,0.3-1c-0.3,0-0.5-0.2-0.8,0l0,0l0,0c0,0.1,0,0.2,0,0.3l0,0
	C21.7,7.3,21.5,7.6,21.7,7.9z"/>
<path class="st36" d="M20.9,7.9L20.9,7.9C20.6,8,20.4,8,20.1,8.1c0.4,0.3,0.7,0.3,1.1,0.1C21.1,8.1,21,8,20.9,7.9L20.9,7.9z"/>
<path class="st93" d="M21,9.4c0.5-0.6-0.2-0.4-0.4-0.5c-0.1,0-0.1,0.1-0.2,0.1C20.6,9.2,20.8,9.3,21,9.4z"/>
<path class="st106" d="M23,6.5c0.2,0.3,0.4,0.7,0.2,1.1l0,0c0.5,0,0.8-0.3,1-0.7c0-0.3,0-0.5,0-0.8c-0.4,0.3-0.7,0.3-0.7-0.3
	c-0.2,0.1-0.4,0.1-0.6,0.2C23,6.2,23,6.4,23,6.5z"/>
<path class="st105" d="M23,6.5c-0.1,0.5,0.1,1-0.3,1.4l0,0c0,0.1,0.1,0.1,0.1,0.2l0,0c0.1-0.2,0.3-0.3,0.4-0.5l0,0
	C23.4,7.2,23.3,6.8,23,6.5z"/>
<path class="st105" d="M25.1,8.4c-0.1-0.5-0.4-0.2-0.6-0.1c0.1,0.2,0.1,0.4,0.2,0.6C24.8,8.8,24.9,8.6,25.1,8.4z"/>
<path class="st67" d="M25.7,6L25.7,6c-0.5,0.5,0.1,0.7,0.2,1.1C26.8,6.5,25.9,6.3,25.7,6z"/>
<path class="st41" d="M18.5,9.6L18.5,9.6c0.3,0.4,1.1,0.1,1.1,0.7c0,0.5,0.4,0.4,0.6,0.7c0.1,0,0.1-0.1,0.2-0.1
	c-0.2-0.3-0.2-0.5,0-0.8c-0.1-0.1-0.2-0.2-0.2-0.3l0,0c-0.2-0.1-0.6,0-0.7-0.3c-0.1-0.2-0.2-0.3-0.4-0.5c-0.3,0-0.4-0.2-0.5-0.4
	c0,0.1-0.1,0.2-0.1,0.3C18.5,9.1,18.5,9.3,18.5,9.6z"/>
<path class="st107" d="M19.4,9.4c0.3-0.3,0.8,0.1,1-0.4c-0.3-0.5-1.1,0-1.3-0.7c-0.2,0.2-0.1,0.4,0,0.6l0,0
	C19.2,9.1,19.3,9.3,19.4,9.4z"/>
<path class="st30" d="M11.1,14.6C11,14.6,11,14.6,11.1,14.6C11,14.6,11,14.6,11.1,14.6L11.1,14.6z"/>
<path class="st30" d="M10.5,14.9L10.5,14.9L10.5,14.9c0.2-0.1,0.3-0.2,0.5-0.4c-0.2-0.2-0.3-0.5-0.3-0.8l0,0
	c-0.1,0.1-0.2,0.2-0.3,0.2l0,0c-0.1,0.3-0.1,0.6-0.2,0.9l0,0C10.3,14.9,10.4,14.9,10.5,14.9z"/>
<path class="st60" d="M10.5,14.9L10.5,14.9c-0.1,0-0.2,0-0.3-0.1c-0.6,0.2-0.1,0.7-0.3,1l0,0c0.4,0.1,0.7-0.2,1-0.4l0,0
	C10.8,15.2,10.7,15,10.5,14.9z"/>
<path class="st7" d="M2.6,11.1c0.1-0.1,0.2-0.2,0.3-0.2l0,0c0.2-0.3-0.2-0.4-0.3-0.5s0.2-0.5-0.2-0.3c-0.2,0.1-0.1,0.3,0,0.5
	C2.5,10.7,2.6,10.9,2.6,11.1z"/>
<path class="st9" d="M4.3,11c0.3,0,0.4,0.2,0.5,0.4c0.2-0.1,0.5,0,0.6-0.2c0-0.1-0.2-0.3-0.3-0.5C4.8,10.7,4.4,10.5,4.3,11z"/>
<path class="st108" d="M13.8,17.3c0.1,0,0.1-0.1,0.2-0.1c0-0.1,0-0.2,0.1-0.3c-0.1-0.2-0.2-0.4-0.5-0.4c-0.9,0-0.6-0.3-0.2-0.7
	c-0.3-0.1-0.6,0-0.9-0.2c0,0.2,0.1,0.4,0.1,0.5c-0.2,0.2-0.3,0-0.4-0.1c-0.2-0.2-0.4-0.3-0.6-0.2c-0.4,0-0.7,0.2-1,0.4l0,0l0.1,0.1
	l0,0c0.5-0.2,1.1-0.5,1.3,0.4c0.1,0.2,0.3,0.2,0.5,0.2l0,0C13,16.8,13.6,16.6,13.8,17.3z"/>
<path class="st109" d="M11.8,15c0.1-0.2,0.2-0.5,0.3-0.7C12,14.2,12,14.1,11.9,14c-0.2-0.1-0.4-0.3-0.6-0.4c-0.1,0.3-0.2,0.7-0.3,1
	l0,0c0.1,0,0.1,0.1,0.1,0.1c0.1,0.1,0,0.3,0,0.5c0.1,0,0.2,0,0.3,0.1C11.6,15.2,11.7,15.1,11.8,15z"/>
<path class="st110" d="M12.2,16c0.1,0.1,0.2,0.4,0.4,0.1c0.1-0.1,0-0.3-0.1-0.5c-0.2-0.2-0.4-0.4-0.6-0.6c-0.1,0.1-0.2,0.1-0.4,0.2
	c0,0.2,0,0.3,0.1,0.5C11.8,15.7,12,15.8,12.2,16z"/>
<path class="st54" d="M11.2,14.7l-0.1-0.1l0,0c-0.2,0.1-0.3,0.2-0.5,0.4l0,0c0.2,0.1,0.3,0.3,0.3,0.5l0,0c0.1-0.1,0.2-0.2,0.4-0.2
	l0,0C11.2,15,11.3,14.8,11.2,14.7z"/>
<path class="st111" d="M17,21.2c-0.4,0-0.7,0.2-0.7,0.6c-0.1,0.4,0.3,0.3,0.5,0.5c0.2,0.1,0.3,0.3,0.5,0.5c0.3,0,0.7-0.8,0.8,0.2
	c0,0.1,0.2-0.2,0.4-0.3c0.2,0,0.3,0,0.5-0.1c0-0.1,0-0.2,0.1-0.3c-0.5-0.2-0.7-0.7-1.2-1C17.5,21.7,17.2,21.6,17,21.2z"/>
<path class="st79" d="M18.1,23c-0.1-1-0.5-0.2-0.8-0.2C17.2,22.9,17.1,23,17,23c0.2,0.2,0.6,0.3,0.2,0.6c0.2,0.1,0.3,0.3,0.5,0.4
	l0,0l0,0c0.6,0.1,0.9-0.5,1.2-0.8c-0.1-0.2-0.2-0.3-0.4-0.5C18.3,22.8,18.1,23.1,18.1,23z"/>
<path class="st112" d="M17.1,21.1L17.1,21.1L17,21.2c0.2,0.4,0.5,0.5,0.8,0.2c-0.1-0.1-0.1-0.2-0.2-0.3l0,0
	C17.5,21,17.3,21,17.1,21.1z"/>
<path class="st69" d="M15.8,21.7L15.8,21.7c0-0.1-0.1-0.1-0.1-0.2l0,0c-0.2,0.1-0.3,0.2-0.5,0.3l0,0c0.1,0.1,0.2,0.2,0.2,0.4
	C15.7,22.2,16.1,22.2,15.8,21.7z"/>
<path class="st113" d="M16.9,23c-0.1,0-0.1,0.1-0.2,0.1l0,0c0.1,0.2,0.2,0.3,0.3,0.5l0,0C17.5,23.3,17.2,23.2,16.9,23z"/>
<path class="st114" d="M18.7,16.3c-0.6-0.1,0.2-0.5-0.2-0.7c-0.2,0.1-0.4,0.2-0.6,0.3l0,0c-0.2,0.8-0.8,0.9-1.5,0.8
	c-0.4,0.2-0.4,0.9-1,0.7c-0.2,0-0.3,0-0.5,0l0,0c0.1,0.1,0.2,0.2,0.2,0.4c0.4,0.5,1,0.3,1.4,0.6c0.2-0.2,0.2-0.5,0.6-0.7
	c0,0.8,0.6,0.8,1,0.6c0.8-0.4-0.2-0.8-0.2-1.2c0.6,0.2,0.6,0.2,0.9-0.2c0-0.2,0-0.3,0-0.5l0,0C18.8,16.4,18.8,16.3,18.7,16.3z"/>
<path class="st99" d="M15,17.5L15,17.5c-0.2-0.2-0.3-0.5-0.5-0.7c-0.2-0.1-0.3,0-0.5,0.1c0,0.1,0,0.2-0.1,0.3
	c0.4,0.2,0.4,1.2,1.2,0.7C15.1,17.7,15.1,17.6,15,17.5z"/>
<path class="st66" d="M18.3,20.8L18.3,20.8c0.1,0.4,0,1,0.8,0.8c0-0.3,0.2-0.4,0.4-0.5c-0.3-0.2-0.5,0.2-0.8,0.1
	c0.1-0.3,0.3-0.7,0-1c-0.2,0.1-0.3,0.2-0.5,0.3C18.1,20.6,18.2,20.7,18.3,20.8z"/>
<path class="st24" d="M18,20.5c-0.5-0.1-0.3,0.2-0.2,0.4c0.2,0.1,0.3,0,0.5-0.1l0,0C18.2,20.7,18.1,20.6,18,20.5z"/>
<path class="st95" d="M24.3,6.2c0-0.6-0.3-0.6-0.7-0.3C23.7,6.4,23.9,6.5,24.3,6.2z"/>
<path class="st95" d="M25.1,6.6c-0.4,0.5-0.1,0.7,0.3,0.8C25.6,7.1,25.3,6.9,25.1,6.6z"/>
<path class="st36" d="M23,6c0-0.2,0.1-0.4,0.1-0.6c-0.2-0.1-0.3,0-0.5,0.1C22.7,5.7,22.6,6.1,23,6z"/>
<path class="st64" d="M24.4,5.4c0,0,0.1,0,0.2,0c0.2-0.2,0.1-0.4,0-0.6l0,0c-0.1,0-0.1,0.1-0.2,0.1C24.5,5,24.2,5.2,24.4,5.4z"/>
<path class="st104" d="M18.7,25.3c-0.2-0.1-0.5,0-0.7-0.3c-0.1,0-0.2,0-0.3-0.1c-0.1,0.1-0.2,0.2-0.3,0.2c0.1,0.3,0.2,0.5,0.3,0.8
	c0.2,0.1,0.3,0.3,0.5,0.4c0.3,0.1,0.6,0,0.9-0.1l0,0C19.3,25.9,18.6,25.8,18.7,25.3z"/>
<path class="st115" d="M18,25c0.2,0.3,0.5,0.2,0.7,0.3c0.1-0.1,0.2-0.2,0.3-0.2l0,0c-0.1-0.1-0.1-0.2-0.2-0.3
	C18.5,24.6,18.3,24.9,18,25z"/>
<path class="st89" d="M16.9,26c-0.1,0.2,0,0.3,0.1,0.5l0,0c0.3,0.1,0.7,0.5,1,0.1c0.1,0,0.1-0.1,0.2-0.1l0,0
	c-0.2-0.1-0.3-0.3-0.5-0.4C17.4,26,17.2,26,16.9,26z"/>
<path class="st39" d="M23.3,15.9L23.3,15.9c-0.2,0.1-0.5,0-0.5,0.4c0,0.5,0,1,0,1.5l0,0c0.1,0.1,0.2,0.2,0.2,0.4
	c0.2,0.1,0.3,0,0.5-0.1l0,0l0,0c0-0.2,0.1-0.3,0.2-0.4c0.1-0.1,0.2-0.2,0.3-0.2c-0.5-0.4-0.2-1-0.5-1.5C23.5,16,23.4,15.9,23.3,15.9
	z"/>
<path class="st28" d="M25.9,18c0,0.1,0.1,0.1,0.1,0.2l0,0c0.3-0.1,0.5,0,0.7,0.3c0.8-0.1,0.7-0.6,0.5-1.1c-0.1-0.1-0.2-0.2-0.2-0.3
	l0,0c-0.2,0-0.3,0-0.5,0.1c-0.1,0-0.1,0.1-0.2,0.1C26.7,17.6,26.2,17.7,25.9,18z"/>
<path class="st89" d="M24,18.6c-0.4,0.3,0.2,0.6,0.3,1c0,0.1,0.1,0.1,0.1,0.2l0,0c0.5-0.1,0.2-1,0.9-0.9
	C24.9,18.3,24.4,18.3,24,18.6z"/>
<path class="st36" d="M25.9,18c0.2-0.2,0.7-0.3,0.5-0.8c-0.2,0-0.3,0-0.5,0.1C25.9,17.5,25.3,17.7,25.9,18z"/>
<path class="st92" d="M23,18.1c-0.1,0.1-0.3,0.3-0.3,0.3c0.1,0.2,0.3,0.2,0.5,0.2c0.4-0.1,0.4-0.3,0.3-0.6l0,0
	C23.3,18.2,23.2,18.2,23,18.1z"/>
<path class="st67" d="M23.7,17.7c0.1,0.2,0.3,0.4,0.5,0.2c0.1-0.1,0-0.4,0-0.6l0,0c-0.1,0-0.1,0.1-0.2,0.1
	C24,17.5,23.8,17.6,23.7,17.7z"/>
<path class="st8" d="M26.1,18.1c0.4,0.1-0.2,1,0.6,0.9c0.1-0.2,0.2-0.4,0.1-0.6C26.6,18.2,26.3,18.1,26.1,18.1z"/>
<path class="st44" d="M18.7,15.5c0.6,0.3,0.3,0.5,0,0.8l0.1,0.1l0,0c0.1-0.1,0.3-0.2,0.4-0.2l0,0C19.2,15.8,19.7,15,18.7,15.5
	L18.7,15.5C18.6,15.4,18.7,15.5,18.7,15.5z"/>
<path class="st44" d="M20.8,14.8L20.8,14.8c-0.1,0.2-0.2,0.4-0.1,0.6c0.1,0,0.2,0,0.3,0.1C21,15.2,21.2,15,20.8,14.8z"/>
<path class="st116" d="M24.1,14.9L24.1,14.9L24.1,14.9z"/>
<path class="st116" d="M23.3,15.9L23.3,15.9c0.1,0,0.2,0,0.3,0.1c0.2-0.3,0.7-0.4,0.6-0.9c0-0.1-0.1-0.1-0.1-0.2
	c-0.4,0.7-0.7,0.4-1-0.1c-0.2,0.2-0.5,0.3-0.7,0.5c0,0.1,0,0.2-0.1,0.3l0,0C22.6,15.8,23.1,15.6,23.3,15.9z"/>
<path class="st16" d="M22.4,16.1L22.4,16.1c-0.1-0.1-0.1-0.2-0.2-0.3l0,0c-0.2-0.2-0.4-0.4-0.5,0.1C21.8,16,22,16.3,22.4,16.1z"/>
<path class="st68" d="M5.9,23.9c-0.1,0.1-0.2,0.3-0.2,0.4l0,0c0.1,0.1,0.3,0.1,0.4,0.2l0,0l0,0c0.1,0.3,0.4,0.4,0.6,0.6h0.1L6.9,25
	c-0.1-0.3-0.4-0.6-0.1-1C6.5,23.9,6.1,24.5,5.9,23.9z"/>
<path class="st64" d="M5.7,25.5L5.7,25.5c0.2,0,0.3,0,0.5-0.1c0-0.3-0.1-0.6-0.3-0.8l0,0C5.2,24.8,5.4,25.1,5.7,25.5z"/>
<path class="st31" d="M6.7,25.1c-0.3-0.1-0.5-0.3-0.6-0.6l0,0c-0.1,0-0.1,0.1-0.2,0.1l0,0c0.2,0.2,0.3,0.5,0.3,0.8
	c0.2,0.1,0.4,0.2,0.6,0.1l0,0l0,0C6.7,25.4,6.6,25.2,6.7,25.1z"/>
<path class="st117" d="M17,11.9c0.2,0.1,0.4,0.2,0.7,0.3c0.1,0.1,0.2,0.2,0.3,0.3c0.8-0.1,0.8,0.4,0.8,0.9l0,0l0,0
	c0.1,0.3,0.2,0.6,0.3,0.9c0,0.1,0,0.1,0,0.2c0.1-0.1,0.2-0.2,0.2-0.2c-0.4-0.8-0.3-1.4,0.8-1.5c0.1,0,0.1-0.2,0.2-0.3l0,0
	c-0.1-0.1-0.2-0.2-0.2-0.3c-0.9,0.8-1.2,0.7-1.9-0.2C17.8,11.9,17.3,11.8,17,11.9C16.9,11.7,17,11.8,17,11.9z"/>
<path class="st118" d="M20.2,12c-0.8,0-1.2-0.7-1.8-1.1l0,0c-0.3,0.2-0.4,0.5-0.2,0.9C19,12.7,19.2,12.8,20.2,12z"/>
<path class="st119" d="M20.2,12c0.1,0.1,0.2,0.2,0.2,0.3l0,0c0.1,0,0.2,0,0.3,0l0,0c-0.7-0.8-1.4-1.6-2.3-2.2l0,0
	c-0.2,0.3-0.1,0.5,0,0.8l0,0C19,11.3,19.3,12,20.2,12z"/>
<polygon class="st120" points="14.9,13.2 14.9,13.2 14.9,13.2 14.9,13.2 "/>
<path class="st120" d="M14.5,13L14.5,13l0.1,0.2l0,0l0,0c0.1,0,0.2,0,0.3,0.1c-0.1-0.9,0.5-1.2,1.2-1.3c0.3,0,0.6-0.1,0.9-0.1
	c0-0.1-0.1-0.1-0.1-0.2c-0.8-0.8-1.3,0.3-2,0.4l0,0C14.9,12.4,14.2,12.5,14.5,13z"/>
<path class="st119" d="M18.5,9.6L18.5,9.6c0-0.2,0-0.5,0-0.7c-0.3,0.3-0.6,0.6-0.9,0.9c0.2,0.3,0.4,0.4,0.7,0.3l0,0
	C18.4,9.8,18.4,9.7,18.5,9.6z"/>
<path class="st121" d="M14.7,11.1c-0.2-0.2-0.5-0.2-0.7,0C14.2,11.5,14.5,11.3,14.7,11.1z"/>
<path class="st122" d="M18.8,14.2c-0.1-0.1-0.2-0.2-0.2-0.3c-0.2,0.2-0.4,0.4-0.6,0.6c-0.2,0.2-0.4,0.3-0.7,0.5
	c-0.1,0-0.1,0.1-0.2,0.1c0.1,0.1,0.3,0.1,0.4,0.2c0.2-0.1,0.5-0.1,0.7,0c0.1,0,0.1,0,0.2-0.1c0.1-0.1,0.2-0.2,0.3-0.3
	C18.8,14.6,18.8,14.4,18.8,14.2z"/>
<path class="st123" d="M18.3,15.2c-0.2,0.1-0.3,0.2-0.5,0.3c0,0.1,0.1,0.2,0.1,0.2l0,0l0.1,0.1l0.1,0.1c0.2-0.1,0.4-0.2,0.6-0.3
	c0-0.1,0.1-0.1,0.2-0.1h-0.1l0,0c-0.1-0.1-0.1-0.2-0.2-0.3C18.4,15.2,18.3,15.2,18.3,15.2z"/>
<path class="st124" d="M18.8,14.2c0,0.2,0,0.5,0,0.7c0.1-0.2,0.2-0.3,0.4-0.5l0,0c0-0.1,0-0.1,0-0.2C19,14.2,18.9,14.2,18.8,14.2z"
	/>
<path class="st92" d="M23.4,14.6L23.4,14.6c-0.1,0-0.1,0.1-0.2,0.1c0.3,0.1,0.6-0.1,0.9,0.2l0,0l0,0l0,0l0,0c0,0.1,0.1,0.1,0.1,0.2
	c0.4-0.3,0.9-0.5,0.5-1.1l0,0l0,0C24.5,14.5,23.8,14.2,23.4,14.6z"/>
<path class="st125" d="M24.1,14.9L24.1,14.9L24.1,14.9L24.1,14.9c-0.3-0.2-0.6,0-0.9-0.2c-0.1,0-0.1,0.1-0.2,0.1
	C23.4,15.3,23.7,15.6,24.1,14.9z"/>
<path class="st4" d="M22.2,13.7c-0.1-0.2-0.4-0.1-0.5-0.2c-0.1,0.3,0.1,0.4,0.2,0.6C22,14,22.3,14,22.2,13.7z"/>
<path class="st36" d="M22.4,6.7c-0.1-0.4-0.2-0.7-0.2-1.1c-0.1,0-0.2,0-0.3-0.1l0,0c0,0,0,0-0.1,0c-0.7,0.2-0.2,0.7-0.2,1.1l0,0
	C21.9,6.5,22.1,6.7,22.4,6.7z"/>
<path class="st71" d="M17.6,24L17.6,24c-0.1,0.1-0.2,0.2-0.3,0.2l0,0c0.2,0.2,0.6,0.2,0.5,0.7l0,0c0.1,0,0.2,0,0.3,0.1
	c0.3-0.1,0.5-0.4,0.8-0.3c0-0.5-0.1-1,0.2-1.5c-0.1,0-0.1,0-0.2-0.1C18.5,23.6,18.3,24.1,17.6,24z"/>
<path class="st39" d="M19,21.6c0.5,0.5,0.6,0,0.8-0.3c0-0.1,0-0.2,0.1-0.3c-0.1,0.1-0.3,0.2-0.5,0.1C19.2,21.2,19,21.3,19,21.6z"/>
<path class="st13" d="M27.3,19.3c0.4,0,0.8-0.2,1.1-0.5c-0.3,0-0.6-0.1-0.9-0.1C26.9,18.7,27.2,19,27.3,19.3z"/>
<path class="st13" d="M27.3,19.3L27.3,19.3L27.3,19.3z"/>
<path class="st10" d="M27.3,16.6c-0.1,0.1-0.3,0.2-0.2,0.4l0,0l0,0c0.1,0.1,0.2,0.2,0.2,0.3c0.1-0.4,0.9-0.3,0.6-0.9
	C27.7,16.5,27.5,16.7,27.3,16.6z"/>
<path class="st8" d="M27.3,16.6L27.3,16.6c0.3,0.1,0.4-0.1,0.6-0.2c0.1-0.2,0-0.3-0.1-0.5C27.7,16.1,27.5,16.3,27.3,16.6L27.3,16.6z
	"/>
<path class="st22" d="M16.4,25.6c0,0.1,0.1,0.1,0.1,0.2c0.1,0.1,0.3,0.2,0.4,0.2c0.3,0,0.5,0,0.8,0c-0.1-0.3-0.2-0.5-0.3-0.8
	C17.2,25.6,16.7,25.5,16.4,25.6z"/>
<path class="st17" d="M17,25c0-0.1-0.1-0.1-0.1-0.2c-0.5,0.1-0.4,0.5-0.5,0.8c0.3-0.1,0.8,0,1-0.4c0.1-0.1,0.2-0.2,0.3-0.2l0,0
	C17.5,25,17.3,25,17,25z"/>
<path class="st80" d="M15.5,23.9c0,0.8,0,0.8,0.8,0.6c0-0.3-0.6,0-0.5-0.5C15.7,24,15.6,24,15.5,23.9z"/>
<path class="st39" d="M17,25c0.1-0.2,0-0.5,0.3-0.7l0,0l0,0c-0.2-0.1-0.4-0.2-0.6,0c-0.2,0.2,0.1,0.4,0.1,0.5
	C16.9,24.9,17,24.9,17,25z"/>
<path class="st12" d="M27.1,16.4L27.1,16.4c-0.1-0.1-0.2-0.2-0.4-0.2c-0.2,0.1-0.4,0.1-0.6,0.2c0.1,0.1,0.2,0.3,0.4,0.2
	C26.7,16.5,26.9,16.4,27.1,16.4z"/>
<path class="st8" d="M27,17L27,17c0-0.2,0.1-0.3,0.2-0.4l0,0l0,0c0-0.1-0.1-0.1-0.1-0.2l0,0c-0.2,0.1-0.4,0.1-0.6,0.2
	c0,0.2,0,0.3,0.1,0.5C26.7,17,26.9,17,27,17z"/>
<path class="st2" d="M17.7,27.7c0.1-0.1,0.3-0.3,0.2-0.5s-0.4-0.1-0.6,0c-0.2,0.1-0.2,0.3-0.1,0.4C17.4,27.7,17.5,27.9,17.7,27.7z"
	/>
<path class="st105" d="M20.5,7.2c-0.3,0.1-0.5,0.2-0.8,0.3c0.3,0.4,0.7,0.2,1,0.1C20.6,7.5,20.6,7.3,20.5,7.2z"/>
<path class="st47" d="M14.9,8.5C14.6,9,14.6,9.4,15,9.9C15.1,9.3,15.4,9,14.9,8.5z"/>
<path class="st28" d="M14.7,6.8L14.7,6.8c0,0.1,0,0.2-0.1,0.3c0.3,0.2,0.7,0.1,1,0.1l0,0C15.4,6.9,15,6.9,14.7,6.8z"/>
<path class="st54" d="M10.7,13.8L10.7,13.8L10.7,13.8c0,0.3,0.1,0.6,0.3,0.8c0.1-0.3,0.2-0.7,0.3-1C11.1,13.3,11,13.7,10.7,13.8z"/>
<path class="st126" d="M13.5,14.5c0.1,0,0.2,0,0.3,0.1l0,0l0,0c0.1-0.2,0.2-0.5,0.3-0.7l0,0c0-0.1-0.1-0.1-0.1-0.2
	c-0.2,0.1-0.4,0.1-0.6,0.2C13.4,14,13.4,14.2,13.5,14.5z"/>
<path class="st127" d="M14.1,13.8c0.1,0,0.1-0.1,0.2-0.1c0.1-0.2,0.2-0.3,0.4-0.5l0,0v-0.1L14.6,13c-0.2,0.2-0.7,0.1-0.6,0.6
	C14,13.7,14,13.8,14.1,13.8z"/>
<path class="st58" d="M13.5,14.5c0-0.2-0.1-0.4-0.1-0.7c-0.1,0.1-0.2,0.4-0.4,0.2l0,0c0,0.2,0.1,0.3,0.1,0.5
	C13.1,14.5,13.3,14.5,13.5,14.5z"/>
<path class="st110" d="M14.5,16.8c0.3-0.4,0.6,0,0.9-0.1c0.2-0.1,0.4-0.3,0.5-0.4l0,0c-0.2-0.2-0.6,0.1-0.7-0.3l0,0
	c-0.3,0.1-0.4-0.2-0.4-0.4c-1.3,0.4-0.2-0.9-0.7-1c-0.1,0-0.2,0-0.3-0.1l0,0c-0.1,0-0.2,0-0.3-0.1c-0.2,0-0.3,0-0.5,0.1
	c-0.1,0-0.1,0.1-0.1,0.1c-0.1,0.9,0.7,0.5,1,0.7c-0.1,0.2-0.3,0.3-0.5,0.4c-0.4,0.3-0.7,0.7,0.2,0.7c0.3,0,0.4,0.2,0.5,0.4
	C14.2,16.8,14.4,16.7,14.5,16.8z"/>
<path class="st128" d="M13.9,15.4c-0.3-0.3-1.1,0.2-1-0.7c-0.2-0.3-0.4-0.4-0.7-0.3c-0.1,0.2-0.2,0.5-0.3,0.7
	c0.2,0.2,0.4,0.4,0.6,0.6c0.3,0.2,0.6,0.1,0.9,0.2C13.6,15.7,13.8,15.6,13.9,15.4z"/>
<path class="st129" d="M16.9,15.9c-0.2,0.1-0.3,0.3-0.5,0.4c0,0.1,0,0.1-0.1,0.2c0,0.1,0.1,0.1,0.1,0.2c0.7,0.2,1.3,0.1,1.5-0.8l0,0
	l-0.1-0.1l-0.1-0.1C17.6,16.1,17.3,15.9,16.9,15.9z"/>
<path class="st130" d="M15.3,17.2L15.3,17.2L15.3,17.2L15.3,17.2L15.3,17.2c0-0.2,0.1-0.3,0.2-0.4c0-0.1-0.1-0.1-0.1-0.1
	c-0.3,0.1-0.6-0.3-0.9,0.1c0.2,0.2,0.3,0.4,0.5,0.7l0,0c0.2,0,0.3,0,0.5,0C15.4,17.4,15.4,17.3,15.3,17.2z"/>
<path class="st131" d="M16.4,16.5L16.4,16.5L16.4,16.5c-0.4,0.3-0.7,0.5-1.1,0.7c0,0.1,0.1,0.1,0.1,0.2c0.6,0.2,0.6-0.6,1-0.7
	C16.5,16.6,16.5,16.6,16.4,16.5z"/>
<path class="st131" d="M15.3,17.2L15.3,17.2L15.3,17.2z"/>
<path class="st132" d="M18.7,16.3c0.3-0.3,0.6-0.5,0-0.8c-0.1,0-0.1,0.1-0.2,0.1C18.9,15.8,18.1,16.2,18.7,16.3z"/>
<path class="st133" d="M17.4,12.4c0.1,0.5,0.1,0.5-0.8,0.4c-0.2,0.1-0.5,0-0.5,0.4c0.1,0.1,0.2,0.3,0.4,0.4c0.3,0.5,0.6-0.4,0.8,0
	c0.1-0.1,0.3-0.2,0.4-0.3c0.1-0.3,0.4-0.5,0.2-0.9c-0.1-0.1-0.2-0.2-0.3-0.3C17.6,12.2,17.5,12.3,17.4,12.4z"/>
<path class="st134" d="M17.8,13.3c0.1,0.1,0.3,0.1,0.4,0.2c0,0,0.1-0.1,0.2-0.1c0.1,0,0.3,0,0.4,0l0,0c0-0.5,0-1.1-0.8-0.9
	C18.2,12.8,17.9,13.1,17.8,13.3z"/>
<path class="st135" d="M15.9,12.5L15.9,12.5l0.1,0.1c0.2-0.2,0.3-0.3,0.5,0c0.2-0.2,0.5-0.2,0.8-0.2c0.1-0.1,0.2-0.1,0.3-0.2
	c-0.2-0.1-0.4-0.2-0.7-0.3c-0.3,0-0.6,0.1-0.9,0.1C16.1,12.2,16,12.3,15.9,12.5z"/>
<path class="st136" d="M18.4,13.4c0.1,0.1,0.1,0.3,0.2,0.4c0.1,0.1,0.2,0.2,0.2,0.3c0.1,0,0.2,0.1,0.3,0.1c-0.1-0.3-0.2-0.6-0.3-0.9
	l0,0C18.7,13.4,18.5,13.4,18.4,13.4z"/>
<path class="st137" d="M14.9,13.2c0.1,0,0.3,0,0.4-0.1c-0.2-0.5,0.5-0.4,0.6-0.7c0.1-0.2,0.1-0.4,0.2-0.5
	C15.4,12,14.8,12.3,14.9,13.2L14.9,13.2L14.9,13.2z"/>
<path class="st138" d="M14.2,13.7c0.1,0.1,0.2,0.2,0.2,0.3c0.2-0.3,0.1-0.6,0.4-0.8l0,0c-0.1,0-0.2,0-0.3-0.1l0,0
	C14.5,13.3,14.4,13.5,14.2,13.7z"/>
<path class="st139" d="M17.6,14L17.6,14c0.2-0.2,0.4-0.3,0.6-0.5c-0.1-0.1-0.3-0.1-0.4-0.2c-0.1,0.1-0.3,0.2-0.4,0.3
	c-0.4,0.3-0.8,0.6-1.2,0.9c-0.5,0.5,0.3,0.4,0.4,0.7c0.1,0,0.2,0.1,0.3,0.1c0.1-0.1,0.2-0.2,0.3-0.2s0.1-0.1,0.2-0.1
	C16.9,14.4,17.2,14.2,17.6,14z"/>
<path class="st140" d="M16.8,15.3c0,0.2,0.1,0.4,0.1,0.6c0.3,0,0.7,0.2,0.9-0.1l0,0c0-0.1-0.1-0.2-0.1-0.2c-0.1-0.1-0.1-0.2-0.2-0.3
	c-0.1-0.1-0.3-0.1-0.4-0.2C17,15.1,16.9,15.2,16.8,15.3z"/>
<path class="st141" d="M17.6,14L17.6,14L17.6,14c-0.4,0.2-0.7,0.4-0.3,0.9c0.2-0.2,0.4-0.3,0.7-0.5C17.9,14.2,17.8,14.1,17.6,14z"/>
<path class="st142" d="M18.4,13.4c-0.1,0-0.1,0-0.2,0.1c-0.2,0.2-0.4,0.3-0.6,0.5l0,0c0.2,0.1,0.4,0.2,0.4,0.4
	c0.2-0.2,0.4-0.4,0.6-0.6C18.5,13.7,18.4,13.6,18.4,13.4z"/>
<path class="st124" d="M17.8,15.6c0.2-0.1,0.3-0.2,0.5-0.3c-0.2-0.1-0.5-0.1-0.7,0C17.6,15.3,17.7,15.4,17.8,15.6z"/>
<path class="st10" d="M17.3,24.3C17,24.5,17.1,24.8,17,25c0.3,0,0.5,0,0.8,0C17.9,24.5,17.5,24.5,17.3,24.3L17.3,24.3L17.3,24.3z"/>
<path class="st143" d="M14.5,14.5c0-0.1,0.1-0.2,0.1-0.3s-0.1-0.1-0.1-0.2l0,0c-0.1-0.1-0.2-0.2-0.2-0.3c-0.1,0-0.1,0.1-0.2,0.1l0,0
	c-0.1,0.2-0.2,0.5-0.3,0.7l0,0c0.1,0,0.2,0,0.3,0.1C14.2,14.6,14.4,14.5,14.5,14.5z"/>
<path class="st144" d="M15.3,15.3L15.3,15.3c-0.1-0.2-0.2-0.4-0.4-0.6c-0.1-0.1-0.2-0.3-0.4-0.2c-0.1,0-0.3,0.1-0.4,0.1
	c0.5,0.2-0.6,1.4,0.7,1l0,0C15,15.5,15.1,15.4,15.3,15.3z"/>
<path class="st145" d="M16.3,16.1c0.1-0.1,0.3-0.2,0.2-0.4c-0.3,0.1-0.5,0.1-0.8,0c-0.2,0.1-0.3,0.2-0.5,0.3c0.1,0.4,0.5,0,0.7,0.3
	l0,0C16.1,16.2,16.2,16.2,16.3,16.1z"/>
<path class="st146" d="M15.8,15.7c-0.2-0.1-0.3-0.2-0.5-0.3l0,0c-0.1,0.1-0.3,0.2-0.4,0.3l0,0c0.1,0.2,0.1,0.4,0.4,0.4l0,0
	C15.4,15.9,15.6,15.8,15.8,15.7z"/>
<path class="st147" d="M15.6,16.8c0.3-0.1,0.4-0.5,0.8-0.2h0.1v-0.1c0-0.1,0-0.1,0.1-0.2c0-0.1-0.1-0.1-0.1-0.2
	c-0.1,0.1-0.2,0.1-0.4,0.2l0,0c-0.2,0.1-0.4,0.3-0.5,0.4C15.5,16.7,15.5,16.8,15.6,16.8z"/>
<path class="st148" d="M16.6,15.7c0.1,0.2-0.1,0.3-0.2,0.4c0,0.1,0.1,0.1,0.1,0.2c0.2-0.1,0.3-0.3,0.5-0.4c0-0.2-0.1-0.4-0.1-0.6
	c-0.1,0-0.2-0.1-0.3-0.1C16.5,15.3,16.8,15.5,16.6,15.7z"/>
<path class="st149" d="M15.6,16.8c-0.1,0.1-0.2,0.2-0.2,0.4l0,0l0,0l0,0c0.3-0.2,0.7-0.4,1-0.6C16,16.3,15.8,16.8,15.6,16.8z"/>
<path class="st150" d="M16,14c-0.1,0.1-0.2,0.2-0.3,0.3s-0.2,0.1-0.4,0.2c-0.1,0.1-0.2,0.2-0.3,0.2c0.1,0.2,0.2,0.4,0.4,0.6l0,0
	c0.2,0.1,0.3,0.2,0.5,0.3c0.3,0.1,0.5,0.1,0.8,0c0.2-0.2,0-0.4,0-0.6c0-0.3-0.9-0.2-0.4-0.7c0.3-0.3,0.8-0.6,1.2-0.9
	c-0.3-0.4-0.6,0.5-0.8,0C16.3,13.7,16.2,13.9,16,14z"/>
<path class="st151" d="M16,13.3c-0.1,0-0.1,0.1-0.2,0.1c-0.1,0.3,0.1,0.4,0.2,0.6c0.2-0.2,0.3-0.3,0.5-0.5c-0.1-0.1-0.2-0.3-0.4-0.4
	C16.1,13.2,16,13.3,16,13.3z"/>
<path class="st152" d="M16.6,12.8c0.9,0.1,0.9,0.1,0.8-0.4c-0.3,0-0.5,0.1-0.8,0.2C16.5,12.7,16.5,12.7,16.6,12.8z"/>
<path class="st153" d="M16,13.3c0.1,0,0.1-0.1,0.2-0.1c-0.1-0.4,0.3-0.3,0.5-0.4c0-0.1,0-0.1,0-0.2c-0.2-0.3-0.4-0.1-0.5,0
	C15.8,12.8,15.8,13,16,13.3z"/>
<path class="st154" d="M15.8,13.4c0.1,0,0.1-0.1,0.2-0.1c-0.2-0.2-0.2-0.5,0.1-0.6v-0.1H16c-0.1,0.3-0.7,0.1-0.6,0.7
	C15.5,13.3,15.6,13.3,15.8,13.4z"/>
<path class="st155" d="M14.6,14.2c0.1-0.1,0.3-0.1,0.4-0.2c0.4-0.4,0.5,0,0.7,0.3c0.1-0.1,0.2-0.2,0.3-0.3c-0.2-0.2-0.3-0.3-0.2-0.6
	c-0.1-0.1-0.3-0.2-0.4-0.2c-0.1,0-0.3,0-0.4,0.1l0,0l0,0l0,0C14.7,13.5,14.7,13.8,14.6,14.2L14.6,14.2
	C14.5,14.1,14.5,14.2,14.6,14.2z"/>
<path class="st156" d="M15.3,14.5c-0.1-0.2-0.2-0.3-0.3-0.5c-0.1,0.1-0.3,0.1-0.4,0.2c0,0.1-0.1,0.2-0.1,0.3c0.2,0,0.3,0.1,0.4,0.2
	C15,14.6,15.1,14.6,15.3,14.5z"/>
<path class="st157" d="M15.3,14.5c0.1-0.1,0.2-0.1,0.4-0.2c-0.2-0.2-0.3-0.6-0.7-0.3C15.1,14.2,15.2,14.3,15.3,14.5z"/>
</svg>
