<?xml version="1.0" encoding="utf-8"?>
<!-- Generator: Adobe Illustrator 22.1.0, SVG Export Plug-In . SVG Version: 6.00 Build 0)  -->
<svg version="1.1" id="Livello_1" xmlns="http://www.w3.org/2000/svg" xmlns:xlink="http://www.w3.org/1999/xlink" x="0px" y="0px"
	 viewBox="0 0 192.2 153.4" style="enable-background:new 0 0 192.2 153.4;" xml:space="preserve">
<style type="text/css">
	.st0{fill:none;}
	.st1{fill:#544E47;}
	.st2{fill:#554E47;}
	.st3{fill:#E49B88;}
	.st4{fill:#564F48;}
	.st5{fill:#E4A291;}
	.st6{fill:#E3A090;}
	.st7{fill:#E6A594;}
	.st8{fill:#645953;}
	.st9{fill:#E0927E;}
	.st10{fill:#E1917C;}
	.st11{fill:#E0927F;}
	.st12{fill:#D3715E;}
	.st13{fill:#E29582;}
	.st14{fill:#E6A08F;}
	.st15{fill:#DF9280;}
	.st16{fill:#5A564F;}
	.st17{fill:#211D1A;}
	.st18{fill:#E29783;}
	.st19{fill:#E8AC9D;}
	.st20{fill:#E59D8A;}
	.st21{fill:#E8AB9A;}
	.st22{fill:#EAB5A7;}
	.st23{fill:#DDA494;}
	.st24{fill:#D7806C;}
	.st25{fill:#5D5049;}
	.st26{fill:#D98472;}
	.st27{fill:#67544C;}
	.st28{fill:#79746E;}
	.st29{fill:#D88A78;}
	.st30{fill:#6A645E;}
	.st31{fill:#6C564E;}
	.st32{fill:#69645E;}
	.st33{fill:#D06B54;}
	.st34{fill:#E4A392;}
	.st35{fill:#E7A999;}
	.st36{fill:#E8B1A2;}
	.st37{fill:#E3A493;}
	.st38{fill:#62554D;}
	.st39{fill:#D17965;}
	.st40{fill:#655D57;}
	.st41{fill:#E8AC9A;}
	.st42{fill:#E8AE9E;}
	.st43{fill:#E9AF9F;}
	.st44{fill:#D67863;}
	.st45{fill:#E9B4A5;}
	.st46{fill:#E9B3A4;}
	.st47{fill:#D5735F;}
	.st48{fill:#DC8674;}
	.st49{fill:#D77966;}
	.st50{fill:#D16B57;}
	.st51{fill:#D26F57;}
	.st52{fill:#736159;}
	.st53{fill:#DB8775;}
	.st54{fill:#E49987;}
	.st55{fill:#E9AE9F;}
	.st56{fill:#D67C66;}
	.st57{fill:#D98370;}
</style>
<g>
	<path class="st0" d="M166,125.9L166,125.9L166,125.9z"/>
	<polygon class="st0" points="136.5,70.3 136.5,70.3 135.8,71 135.8,71 	"/>
	<polygon class="st0" points="157.8,39.5 157.8,39.5 157.8,39.5 157.8,39.5 	"/>
	<path class="st0" d="M150.9,60L150.9,60C150.9,60,150.2,60.7,150.9,60C150.2,60.7,150.2,60.7,150.9,60z"/>
	<polygon class="st0" points="129,18.9 129,18.9 129,18.9 129,18.9 	"/>
	<path class="st0" d="M124.8,12C124.8,12,124.2,12.7,124.8,12C124.2,12.7,124.2,12.7,124.8,12L124.8,12z"/>
	<path class="st0" d="M45.3,112.2L45.3,112.2L45.3,112.2z"/>
	<path class="st0" d="M172.2,149.9C172.2,149.9,171.5,149.2,172.2,149.9C171.5,149.2,171.5,149.2,172.2,149.9
		C171.5,149.2,172.2,149.9,172.2,149.9z"/>
	<path class="st1" d="M45.3,112.2L45.3,112.2c-2.1-4.8-8.2,1.4-9.6-4.1c-11.7,3.4-24,6.2-35.7,9.6l6.2,6.2
		c12.3-4.1,25.4-7.5,38.4-11C44.6,112.9,44.6,112.9,45.3,112.2z"/>
	<path class="st2" d="M48.7,99.1c2.7-5.5,5.5-1.4,8.2-2.7c0,5.5-4.1,5.5-6.2,8.9c2.7,0,6.2-2.1,6.9,1.4c0.7,3.4-3.4,3.4-5.5,4.1
		c-2.7,1.4-5.5,1.4-7.5,0.7l0,0l0,0l-0.7,0.7c10.3,4.8,18.5,11.7,24.7,22c2.1,0.7,3.4,0.7,4.8-0.7l0,0c-0.7-0.7-0.7-0.7-1.4-1.4
		c2.1-2.1,4.1-4.1,1.4-8.2c-2.1-0.7-3.4-2.1-5.5-2.7c-4.1-5.5,1.4-13.7-5.5-19.2c-1.4-1.4,0.7-2.1,2.1-3.4c1.4,0,3.4-0.7,4.8,0.7
		c0.7,2.1-0.7,2.1-2.7,2.7c5.5,0,11,5.5,17.1,0.7c-0.7-0.7-2.7-2.7-2.7-2.7c2.1-4.8,5.5,0,7.5-0.7c-2.1-2.1-1.4-4.1,2.1-4.8
		c4.1-1.4,7.5-3.4,11-5.5l0,0l0,0c0.7-0.7,1.4-2.7,2.1-3.4c0.7-6.2-6.9-8.2-8.9-13l0,0c-8.2,1.4-15.1,5.5-22,11
		c-8.2-1.4-8.2-1.4-12.3,4.1l0,0l0,0c0,2.7-1.4,2.7-2.7,2.7c-2.7,0-1.4-1.4-1.4-2.7c0-2.7,0-4.1,0-6.9c-2.1,0.7-3.4,2.1-4.8,2.1
		c-2.1,2.1-3.4,3.4-4.8,6.2c0,2.7-0.7,4.8-0.7,7.5C44.6,101.9,48,101.2,48.7,99.1z M91.2,86.8c0.7,0.7,1.4,1.4,2.7,2.7
		c-0.7,0.7-1.4,0-2.1,0.7c-1.4,0-2.1-0.7-2.1-2.1C89.9,86.8,90.5,86.1,91.2,86.8z"/>
	<path class="st3" d="M174.2,101.2c-4.8-0.7-9.6-1.4-15.1-1.4c5.5-1.4,10.3-2.1,13-7.5c-2.1-0.7-4.8-2.1-6.2-3.4
		c-0.7-0.7-0.7-2.1-1.4-2.7c0-1.4,1.4-2.7,2.7-1.4c5.5,2.7,7.5-3.4,11-5.5l0,0c-6.2-3.4-12.3-8.2-18.5-0.7c0.7,2.1,3.4,6.2-2.1,4.8
		c-8.9-3.4-17.8-1.4-26.1-2.7c-2.1,2.1-0.7,4.8-0.7,7.5c2.1,2.1,4.8,2.1,5.5,5.5l0,0l0,0l0,0l0,0l0,0c4.1,0,6.9,2.7,8.2,6.9
		c3.4,4.8,2.7,12.3,8.9,15.8l0,0h1.4c4.8,0.7,6.9-4.1,11-4.1c2.1-0.7,2.7-4.1,5.5-2.7l0,0l0,0c2.1,0.7,4.1,0,5.5-1.4l0,0l0,0
		C175.6,105.3,176.3,103.2,174.2,101.2z"/>
	<path class="st4" d="M59.7,89.5L59.7,89.5C63.8,84,63.8,84,72,85.4C69.3,84,70,82,71.3,80.6c3.4-4.8,4.1-11,4.8-15.8l0,0
		c0.7-2.1,0.7-3.4,0.7-6.2l0,0c-1.4-2.7-8.9,2.1-5.5-4.1c1.4-2.7,3.4-8.9,8.9-4.8c0.7-2.1,2.1-3.4,2.7-5.5
		c-1.4-4.1,1.4-8.2-1.4-12.3c-6.9-1.4-14.4-0.7-15.1,8.2c-0.7,6.2-3.4,10.3-5.5,15.1c1.4,4.1,1.4,6.9-2.7,8.2l0,0l0,0
		c-6.2,6.2-4.1,16.5-8.9,22.6c2.1-0.7,3.4-2.1,4.8-2.1C59.7,82.7,57.6,87.5,59.7,89.5z"/>
	<path class="st4" d="M124.2,136.2c-6.2-0.7-10.3-6.2-16.5-6.9l0,0l0,0c-2.7-2.7-10.3,2.1-8.2-6.9c0.7-0.7,2.7-1.4,3.4-2.1
		c-3.4-2.1-7.5-0.7-11-1.4c2.1,3.4,4.1,6.9-0.7,10.3c-2.7,2.7-4.8,7.5-3.4,11.7c12.3,5.5,24.7,8.2,37.7,0.7
		C124.8,141,124.2,138.9,124.2,136.2L124.2,136.2z M95.3,140.3c-0.7-0.7,0-1.4,0.7-2.1c3.4,0.7,6.9,2.7,10.3,3.4
		C102.9,142.3,98.8,145.1,95.3,140.3z"/>
	<path class="st4" d="M91.9,120.4l0.7-0.7L91.9,120.4z"/>
	<path class="st5" d="M133.8,25c-4.8,3.4-5.5-1.4-4.8-6.2l0,0c-6.9,0-12.3,0-16.5,6.9c0.7,0.7,1.4,2.7,2.1,3.4l0,0l0,0
		c2.7-1.4,4.1-2.7,6.9-4.1c2.7,2.7-1.4,4.1,0,5.5c2.1-0.7,4.1-1.4,6.9-1.4c2.7,0,6.2,0.7,2.7,5.5c-2.1,3.4-3.4,7.5-2.1,11.7
		c1.4-1.4,2.7-2.7,3.4-3.4c8.9,2.1,17.8,0,25.4-3.4l0,0c-6.2,0.7-11.7-4.8-18.5-2.1c-2.1-3.4,2.1-4.8,2.7-8.2l0,0l0,0
		c-0.7-0.7-1.4-1.4-2.1-2.1C137.9,27.8,139.3,20.9,133.8,25z"/>
	<path class="st6" d="M84.4,42.9c2.7,0,4.8,0.7,6.2,3.4c0.7,0.7,1.4,2.7,2.1,3.4c2.7,2.7,6.2-2.1,9.6,1.4l0,0c1.4,0,1.4,5.5,4.8,2.1
		c2.7-2.7,5.5-4.1,8.9-4.8l0,0c-0.7-2.1,0-4.1,0.7-6.2c0.7-2.1,8.9,0.7,4.8-4.8c-2.7-4.1-8.9-3.4-11,1.4c-4.1,6.9-9.6,4.1-13.7,4.1
		c-1.4,0-3.4-3.4-5.5-5.5l0,0l0,0c-1.4-1.4-4.1-2.7-2.7-5.5l0,0c0-1.4,1.4-2.7-0.7-3.4l0,0l0,0c-0.7,0.7-2.1,2.1-3.4,2.1
		C85.7,34.7,82.3,39.5,84.4,42.9z"/>
	<path class="st7" d="M87.1,31.9c3.4,0.7,6.2-2.1,8.2-4.1c4.1-4.1,5.5-2.7,8.2,1.4c3.4,4.8,7.5,2.1,11,1.4l0,0
		c-0.7-0.7-1.4-2.7-2.1-3.4c-2.1,0.7-4.8,0.7-6.2-2.1c6.9-1.4,10.3-7.5,15.1-12.3c2.1-2.1,2.7,0,3.4,0.7l0,0V12c0-1.4,0-2.7-0.7-3.4
		c-2.1-2.1-4.1-1.4-5.5-1.4c-5.5,5.5-9.6,11-17.8,12.3l0,0l0,0c-6.2,2.1-10.3,6.2-14.4,10.3l0,0C89.2,28.5,87.1,30.5,87.1,31.9z"/>
	<path class="st8" d="M91.2,130.7c4.8-3.4,2.7-6.9,0.7-10.3c0.7-0.7,0.7-0.7,0.7-0.7c0.7-0.7,2.1-2.1,2.7-2.7
		c-11.7-3.4-11.7-3.4-15.1,5.5c-1.4,5.5-4.8,0.7-7.5,2.1c2.7,2.7,0.7,4.8-1.4,8.2c0.7,0.7,0.7,0.7,1.4,1.4c2.1,0.7,4.8,0.7,6.2,2.1
		c4.1,0,2.1,8.9,8.2,6.9C86.4,138.2,88.5,133.4,91.2,130.7z"/>
	<path class="st5" d="M155,34c-0.7,2.1,2.1,2.1,3.4,2.1c2.7,0,2.7,1.4,3.4,3.4l0,0l0,0c1.4,0,1.4-4.1,4.1-1.4
		c1.4,1.4,2.1,3.4-0.7,4.8c-8.9,2.1-10.3,10.3-14.4,17.1l0,0c5.5-4.1,13-4.8,16.5-11c0.7-0.7,2.1-2.1,2.7-1.4
		c2.1,0.7,2.1,2.1,1.4,4.1c-0.7,3.4-0.7,6.2-0.7,10.3c8.2-12.3,4.8-25.4-6.9-27.4c-2.1-0.7-3.4-2.1-4.8-2.1
		C157.8,31.2,155.7,31.9,155,34z"/>
	<path class="st9" d="M172.9,132.7L172.9,132.7L172.9,132.7c1.4,5.5,4.8,11.7-1.4,16.5c0,0,0,0,0.7,0.7l0,0l0,0l0,0
		c16.5-1.4,17.8-2.7,17.1-13c-0.7-4.8-2.7-11-7.5-14.4C178.4,125.9,181.1,134.1,172.9,132.7z"/>
	<path class="st10" d="M171.5,50.4c0-1.4,0.7-3.4-1.4-4.1c-1.4,0-2.1,0.7-2.7,1.4c-3.4,6.2-11.7,7.5-16.5,11l0,0
		c0,1.4,0,2.7-1.4,4.1s-4.1,2.7-4.1,4.1c0,2.7,3.4,3.4,5.5,2.7c2.7,0,5.5,0,8.2,0l0,0c-0.7-0.7-2.1-2.1-2.1-2.1
		c1.4-2.7,3.4-0.7,5.5-1.4c3.4-2.1,5.5-4.1,8.9-6.2l0,0C170.8,58,170.1,54.5,171.5,50.4z"/>
	<path class="st11" d="M159.1,71L159.1,71c0.7,2.1-2.7,5.5,0.7,7.5c6.2-7.5,13-3.4,18.5,0.7l0,0l0,0l0.7,0.7
		c9.6,8.2,9.6,8.2,1.4,17.8c0.7,3.4,0,6.9,4.1,6.9c7.5-8.9,8.2-15.1,1.4-26.1c-6.2-8.9-15.1-9.6-24-7.5C160.5,71,159.1,71,159.1,71z
		"/>
	<path class="st12" d="M131.7,139.6h1.4l0,0c2.7-2.7,4.1-5.5,1.4-9.6c-2.7-4.1,0.7-3.4,2.7-2.7c4.1,1.4,6.2,0.7,8.2-2.7
		c-6.2,0.7-5.5-6.9-9.6-8.2l0,0l0,0c-1.4,5.5-4.1,8.2-8.9,10.3l0,0c-0.7,2.1-0.7,3.4,0,5.5c4.1,4.1,0,5.5-4.1,5.5l0,0l0,0
		c0.7,2.1,0.7,4.8,1.4,6.9c0.7,0.7,1.4,0,1.4,0C126.9,140.3,127.6,136.9,131.7,139.6z"/>
	<path class="st13" d="M139.9,36.7c6.2-2.1,12.3,2.7,18.5,2.1l0,0l0,0c1.4,0,2.7,0,3.4-0.7l0,0c-0.7-2.1-1.4-2.7-3.4-3.4
		c-1.4,0-4.1,0-3.4-2.1c0-1.4,2.1-2.1,3.4-2.1c2.1,0.7,2.7,1.4,4.8,2.1c-5.5-8.2-8.9-8.9-20.6-4.1l0,0C142,31.9,138.6,34,139.9,36.7
		z"/>
	<path class="st14" d="M165.3,111.5c-4.1,0-6.2,4.8-11,4.1l0,0v1.4c2.1,0.7,4.8,0.7,7.5,2.1c5.5-2.7,8.9,0.7,11.7,3.4
		c2.7,2.7-1.4,4.1-4.1,5.5c0.7,2.1,2.1,3.4,2.7,5.5l0,0c8.2,1.4,5.5-6.9,8.9-10.3c-2.1-3.4-4.8-6.2-8.2-8.2
		C170.1,114.9,166,116.3,165.3,111.5z"/>
	<path class="st15" d="M172.2,149.9C172.2,149.9,171.5,149.2,172.2,149.9c-8.2-2.7-16.5,0-22.6-6.2l0,0c-1.4,0-2.7,0-4.1-1.4
		c-4.8,3.4-6.9-2.7-11-2.7l0,0l0,0h-1.4c0,1.4,0.7,3.4,0,5.5l0,0c6.9,0,12.3,4.1,19.2,5.5C158.5,152.6,166,156.1,172.2,149.9
		L172.2,149.9L172.2,149.9z"/>
	<path class="st16" d="M51.4,104.6L51.4,104.6c1.4-2.7,6.2-3.4,6.2-8.9c-2.7,1.4-5.5-2.7-8.2,2.7c-1.4,2.7-4.8,3.4-4.8-2.1
		c0-2.7,0.7-4.8,0.7-7.5c-4.1,5.5-3.4,13-8.9,17.1C41.8,108.7,46,101.9,51.4,104.6z"/>
	<path class="st17" d="M45.3,112.2L45.3,112.2L45.3,112.2c2.7,0,6.2,0.7,7.5-0.7c2.1-0.7,6.2-0.7,5.5-4.1c-0.7-3.4-4.1-1.4-6.9-1.4
		l0,0c-5.5-2.7-9.6,4.1-15.1,2.7l-0.7,0.7C37,113.5,42.5,108,45.3,112.2z"/>
	<path class="st18" d="M118.7,5.8c0-1.4-0.7-3.4,0-5.5c-8.2,4.1-12.3,11-17.8,17.8l0,0C108.4,16.1,113.9,10.6,118.7,5.8z"/>
	<path class="st19" d="M129,18.9L129,18.9c-1.4,4.1,0,9.6,4.8,6.2c5.5-4.1,4.8,2.1,6.9,2.7c-1.4-4.1,0.7-8.9-2.7-12.3
		c-0.7,0.7-1.4,1.4-2.1,2.1C133.8,18.2,131.7,18.9,129,18.9z"/>
	<path class="st20" d="M183.2,104.6L183.2,104.6L183.2,104.6c4.8-0.7,8.2-2.7,8.2-8.2c0-6.9,4.1-15.1-6.2-18.5
		C191.4,89.5,191.4,96.4,183.2,104.6z"/>
	<path class="st20" d="M124.2,7.2c0,1.4,0,2.7,0.7,3.4c3.4,2.1,10.3,0.7,11.7,6.2c0.7-0.7,1.4-1.4,2.1-2.1c0-4.1-2.7-6.9-6.2-8.9
		C129.6,8.6,126.9,7.2,124.2,7.2z"/>
	<path class="st5" d="M118.7,5.8c2.1-0.7,4.8-0.7,5.5,1.4c2.7,0,5.5,1.4,7.5-0.7c-3.4-4.8-7.5-7.5-13-6.2
		C118.7,1.7,118.7,3.1,118.7,5.8z"/>
	<path class="st20" d="M183.2,104.6L183.2,104.6c-4.8-0.7-4.1-4.1-4.1-6.9h-1.4c-1.4,1.4-2.7,2.7-3.4,3.4c2.7,1.4,2.1,3.4,2.7,5.5
		l0,0C178.4,106.7,181.8,107.4,183.2,104.6L183.2,104.6z"/>
	<path class="st21" d="M165.3,111.5c0.7,4.8,4.8,3.4,7.5,3.4c-0.7-2.1-2.1-3.4-2.1-4.8l0,0C167.4,106.7,167.4,110.8,165.3,111.5z"/>
	<path class="st22" d="M131.7,139.6c-4.1-2.7-4.8,0.7-5.5,4.1l0,0c2.1,0.7,3.4,2.1,5.5,1.4l0,0C132.4,143,132.4,141.7,131.7,139.6z"
		/>
	<path class="st23" d="M62.4,53.9c-3.4,2.1-3.4,4.8-2.7,8.2l0,0C65.2,60.7,64.5,57.3,62.4,53.9z"/>
	<path class="st3" d="M156.4,68.3c0,0,1.4,1.4,2.1,2.1c0.7-0.7,1.4,0,2.1-0.7c0-1.4,0.7-2.1,1.4-4.1
		C159.8,67.6,157.8,66.9,156.4,68.3z"/>
	<path class="st24" d="M90.5,101.2L90.5,101.2L90.5,101.2c13-2.1,25.4,3.4,39.1,3.4c3.4-3.4,6.9-6.9,6.9-12.3l0,0
		c-0.7-3.4-4.1-2.7-5.5-5.5c-1.4,0-3.4,0.7-5.5,0l0,0l0,0c-2.7,4.1-6.2,6.2-11,4.1c-1.4,2.7-3.4,6.2-5.5,0c-2.7-1.4-4.8-2.1-7.5-3.4
		l0,0c-3.4,2.1-7.5,3.4-11,5.5c-2.7,1.4-2.7,2.7-2.1,4.8C89.2,101.2,90.5,101.2,90.5,101.2z"/>
	<path class="st25" d="M80.9,123.1c4.1-9.6,4.1-9.6,15.1-5.5c-0.7,0.7-2.1,2.1-2.7,2.7l-0.7,0.7c3.4,0.7,7.5-0.7,11,1.4
		c2.7-1.4,4.1-2.7,0-5.5c-2.1-0.7-4.8-0.7-4.1-4.1c0.7-3.4,3.4-0.7,5.5-1.4c2.1-2.1,6.9,2.7,6.2-2.1c-0.7-3.4-3.4-2.1-6.2-2.1
		c-6.2-0.7-13.7,2.7-19.9-2.1l0,0l0,0h-1.4l0,0c-6.2,4.8-11,0-17.1-0.7c-0.7-0.7-1.4-2.7-2.1-3.4c-0.7,0.7-3.4,2.1-2.1,3.4
		c6.9,5.5,1.4,13.7,5.5,19.2C72,118.3,76.8,117.7,80.9,123.1z M82.3,109.4c2.1,2.1,0,2.7-1.4,2.7c-0.7,0.7-1.4,0-2.7,0
		C78.9,110.1,80.9,108,82.3,109.4z"/>
	<path class="st26" d="M94,73.1L94,73.1L94,73.1L94,73.1L94,73.1c2.1-2.1,6.9-5.5,0-6.9c-5.5-1.4,2.1-6.2-2.1-7.5l0,0l0,0
		c-2.1,2.1-5.5,4.1-7.5,6.2c-3.4,3.4-4.8,0.7-6.2-0.7c-1.4,5.5-2.7,11-4.8,15.8c-1.4,1.4-2.1,3.4,0.7,4.8
		C78.9,79.9,85.7,75.8,94,73.1L94,73.1L94,73.1C94,74.4,94,73.1,94,73.1z"/>
	<path class="st27" d="M107.7,84L107.7,84L107.7,84c1.4-4.1,5.5-8.2,0.7-13l0,0c-1.4,0-3.4,0.7-5.5,0c-2.7,1.4-5.5,2.7-8.9,2.1
		l0.7,0.7l0,0c2.1,4.8,8.9,6.2,8.9,13C104.3,86.1,105.6,84.7,107.7,84z"/>
	<path class="st27" d="M94,73.1L94,73.1L94,73.1z"/>
	<path class="st28" d="M80.9,123.1c-4.1-5.5-8.9-4.8-13-0.7c2.1,0.7,3.4,2.1,5.5,2.7C76.1,123.8,79.6,128.6,80.9,123.1z"/>
	<path class="st29" d="M108.4,93c-1.4-2.7,2.7-6.9-0.7-8.9l0,0c-1.4,1.4-3.4,2.1-4.8,3.4c-0.7,0.7-1.4,2.7-2.1,3.4l0,0
		C103.6,90.9,106.3,92.3,108.4,93z"/>
	<path class="st30" d="M55.6,82.7c0,2.7,0,4.1,0,6.9c0,1.4-1.4,2.7,1.4,2.7s3.4-0.7,2.7-2.7l0,0C57.6,87.5,59.7,82.7,55.6,82.7z"/>
	<path class="st17" d="M85.1,103.9L85.1,103.9c1.4-1.4,4.8,0.7,5.5-2.7l0,0c-0.7-0.7-1.4-1.4-2.1-2.1c-2.7,1.4-6.2-3.4-7.5,0.7
		c-0.7,0.7,2.1,2.1,2.7,2.7l0,0C83.7,103.9,84.4,104.6,85.1,103.9z"/>
	<path class="st31" d="M91.9,90.2c0,0,0.7-0.7,2.1-0.7c-0.7-0.7-1.4-1.4-2.7-2.7c-0.7-0.7-1.4,0-2.1,0.7
		C89.9,89.5,90.5,90.2,91.9,90.2z"/>
	<path class="st32" d="M68.6,101.2c-0.7-2.1-2.7-1.4-4.8-0.7c0.7,0.7,1.4,2.7,2.1,3.4C67.9,103.2,69.3,103.2,68.6,101.2z"/>
	<path class="st33" d="M129.6,104.6c5.5,1.4,8.9,3.4,6.9,9.6l0,0c3.4,2.1,2.7,9.6,9.6,8.2c1.4,0,2.7,0,3.4-0.7
		c1.4-2.7,2.1-4.8,3.4-7.5l0,0l0,0c-5.5-4.1-5.5-11-8.9-15.8c-2.7-1.4-6.2-3.4-8.2-6.9l0,0l0,0l0,0
		C135.8,98.4,132.4,101.9,129.6,104.6z"/>
	<path class="st34" d="M136.5,70.3L136.5,70.3L136.5,70.3z"/>
	<path class="st34" d="M144.7,60.7c-3.4,2.1-11,0-11,8.2c0.7,0.7,1.4,1.4,2.1,2.1c4.8-2.1,6.9,1.4,8.9,4.8c-2.7-2.7-8.9,2.1-8.9-4.8
		l0,0c-2.1,2.1-4.8,3.4-6.9,5.5l0,0c2.1,0.7,2.1,2.1,2.1,3.4l0,0c8.2,1.4,17.1-0.7,26.1,2.7c4.8,2.1,2.7-2.7,2.1-4.8
		c-3.4-2.1,0.7-4.8-0.7-7.5c-2.7,0-5.5,0-8.2,0c-2.7,0-5.5,0-5.5-2.7c0-1.4,2.7-2.7,4.1-4.1C146.8,64.1,144.7,63.5,144.7,60.7z"/>
	<path class="st14" d="M166.7,84c-0.7-0.7-2.7,0-2.7,1.4c0,1.4,0,2.7,1.4,2.7c1.4,1.4,4.1,2.7,6.2,3.4c4.1,0,5.5,1.4,6.2,4.8h1.4
		c8.9-8.9,8.9-8.9-1.4-17.8l-0.7-0.7l0,0C174.2,80.6,172.2,86.8,166.7,84z"/>
	<path class="st35" d="M170.8,92.3c-2.7,5.5-6.9,6.9-13,7.5c5.5,0,10.3,0.7,15.1,1.4c1.4-1.4,2.7-2.7,3.4-3.4
		C177,94.3,174.9,92.3,170.8,92.3z"/>
	<path class="st36" d="M129.6,77.2c-3.4,2.1-7.5,3.4-8.2,8.2l0,0c1.4,1.4,2.7,2.7,3.4,3.4l0,0c1.4,0,3.4-0.7,5.5,0
		c0-2.7-1.4-5.5,0.7-7.5l0,0C131,78.6,131,77.2,129.6,77.2z"/>
	<path class="st12" d="M149.5,123.1v1.4c2.7,0,4.8-0.7,7.5-2.1c-0.7-2.1-1.4-4.1-2.7-5.5v-1.4l0,0H153l0,0
		C151.6,118.3,150.2,121.1,149.5,123.1z"/>
	<path class="st24" d="M144.1,99.8c-1.4-4.1-3.4-6.2-8.2-6.9l0,0C137.9,96.4,141.3,98.4,144.1,99.8z"/>
	<path class="st37" d="M83.7,65.5c2.1-2.1,5.5-4.1,7.5-6.2l0,0c0.7-0.7,1.4-1.4,2.1-2.1c1.4-2.7,4.1-4.1,6.9-4.1
		c0.7-0.7,1.4-1.4,2.1-2.1c-2.7-2.7-6.2,2.1-9.6-1.4c0,2.7-1.4,5.5-4.1,5.5c-0.7,0.7-2.1-0.7-2.1-0.7c-1.4-4.1,2.1-6.2,4.8-7.5
		c-1.4-2.7-3.4-3.4-6.2-3.4c-0.7,2.1-2.1,3.4-2.7,5.5c-0.7,3.4-2.1,6.2-3.4,8.9l0,0l0,0c-0.7,2.1-0.7,3.4-0.7,6.2l0,0
		C78.9,66.2,80.3,68.9,83.7,65.5z"/>
	<path class="st38" d="M80.9,49.1c-6.2-4.8-8.2,1.4-8.9,4.8c-2.7,6.9,4.1,2.7,5.5,4.1l0,0C79.6,55.9,80.9,51.8,80.9,49.1z"/>
	<path class="st2" d="M129.6,104.6c-13-0.7-26.1-5.5-39.1-3.4l0,0c-0.7,3.4-4.1,0-5.5,2.7l0,0c6.2,4.8,13,2.1,19.9,2.1
		c2.7,0,5.5-1.4,6.2,2.1c0,5.5-4.8,0.7-6.2,2.1c-1.4,1.4-4.8-0.7-5.5,1.4c-0.7,3.4,2.7,2.7,4.1,4.1c4.1,1.4,2.1,3.4,0,5.5
		c-0.7,0.7-2.7,1.4-3.4,2.1c2.7,2.7,5.5,2.7,9.6,2.7c4.8,0.7,9.6,0,5.5-6.9c4.8,0.7,6.2,4.8,8.9,6.2c1.4,0,2.7,0,3.4-0.7l0,0l0,0
		c4.8-2.1,7.5-4.8,8.9-10.3l0,0C138.6,109.4,134.4,106.7,129.6,104.6z"/>
	<path class="st39" d="M123.5,125.9c-4.8,4.8-11.7-0.7-15.8,4.8l0,0c6.2,0.7,10.3,6.2,16.5,6.9l0,0c3.4-0.7,7.5-0.7,4.1-5.5
		c-2.1-2.1-1.4-4.1,0-5.5l0,0C126.2,125.9,124.8,125.9,123.5,125.9z"/>
	<path class="st25" d="M123.5,125.9c-2.7-1.4-4.8-4.8-8.9-6.2c3.4,7.5-1.4,6.9-5.5,6.9c-3.4-0.7-6.2-0.7-9.6-2.7
		c-1.4,8.2,5.5,4.1,8.2,6.9l0,0C111.8,125.2,119.4,130,123.5,125.9z"/>
	<path class="st40" d="M95.3,140.3c2.7,4.1,7.5,2.1,11,1.4c-3.4-0.7-6.9-2.7-10.3-3.4C95.3,138.9,95.3,140.3,95.3,140.3z"/>
	<path class="st41" d="M123.5,49.1c2.1-0.7,4.1,0,5.5-2.7c-1.4-4.1-0.7-8.9,2.1-11.7c3.4-4.8,0-5.5-2.7-5.5c-2.7,0-4.8,0.7-6.9,1.4
		c-2.1-2.1,2.7-4.1,0-5.5c-2.7,1.4-4.1,2.7-6.9,4.1l0,0c-4.1,1.4-7.5,3.4-11-1.4c-1.4,1.4-4.1,2.7-5.5,4.1c2.1,0.7,5.5-1.4,4.8,2.1
		c-0.7,4.8-6.2,0.7-8.9,2.1c-1.4,0-3.4,0.7-5.5,0l0,0c2.1,2.1,3.4,4.8,5.5,5.5c4.8,0.7,10.3,3.4,13.7-4.1c2.1-4.8,7.5-4.8,11-1.4
		c4.1,5.5-2.7,2.7-4.8,4.8c-0.7,2.1-1.4,4.1-0.7,6.2C117.3,48.4,120.7,47.7,123.5,49.1z"/>
	<path class="st42" d="M136.5,52.5h1.4l0,0l0,0c2.1-0.7,2.1-4.8,4.8-3.4c4.1,2.7,0,6.9,1.4,9.6V60l0,0c0,2.7,2.1,3.4,3.4,3.4
		c1.4-1.4,1.4-2.7,1.4-4.1l0,0c3.4-6.2,5.5-15.1,14.4-17.1c3.4-0.7,2.7-2.7,0.7-4.8c-2.7-2.7-2.7,1.4-4.1,1.4l0,0
		c-1.4,0-2.7,0-3.4,0.7l0,0l0,0c-8.2,4.1-16.5,5.5-25.4,3.4C132.4,47,135.1,49.7,136.5,52.5z"/>
	<path class="st43" d="M129,18.9L129,18.9c0-2.7-3.4-4.8-4.1-6.9c0,0,0,0-0.7-0.7s-1.4-2.7-3.4-0.7c-4.1,5.5-6.9,11-15.1,12.3
		c2.7,2.7,4.8,2.1,6.2,2.1C116.6,20.2,122.8,19.6,129,18.9z"/>
	<path class="st34" d="M123.5,49.1c0.7,2.1,2.1,3.4,2.7,5.5c3.4-2.1,6.9-4.1,11-2.7c-1.4-2.7-4.8-4.8-4.8-8.9
		c-1.4,1.4-2.7,2.7-3.4,3.4C128.3,49.7,125.5,49.7,123.5,49.1z"/>
	<path class="st44" d="M93.3,57.3c-0.7,0.7-1.4,1.4-2.1,2.1l0,0c4.1,1.4-3.4,6.2,2.1,7.5c8.2,1.4,2.7,4.1,0,6.9l0,0l0,0l0,0
		c3.4,0.7,6.9,0,8.9-2.1c-1.4-2.7-2.7-5.5-2.7-8.2c2.7-1.4,6.2,0.7,8.2,1.4c2.1,0.7,5.5,0,5.5,2.7c-0.7,3.4-4.1,2.7-6.2,3.4l0,0l0,0
		c4.1,4.1,1.4,8.2-0.7,13l0,0c4.1,2.7-0.7,6.2,0.7,8.9c2.7,5.5,4.1,2.7,5.5,0c-0.7-4.8-2.7-12.3,6.9-8.2l0,0l0,0
		c1.4-4.1,5.5-5.5,8.2-8.2l0,0c2.1-2.1,4.8-3.4,6.9-5.5l0,0l0,0l0,0c-0.7-0.7-1.4-1.4-2.1-2.1c-4.1-4.1,0-12.3-8.2-13.7l0,0
		c-0.7-2.1-2.1-3.4-2.7-5.5c-2.7-1.4-6.2-2.1-9.6-1.4l0,0c-3.4,0.7-6.2,2.1-8.9,4.8c-3.4,3.4-2.1-2.1-4.8-2.1l0,0
		c-0.7,0.7-1.4,1.4-2.1,2.1C98.1,55.2,98.8,62.8,93.3,57.3z"/>
	<path class="st45" d="M94.7,36.7c1.4-1.4,2.7-2.7,3.4-3.4c1.4-1.4,4.1-2.7,5.5-4.1c-2.1-3.4-4.1-5.5-8.2-1.4
		c-2.1,2.1-4.8,4.8-8.2,4.1l0,0c-1.4,2.7,0.7,3.4,2.7,5.5l0,0C91.2,37.4,93.3,36.7,94.7,36.7z"/>
	<path class="st46" d="M85.7,53.9c0.7,0.7,1.4,1.4,2.1,0.7c3.4-0.7,4.1-2.7,4.1-5.5c-0.7-0.7-1.4-2.7-2.1-3.4
		C87.1,48.4,84.4,49.7,85.7,53.9z"/>
	<path class="st5" d="M129,18.9L129,18.9L129,18.9c2.1-0.7,4.8-2.1,7.5-2.1c-2.1-6.2-7.5-4.8-11.7-6.2V12l0,0
		C126.2,14.8,129,16.1,129,18.9z"/>
	<path class="st47" d="M166,125.9L166,125.9L166,125.9c0.7,4.8-2.1,8.9-4.8,13c-2.7,4.1-6.9,2.7-11,2.7l0,0
		c-0.7,0.7-1.4,1.4-2.1,2.1l0,0l0,0c6.2,6.2,15.1,2.7,22,5.5l0,0c6.2-4.8,1.4-11,1.4-16.5l0,0c-0.7-2.1-2.1-3.4-2.7-5.5
		C168.7,127.3,168.1,126.6,166,125.9z"/>
	<path class="st48" d="M150.9,142.3c0-5.5-2.7-11-1.4-16.5v-1.4c-1.4,0-2.7,0-3.4,0.7c-1.4,4.1-4.1,4.1-8.2,2.7
		c-2.1-0.7-5.5-1.4-2.7,2.7c9.6-1.4,5.5,9.6,9.6,12.3c1.4,1.4,2.1,2.1,4.1,1.4l0,0C149.5,143.7,150.2,143,150.9,142.3z"/>
	<path class="st49" d="M135.1,130.7c3.4,3.4,2.1,6.2-1.4,9.6l0,0c4.1,0,6.2,6.2,11,2.7C140.6,138.9,145.4,128.6,135.1,130.7z"/>
	<path class="st21" d="M162.6,121.1L162.6,121.1c1.4,1.4,2.1,3.4,4.1,5.5l0,0c1.4,0,2.7,1.4,4.1,1.4c2.1-0.7,6.9-2.7,4.1-5.5
		c-2.7-2.7-6.9-6.9-11.7-3.4C162.6,119.7,161.9,120.4,162.6,121.1z"/>
	<path class="st50" d="M156.4,123.1c2.1-0.7,4.1-1.4,5.5-2.7l0,0l0,0V119c-2.1-0.7-4.8-0.7-7.5-2.1
		C155.7,119.7,155.7,121.1,156.4,123.1z"/>
	<path class="st51" d="M120.7,84.7L120.7,84.7c-9.6-4.1-7.5,3.4-6.9,8.2c4.8,2.1,8.2-1.4,11-4.1l0,0
		C123.5,87.5,122.1,86.1,120.7,84.7z"/>
	<path class="st52" d="M77.5,111.5c1.4,0,2.1,0.7,2.7,0c1.4,0,3.4-0.7,1.4-2.7C80.9,108,78.9,110.1,77.5,111.5z"/>
	<path class="st53" d="M114.6,67.6c0.7-3.4-4.1-2.7-5.5-2.7c-3.4-0.7-5.5-2.7-8.2-1.4c-0.7,3.4,1.4,5.5,2.7,8.2c1.4,0,3.4-0.7,5.5,0
		l0,0C111.1,71,114.6,70.3,114.6,67.6z"/>
	<path class="st54" d="M144.7,60.7L144.7,60.7v-1.4c-2.1-2.1-4.1-4.1-5.5-6.9l0,0h-1.4c-4.1-1.4-7.5,0.7-11,2.7l0,0
		c8.2,1.4,4.8,10.3,8.2,13.7C134.4,61.4,140.6,63.5,144.7,60.7z"/>
	<path class="st55" d="M135.8,71c0,6.9,6.2,2.1,8.9,4.8C143.4,71.7,141.3,68.3,135.8,71L135.8,71C136.5,70.3,136.5,70.3,135.8,71
		C136.5,70.3,135.8,71,135.8,71z"/>
	<path class="st56" d="M150.9,142.3L150.9,142.3c3.4,0.7,8.2,2.7,11-2.7c-4.1,0-6.2-2.1-5.5-6.9c1.4-5.5,5.5-6.9,10.3-6.2l0,0l0,0
		c-1.4-1.4-2.1-3.4-4.1-5.5l0,0c-2.1,0.7-4.1,1.4-5.5,2.7c-2.7,1.4-4.1,2.7-7.5,2.1C148.9,130.7,150.2,136.2,150.9,142.3z"/>
	<path class="st6" d="M100.2,53.2c-2.7,0-5.5,1.4-6.9,4.1C98.8,62.8,98.1,55.2,100.2,53.2z"/>
	<path class="st7" d="M94.7,36.7c2.7-1.4,6.9,2.7,8.9-2.1c0-2.7-2.7-1.4-4.8-2.1C97.4,34,96,35.3,94.7,36.7z"/>
	<path class="st34" d="M144.7,59.3c-1.4-2.7,3.4-7.5-1.4-9.6c-2.7-1.4-3.4,2.1-4.8,3.4l0,0C141.3,54.5,142.7,57.3,144.7,59.3z"/>
	<path class="st57" d="M156.4,132.7c-0.7,3.4,1.4,6.9,5.5,6.9c2.7-4.1,5.5-8.2,4.8-13C161.2,126.6,156.4,127.3,156.4,132.7z"/>
</g>
</svg>
