<?xml version="1.0" encoding="utf-8"?>
<!-- Generator: Adobe Illustrator 22.1.0, SVG Export Plug-In . SVG Version: 6.00 Build 0)  -->
<svg version="1.1" id="Layer_1" xmlns="http://www.w3.org/2000/svg" xmlns:xlink="http://www.w3.org/1999/xlink" x="0px" y="0px"
	 viewBox="0 0 512 469.3" style="enable-background:new 0 0 512 469.3;" xml:space="preserve">
<style type="text/css">
	.st0{fill:#C78665;}
</style>
<g>
	<g>
		<path class="st0" d="M371.8,155l30.5-30.5l-21.7-25.3h-52.3l-21.7,25.3L337,155c-29.6,3.3-57.7,14.9-81,33.5
			c-23.3-18.6-51.4-30.2-81-33.5l30.5-30.5l-21.7-25.3h-52.3l-21.7,25.3l30.5,30.5C61.5,163.7,0,230.6,0,311.7
			c0,86.9,70.7,157.6,157.6,157.6c35.8,0,70.5-12.2,98.4-34.5c27.9,22.3,62.5,34.5,98.4,34.5c86.9,0,157.6-70.7,157.6-157.6
			C512,230.6,450.5,163.7,371.8,155z M327.2,123.8l8-9.3h38.3l8,9.3l-27.1,27.1L327.2,123.8z M130.5,123.8l8-9.3h38.3l8,9.3
			l-27.1,27.1L130.5,123.8z M157.6,454.1c-78.5,0-142.4-63.9-142.4-142.4s63.9-142.4,142.4-142.4c34.3,0,67.5,12.4,93.4,34.9
			c8,7,15.3,14.9,21.6,23.5c17.9,24.5,27.4,53.6,27.4,84c0,27.6-7.8,54-22.6,76.9c-0.2-0.2-0.4-0.4-0.6-0.6
			c-0.8-0.8-1.7-1.7-2.5-2.6c-0.4-0.4-0.7-0.8-1.1-1.2c-0.7-0.7-1.3-1.5-2-2.2c-0.4-0.4-0.7-0.9-1.1-1.3c-0.6-0.8-1.2-1.5-1.8-2.3
			c-0.3-0.4-0.7-0.9-1-1.3c-0.7-0.9-1.3-1.7-1.9-2.6c-0.2-0.3-0.4-0.5-0.6-0.8c10.9-18.8,16.6-40.2,16.6-62
			c0-21.9-5.8-43.3-16.7-62.1l0.1-0.1l-2.6-4.1c-5-7.9-10.8-15.1-17.4-21.7c-2.2-2.2-4.5-4.3-6.8-6.3l-6.2-5.3l-0.2,0.2
			c-21.3-15.9-47.4-24.6-74.2-24.6c-68.4,0-124,55.6-124,124s55.6,124,124,124c26.9,0,52.9-8.7,74.3-24.7c0.1,0.1,0.2,0.2,0.3,0.3
			c0.5,0.7,1.1,1.3,1.6,2c0.4,0.5,0.8,1,1.3,1.5c0.6,0.7,1.2,1.3,1.8,2c0.4,0.5,0.8,0.9,1.2,1.4c0.7,0.7,1.3,1.4,2,2.1
			c0.4,0.4,0.7,0.8,1.1,1.2c0.8,0.8,1.6,1.7,2.5,2.5c0.2,0.2,0.4,0.5,0.7,0.7C219.6,443.7,189.1,454.1,157.6,454.1z M289.1,224.7
			c18.8-14.1,41.7-21.8,65.3-21.8c60,0,108.8,48.8,108.8,108.8s-48.8,108.8-108.8,108.8c-23.6,0-46.5-7.7-65.3-21.8
			c17.1-25.8,26.2-55.7,26.2-87C315.2,280.4,306.2,250.5,289.1,224.7z M256,358.1c-6.8-14.5-10.4-30.3-10.4-46.5s3.6-32,10.4-46.5
			c6.8,14.5,10.4,30.3,10.4,46.5S262.8,343.7,256,358.1z M222.9,224.7c-17.1,25.8-26.2,55.7-26.2,87c0,31.2,9,61.2,26.2,87
			c-18.8,14.1-41.7,21.8-65.3,21.8c-60,0-108.8-48.8-108.8-108.8s48.8-108.8,108.8-108.8C181.2,202.9,204.2,210.6,222.9,224.7z
			 M354.4,454.1c-34.3,0-67.5-12.4-93.4-34.9c-8-7-15.3-14.9-21.6-23.5c-17.9-24.5-27.4-53.6-27.4-84c0-27.6,7.8-54,22.6-76.9
			c0.2,0.2,0.4,0.4,0.6,0.6c0.8,0.8,1.7,1.7,2.5,2.6c0.4,0.4,0.7,0.8,1.1,1.2c0.7,0.7,1.3,1.5,2,2.2c0.4,0.4,0.7,0.9,1.1,1.3
			c0.6,0.8,1.2,1.5,1.8,2.3c0.3,0.4,0.7,0.9,1,1.3c0.7,0.9,1.3,1.7,1.9,2.6c0.2,0.3,0.4,0.5,0.6,0.8c-10.9,18.8-16.6,40.2-16.6,62
			c0,21.9,5.8,43.3,16.7,62.1l-0.1,0.1l2.6,4.1c6.6,10.5,14.8,19.9,24.2,28l6.2,5.3l0.2-0.2c21.3,15.9,47.4,24.6,74.2,24.6
			c68.4,0,124-55.6,124-124s-55.6-124-124-124c-26.9,0-52.9,8.7-74.3,24.7c-0.1-0.1-0.2-0.2-0.3-0.3c-0.5-0.7-1.1-1.3-1.6-2
			c-0.4-0.5-0.8-1-1.3-1.5c-0.6-0.7-1.2-1.3-1.8-2c-0.4-0.5-0.8-0.9-1.2-1.4c-0.6-0.7-1.3-1.4-2-2.1c-0.4-0.4-0.8-0.8-1.2-1.2
			c-0.8-0.8-1.6-1.6-2.4-2.4c-0.3-0.3-0.5-0.5-0.8-0.8c24.8-19.1,55.3-29.5,86.8-29.5c78.5,0,142.4,63.9,142.4,142.4
			C496.8,390.2,432.9,454.1,354.4,454.1z"/>
	</g>
</g>
<g>
	<g>
		<rect x="248.4" class="st0" width="15.2" height="47.3"/>
	</g>
</g>
<g>
	<g>
		
			<rect x="295" y="30.9" transform="matrix(0.4198 -0.9076 0.9076 0.4198 149.9608 311.5344)" class="st0" width="47.3" height="15.2"/>
	</g>
</g>
<g>
	<g>
		
			<rect x="185.7" y="14.8" transform="matrix(0.9076 -0.4198 0.4198 0.9076 1.709 84.7195)" class="st0" width="15.2" height="47.3"/>
	</g>
</g>
</svg>
