<?xml version="1.0" encoding="utf-8"?>
<!-- Generator: Adobe Illustrator 22.1.0, SVG Export Plug-In . SVG Version: 6.00 Build 0)  -->
<svg version="1.1" id="Layer_1" xmlns="http://www.w3.org/2000/svg" xmlns:xlink="http://www.w3.org/1999/xlink" x="0px" y="0px"
	 viewBox="0 0 512 512" style="enable-background:new 0 0 512 512;" xml:space="preserve">
<style type="text/css">
	.st0{fill:#C78665;}
</style>
<g>
	<g>
		<path class="st0" d="M256,159.8c-17.9,0-32.5,14.6-32.5,32.5v47.2h65v-47.2C288.5,174.4,273.9,159.8,256,159.8z M273.1,224.1
			h-34.1v-31.7c0-9.4,7.7-17.1,17.1-17.1c9.4,0,17.1,7.7,17.1,17.1L273.1,224.1L273.1,224.1z"/>
	</g>
</g>
<g>
	<g>
		<path class="st0" d="M104.1,321.6c-17.9,0-32.5,14.6-32.5,32.5v47.2h65v-47.2C136.6,336.2,122,321.6,104.1,321.6z M121.2,385.9H87
			v-31.7c0-9.4,7.7-17.1,17.1-17.1c9.4,0,17.1,7.7,17.1,17.1L121.2,385.9L121.2,385.9z"/>
	</g>
</g>
<g>
	<g>
		<path class="st0" d="M407.9,321.6c-17.9,0-32.5,14.6-32.5,32.5v47.2h65v-47.2C440.4,336.2,425.8,321.6,407.9,321.6z M425,385.9
			h-34.1v-31.7c0-9.4,7.7-17.1,17.1-17.1s17.1,7.7,17.1,17.1L425,385.9L425,385.9z"/>
	</g>
</g>
<g>
	<g>
		<path class="st0" d="M475.7,474.6V281.8l-120.1-44.1V160l-91.8-90.2V38.6h20.6V23.2h-20.6V0h-15.4v23.2h-20.6v15.4h20.6v31.2
			L156.5,160v77.6L36.3,281.8v192.8H16.2V512h479.5v-37.4H475.7z M355.5,254.1l104.7,38.5v11.1l-104.7-38.5V254.1z M355.5,281.6
			l104.7,38.5v154.6H355.5V281.6z M171.9,166.5L256,83.9l84.1,82.6v13.7L256,97.6l-84.1,82.6V166.5z M256,321.6
			c-36.8,0-66.8,30-66.8,66.8v86.3h-17.3V232v-30.2l84.1-82.6l84.1,82.6V232v242.7h-17.3v-86.3C322.8,351.6,292.8,321.6,256,321.6z
			 M307.3,388.4v86.3h-43.6v-137C288.4,341.4,307.3,362.7,307.3,388.4z M248.3,337.6v137h-43.6v-86.3
			C204.7,362.7,223.6,341.4,248.3,337.6z M51.7,292.6l104.7-38.5v11.1L51.7,303.6V292.6z M51.7,320.1l104.7-38.5v193H51.7V320.1z
			 M480.3,496.6L480.3,496.6H31.7v-6.5h4.6h120.2h15.4h17.3h133.5h17.3h15.4h120.1h4.6L480.3,496.6L480.3,496.6z"/>
	</g>
</g>
<g>
	<g>
		<rect x="183.7" y="291.1" class="st0" width="14.9" height="15.4"/>
	</g>
</g>
<g>
	<g>
		<rect x="216.1" y="291.1" class="st0" width="14.9" height="15.4"/>
	</g>
</g>
<g>
	<g>
		<rect x="248.5" y="291.1" class="st0" width="14.9" height="15.4"/>
	</g>
</g>
<g>
	<g>
		<rect x="280.9" y="291.1" class="st0" width="14.9" height="15.4"/>
	</g>
</g>
<g>
	<g>
		<rect x="313.4" y="291.1" class="st0" width="14.9" height="15.4"/>
	</g>
</g>
</svg>
