<?xml version="1.0" encoding="utf-8"?>
<!-- Generator: Adobe Illustrator 22.1.0, SVG Export Plug-In . SVG Version: 6.00 Build 0)  -->
<svg version="1.1" id="Capa_1" xmlns="http://www.w3.org/2000/svg" xmlns:xlink="http://www.w3.org/1999/xlink" x="0px" y="0px"
	 viewBox="0 0 512 512" style="enable-background:new 0 0 512 512;" xml:space="preserve">
<style type="text/css">
	.st0{fill:#C78665;}
</style>
<g>
	<path class="st0" d="M256,512c-24.5,0-47.1-12.9-59.6-33.6c-10.3,5.6-21.9,8.6-33.6,8.6c-12.2,0-24.2-3.2-34.8-9.3
		c-21.2-12.3-34.3-34.8-34.8-58.9C68.9,418.3,46.4,405,34.3,384C22,362.8,22,336.8,33.6,315.6c-8.8-5.3-16.4-12.6-22.1-21.3
		C4,283,0,269.7,0,256c0-24.5,12.9-47.1,33.6-59.6C28,186.1,25,174.5,25,162.8c0-12.2,3.2-24.2,9.3-34.8
		c12.3-21.2,34.8-34.3,58.9-34.8C93.7,68.9,107,46.4,128,34.3c21.2-12.3,47.2-12.3,68.4-0.7c5.3-8.8,12.6-16.4,21.3-22.1
		C229,4,242.3,0,256,0c24.5,0,47.1,12.9,59.6,33.6c10.3-5.6,21.9-8.6,33.6-8.6c12.2,0,24.2,3.2,34.8,9.3c3.4,2,6.7,4.3,9.7,6.8
		c3.2,2.6,3.6,7.4,1,10.6c-2.6,3.2-7.4,3.6-10.6,1c-2.4-2-5-3.8-7.7-5.3c-8.3-4.8-17.7-7.3-27.3-7.3c-11.5,0-22.9,3.7-32.1,10.4
		c-1.8,1.3-4.2,1.8-6.3,1.2c-2.2-0.6-4-2.1-4.9-4.2C297.1,27.7,277.5,15,256,15c-10.7,0-21.1,3.1-30.1,9
		c-8.7,5.7-15.6,13.8-19.8,23.3c-0.9,2.1-2.7,3.6-4.9,4.2c-2.2,0.6-4.5,0.2-6.3-1.2c-17.4-12.6-40.8-13.8-59.4-3.1
		c-16.9,9.7-27.3,27.9-27.3,47.4c0,1.9,0.1,3.8,0.3,5.5c0.2,2.2-0.6,4.5-2.2,6.1s-3.8,2.4-6.1,2.2c-21.4-2.2-42.2,8.4-53,27
		c-4.8,8.3-7.3,17.7-7.3,27.2c0,11.5,3.7,22.9,10.4,32.1c1.3,1.8,1.8,4.2,1.2,6.3s-2.1,4-4.2,4.9C27.7,214.9,15,234.5,15,256
		c0,10.7,3.1,21.1,9,30.1c5.8,8.7,13.8,15.6,23.3,19.8c2.1,0.9,3.6,2.7,4.2,4.9c0.6,2.2,0.2,4.5-1.2,6.3
		c-12.6,17.4-13.8,40.8-3.1,59.4c9.7,16.9,27.9,27.3,47.4,27.3c1.9,0,3.8-0.1,5.5-0.3c2.2-0.2,4.5,0.6,6.1,2.2
		c1.6,1.6,2.4,3.8,2.2,6.1c-2.2,21.4,8.4,42.2,27,53c8.3,4.8,17.7,7.3,27.2,7.3c11.5,0,22.9-3.7,32.1-10.4c1.8-1.3,4.2-1.8,6.3-1.2
		c2.2,0.6,4,2.1,4.9,4.2c8.8,19.6,28.4,32.3,49.9,32.3c10.7,0,21.1-3.1,30.1-9c8.7-5.7,15.6-13.8,19.8-23.3c0.9-2.1,2.7-3.6,4.9-4.2
		c2.2-0.6,4.5-0.2,6.3,1.2c17.4,12.6,40.8,13.8,59.4,3.1c16.9-9.7,27.3-27.9,27.3-47.4c0-1.9-0.1-3.8-0.3-5.5
		c-0.2-2.2,0.6-4.5,2.2-6.1s3.8-2.4,6.1-2.2c21.4,2.2,42.2-8.4,53-27c4.8-8.3,7.3-17.7,7.3-27.2c0-11.5-3.7-22.9-10.4-32.1
		c-1.3-1.8-1.8-4.2-1.2-6.3s2.1-4,4.2-4.9c19.6-8.8,32.3-28.4,32.3-49.9c0-10.7-3.1-21.1-9-30.1c-5.8-8.7-13.8-15.6-23.3-19.8
		c-2.1-0.9-3.6-2.7-4.2-4.9c-0.6-2.2-0.2-4.5,1.2-6.3c12.6-17.4,13.8-40.8,3.1-59.4c-9.7-16.9-27.9-27.3-47.4-27.3
		c-1.9,0-3.8,0.1-5.5,0.3c-2.2,0.2-4.5-0.6-6.1-2.2c-1.6-1.6-2.4-3.8-2.2-6.1c0.9-9-0.4-18.2-3.9-26.6c-1.6-3.8,0.2-8.2,4.1-9.8
		c3.8-1.6,8.2,0.2,9.8,4.1c3.3,8,5.1,16.6,5.3,25.3c24.3,0.5,46.8,13.8,58.9,34.8c12.3,21.2,12.3,47.2,0.7,68.4
		c8.8,5.3,16.4,12.6,22.1,21.3C508,229,512,242.3,512,256c0,24.5-12.9,47.1-33.6,59.6c5.6,10.3,8.6,21.9,8.6,33.6
		c0,12.2-3.2,24.2-9.3,34.8c-12.3,21.2-34.8,34.3-58.9,34.8c-0.5,24.3-13.8,46.7-34.8,58.9c-21.2,12.3-47.2,12.3-68.4,0.7
		c-5.3,8.8-12.6,16.4-21.3,22.1C283,508,269.7,512,256,512L256,512z"/>
	<path class="st0" d="M259.4,446.9c-71.7,0-136.8-39.6-169.7-103.4c-1.9-3.7-0.5-8.2,3.2-10.1c3.7-1.9,8.2-0.5,10.1,3.2
		c30.4,58.8,90.3,95.3,156.4,95.3c97,0,175.9-78.9,175.9-175.9S356.4,80.1,259.4,80.1S83.5,159,83.5,256c0,18.5,2.9,36.8,8.5,54.2
		c1.3,3.9-0.9,8.2-4.8,9.4c-3.9,1.3-8.2-0.9-9.4-4.8c-6.1-18.9-9.2-38.7-9.2-58.8c0-105.3,85.6-190.9,190.9-190.9
		S450.3,150.7,450.3,256S364.7,446.9,259.4,446.9L259.4,446.9z"/>
	<path class="st0" d="M201.7,364.9c-6.8,0-13.6-2.6-18.8-7.8l-24.7-24.7c-10.4-10.4-10.4-27.2,0-37.6l38.9-38.9l-38.9-38.9
		c-10.4-10.4-10.4-27.2,0-37.6l24.7-24.7c10.4-10.4,27.2-10.4,37.6,0l38.9,38.9l38.9-38.9c10.4-10.4,27.2-10.4,37.6,0l24.7,24.7
		c5,5,7.8,11.7,7.8,18.8s-2.8,13.8-7.8,18.8L321.7,256l38.9,38.9c5,5,7.8,11.7,7.8,18.8s-2.8,13.8-7.8,18.8l-24.7,24.7
		c-10.4,10.4-27.2,10.4-37.6,0l-38.9-38.9l-38.9,38.9C215.3,362.3,208.5,364.9,201.7,364.9z M201.7,162.1c-3,0-5.9,1.1-8.2,3.4
		l-24.7,24.7c-4.5,4.5-4.5,11.9,0,16.4l44.2,44.2c1.4,1.4,2.2,3.3,2.2,5.3c0,2-0.8,3.9-2.2,5.3l-44.2,44.2c-4.5,4.5-4.5,11.9,0,16.4
		l24.7,24.7c4.5,4.5,11.9,4.5,16.4,0l44.2-44.2c2.9-2.9,7.7-2.9,10.6,0l44.2,44.2c4.5,4.5,11.9,4.5,16.4,0l24.7-24.7
		c2.2-2.2,3.4-5.1,3.4-8.2c0-3.1-1.2-6-3.4-8.2l-44.2-44.2c-2.9-2.9-2.9-7.7,0-10.6l44.2-44.2c2.2-2.2,3.4-5.1,3.4-8.2
		s-1.2-6-3.4-8.2l-24.7-24.7c-4.5-4.5-11.9-4.5-16.4,0l-44.2,44.2c-2.9,2.9-7.7,2.9-10.6,0l-44.2-44.2
		C207.7,163.2,204.7,162.1,201.7,162.1L201.7,162.1z"/>
</g>
</svg>
