<?xml version="1.0" encoding="utf-8"?>
<!-- Generator: Adobe Illustrator 22.1.0, SVG Export Plug-In . SVG Version: 6.00 Build 0)  -->
<svg version="1.1" id="Livello_1" xmlns="http://www.w3.org/2000/svg" xmlns:xlink="http://www.w3.org/1999/xlink" x="0px" y="0px"
	 viewBox="0 0 107.6 98.4" style="enable-background:new 0 0 107.6 98.4;" xml:space="preserve">
<style type="text/css">
	.st0{fill:#C78665;}
</style>
<path class="st0" d="M75.5,0c-9.3,0-16.2,3.7-21.8,8.2C47.8,3.4,41.3,0,32,0C14.3,0,0,14.5,0,32.4c0,8.1,2.5,13.1,4.1,16.4L4.2,49
	c6.6,13.4,38.3,40.1,44.6,45.3l5,4.1l5-4.1c6.3-5.2,38.3-32,44.6-45.4l0.2-0.4c1.6-3.4,4-8.4,4-16.1C107.6,14.5,93.2,0,75.5,0z
	 M89.4,43.1l-0.2,0.4c-3.3,7-21.8,24.2-35.4,35.8c-13.6-11.6-32-28.8-35.5-35.9l-0.1-0.2c-1.3-2.7-2.5-5-2.5-9.4
	c0-9.4,7.2-16.7,16.3-16.7c6.3,0,10,2.8,16.4,8.8l5.4,5.1l5.4-5.2c6-5.8,10.2-8.7,16.3-8.7c9.2,0,16.4,7.3,16.4,16.7
	C91.9,37.9,90.7,40.4,89.4,43.1z"/>
</svg>
