<?xml version="1.0" encoding="utf-8"?>
<!-- Generator: Adobe Illustrator 22.1.0, SVG Export Plug-In . SVG Version: 6.00 Build 0)  -->
<svg version="1.1" id="Capa_1" xmlns="http://www.w3.org/2000/svg" xmlns:xlink="http://www.w3.org/1999/xlink" x="0px" y="0px"
	 viewBox="0 0 512 512" style="enable-background:new 0 0 512 512;" xml:space="preserve">
<style type="text/css">
	.st0{fill:#C78665;}
</style>
<g>
	<g>
		<path class="st0" d="M308.9,88.7c-12-12-25.6-21.8-40.7-29.3c-3.8-1.9-8.4-0.3-10.3,3.5s-0.3,8.4,3.5,10.3
			c13.5,6.7,25.9,15.6,36.6,26.4c54.5,54.5,54.5,143.3,0,197.8c-26.4,26.4-61.5,41-98.9,41c-37.4,0-72.5-14.5-98.9-41
			c-26.4-26.4-41-61.5-41-98.9s14.6-72.5,41-98.9c15.9-15.9,34.8-27.5,56.1-34.3c20.3-6.5,42.3-8.3,63.5-5.1
			c4.2,0.6,8.1-2.3,8.7-6.5s-2.3-8.1-6.5-8.7c-23.5-3.5-47.8-1.5-70.4,5.7c-23.3,7.5-44.9,20.6-62.3,38.1
			C60.1,118,43.9,157,43.9,198.5s16.1,80.4,45.5,109.8c29.3,29.3,68.3,45.5,109.8,45.5c41.5,0,80.4-16.1,109.8-45.5
			C369.4,247.7,369.4,149.2,308.9,88.7z"/>
	</g>
</g>
<g>
	<g>
		<path class="st0" d="M499.8,441.3L365.5,307c23.9-36.7,34.9-80.8,31.3-124.8c-3.9-46.7-24.3-90.7-57.5-123.9
			C301.6,20.8,251.7,0,198.8,0c0,0,0,0,0,0c-53,0-102.9,20.7-140.5,58.4c-77.5,77.5-77.5,203.5,0,281
			c33.2,33.2,77.2,53.6,123.9,57.5c44,3.7,88-7.4,124.8-31.3l134.3,134.3c8.1,8.1,18.7,12.1,29.3,12.1s21.2-4,29.3-12.1
			C515.9,483.7,515.9,457.5,499.8,441.3z M488.9,489c-10.2,10.2-26.7,10.2-36.9,0L313.3,350.3c-1.5-1.5-3.5-2.2-5.4-2.2
			c-1.5,0-3.1,0.5-4.4,1.4c-34.8,24.3-77.5,35.7-120.1,32.2c-43.1-3.6-83.7-22.4-114.3-53.1C-2.4,257-2.4,140.7,69.1,69.2
			c34.7-34.7,80.8-53.9,129.6-53.9c0,0,0,0,0,0c48.9,0,94.9,19.2,129.7,53.9c30.6,30.6,49.4,71.2,53,114.3
			c3.5,42.5-7.8,85.1-32,119.9c-5.2,6.4-19.6,23.7-26.7,29.8c-3.2,2.8-3.5,7.6-0.8,10.8c1.5,1.8,3.7,2.6,5.8,2.6
			c1.8,0,3.6-0.6,5-1.9c6.5-5.6,17-17.8,23.3-25.4l132.8,132.8C499.1,462.3,499.1,478.9,488.9,489z"/>
	</g>
</g>
</svg>
