<?xml version="1.0" encoding="utf-8"?>
<!-- Generator: Adobe Illustrator 22.1.0, SVG Export Plug-In . SVG Version: 6.00 Build 0)  -->
<svg version="1.1" id="Layer_1" xmlns="http://www.w3.org/2000/svg" xmlns:xlink="http://www.w3.org/1999/xlink" x="0px" y="0px"
	 viewBox="0 0 416.6 512" style="enable-background:new 0 0 416.6 512;" xml:space="preserve">
<style type="text/css">
	.st0{fill:#C78665;}
</style>
<g>
	<g>
		<path class="st0" d="M406.2,288.2l-2.5-2.7l-30.7-31.2V144l-67.1-67.1H53.2v177.4l-30.6,31l-0.1,0.1c-1.4,1.5-2.1,3.4-2.1,5.3
			h-0.1V512h385.5V290.8l0,0L406.2,288.2z M372.9,276.1l12.9,13.1l-12.9,7.4V276.1z M310.3,103l36.5,36.5h-36.5V103z M68.5,238.8
			V92.2H295v62.6h62.6v84v66.5l-144.6,83.4L68.5,305.4V238.8z M53.2,276.1v20.5l-12.9-7.4L53.2,276.1z M35.6,304.1l162.2,93.5
			L35.6,491.1V304.1z M56.5,496.7l156.6-90.3l156.6,90.3L56.5,496.7L56.5,496.7z M390.5,491.1l-162.2-93.5l162.2-93.5V491.1z"/>
	</g>
</g>
<g>
	<g>
		<polygon class="st0" points="242.6,0.1 235,7.7 227.3,0 216.5,10.8 235,29.3 253.4,10.9 		"/>
	</g>
</g>
<g>
	<g>
		<polygon class="st0" points="405.8,60 398.2,67.6 390.5,59.9 379.7,70.7 398.2,89.2 416.6,70.8 		"/>
	</g>
</g>
<g>
	<g>
		<polygon class="st0" points="26,128.5 18.5,136.1 10.8,128.5 0,139.3 18.5,157.7 36.8,139.3 		"/>
	</g>
</g>
<g>
	<g>
		<path class="st0" d="M239.3,179.8c-10,0-19.4,4-26.3,10.8c-6.9-6.8-16.3-10.8-26.3-10.8c-20.3,0-36.9,16.7-36.9,37.3
			c0,9.4,2.7,14.9,4.7,19l0.1,0.2c8,16.2,48.8,50.3,53.4,54.2l4.9,4l4.9-4c4.7-3.8,45.8-38.1,53.5-54.3l0.2-0.4
			c1.9-3.9,4.7-9.8,4.7-18.7C276.3,196.5,259.7,179.8,239.3,179.8z M257.8,229.2l-0.2,0.4c-4.3,9-27.8,30.8-44.6,45
			c-16.6-14.2-40.1-36-44.6-45.1l-0.1-0.2c-1.6-3.3-3.2-6.4-3.2-12.2c0-12.4,9.5-22.1,21.6-22.1c8.2,0,15.7,4.5,19.5,11.8l6.8,12.9
			l6.8-12.9c3.8-7.3,11.3-11.8,19.5-11.8c12.2,0,21.7,9.7,21.7,22.1C261,222.5,259.4,225.9,257.8,229.2z"/>
	</g>
</g>
</svg>
