<?xml version="1.0" encoding="utf-8"?>
<!-- Generator: Adobe Illustrator 22.1.0, SVG Export Plug-In . SVG Version: 6.00 Build 0)  -->
<svg version="1.1" id="Livello_1" xmlns="http://www.w3.org/2000/svg" xmlns:xlink="http://www.w3.org/1999/xlink" x="0px" y="0px"
	 viewBox="0 0 425.2 425.2" style="enable-background:new 0 0 425.2 425.2;" xml:space="preserve">
<style type="text/css">
	.st0{fill:#121F38;}
</style>
<path class="st0" d="M219.8,19.9c1.8,0.5,3.5,1,5.3,1.4c22.5,5.4,37.7,25.8,36.6,49.3c-1.1,22.5-18.4,41.4-40.8,44.6
	c-26,3.7-50.6-13.9-54.3-39.1c-4.1-27.3,12.9-51.1,39.6-55.6c0.6-0.1,1.1-0.4,1.7-0.7C211.8,19.9,215.8,19.9,219.8,19.9z"/>
<path class="st0" d="M207.8,403.9c-1.8-0.5-3.5-1-5.3-1.4c-24.7-5.9-40.1-29.6-35.9-55.3c3.9-23.7,26.6-41.1,51-39.2
	c23.9,1.9,43.1,21.5,44.2,45.1c1.2,24.7-15.8,46-39.9,50c-0.7,0.1-1.4,0.5-2,0.7C215.8,403.9,211.8,403.9,207.8,403.9z"/>
<path class="st0" d="M213.7,164c26.5,0,48,21.3,48.1,47.8c0.1,26.6-21.5,48.2-48.1,48.2c-26.5-0.1-47.9-21.5-47.9-48
	C165.8,185.5,187.2,164,213.7,164z"/>
</svg>
