<?xml version="1.0" encoding="utf-8"?>
<!-- Generator: Adobe Illustrator 22.1.0, SVG Export Plug-In . SVG Version: 6.00 Build 0)  -->
<svg version="1.1" id="Livello_1" xmlns="http://www.w3.org/2000/svg" xmlns:xlink="http://www.w3.org/1999/xlink" x="0px" y="0px"
	 viewBox="0 0 327.9 419.8" style="enable-background:new 0 0 327.9 419.8;" xml:space="preserve">
<style type="text/css">
	.st0{fill:#C78664;}
	.st1{fill:#FFFFFF;}
</style>
<path class="st0" d="M0,164C0,73.6,73.6,0,164,0c90.4,0,164,73.6,164,164c0,64.5-37.3,127.2-78.5,176.5
	c-38.2,45.6-75.8,75.3-77.4,76.5c-4.7,3.7-11.4,3.7-16.2,0c-1.6-1.2-39.2-30.9-77.4-76.5C37.3,291.2,0,228.5,0,164z"/>
<path class="st1" d="M164,90c-12.3-9.3-27.5-14.4-43.4-14.4c-39.1,0-70.8,30.9-70.8,68.8c0,74.3,104.5,117.2,108.9,119
	c3.4,1.4,7.3,1.4,10.7,0c4.4-1.8,108.9-44.6,108.9-119C278.2,86.9,210,55.3,164,90z"/>
</svg>
