<?xml version="1.0" encoding="utf-8"?>
<!-- Generator: Adobe Illustrator 22.1.0, SVG Export Plug-In . SVG Version: 6.00 Build 0)  -->
<svg version="1.1" id="Capa_1" xmlns="http://www.w3.org/2000/svg" xmlns:xlink="http://www.w3.org/1999/xlink" x="0px" y="0px"
	 viewBox="0 0 512 512" style="enable-background:new 0 0 512 512;" xml:space="preserve">
<style type="text/css">
	.st0{fill:#C78665;}
</style>
<g>
	<path class="st0" d="M256,512c-24.5,0-47.1-12.9-59.6-33.6c-10.3,5.6-21.9,8.6-33.6,8.6c-12.2,0-24.2-3.2-34.8-9.3
		c-21.2-12.3-34.3-34.8-34.8-58.9C68.9,418.3,46.4,405,34.3,384C22,362.8,22,336.8,33.6,315.6c-8.8-5.3-16.4-12.6-22.1-21.3
		C4,283,0,269.7,0,256c0-24.5,12.9-47.1,33.6-59.6C28,186.1,25,174.5,25,162.8c0-6.5,0.9-13,2.8-19.3c1.2-4,5.3-6.3,9.3-5.1
		c4,1.2,6.3,5.3,5.1,9.3c-1.4,4.9-2.2,10-2.2,15.1c0,11.5,3.7,22.9,10.4,32.1c1.3,1.8,1.8,4.2,1.2,6.3s-2.1,4-4.2,4.9
		C27.7,214.9,15,234.5,15,256c0,10.7,3.1,21.1,9,30.1c5.8,8.7,13.8,15.6,23.3,19.8c2.1,0.9,3.6,2.7,4.2,4.9c0.6,2.2,0.2,4.5-1.2,6.3
		c-12.6,17.4-13.8,40.8-3.1,59.4c9.7,16.9,27.9,27.3,47.4,27.3c1.9,0,3.8-0.1,5.5-0.3c2.2-0.2,4.5,0.6,6.1,2.2
		c1.6,1.6,2.4,3.8,2.2,6.1c-2.2,21.4,8.4,42.2,27,53c8.3,4.8,17.7,7.3,27.2,7.3c11.5,0,22.9-3.7,32.1-10.4c1.8-1.3,4.2-1.8,6.3-1.2
		c2.2,0.6,4,2.1,4.9,4.2c8.8,19.6,28.4,32.3,49.9,32.3c10.7,0,21.1-3.1,30.1-9c8.7-5.7,15.6-13.8,19.8-23.3c0.9-2.1,2.7-3.6,4.9-4.2
		c2.2-0.6,4.5-0.2,6.3,1.2c17.4,12.6,40.8,13.8,59.4,3.1c16.9-9.7,27.3-27.9,27.3-47.4c0-1.9-0.1-3.8-0.3-5.5
		c-0.2-2.2,0.6-4.5,2.2-6.1s3.8-2.4,6.1-2.2c21.4,2.2,42.2-8.4,53-27c4.8-8.3,7.3-17.7,7.3-27.2c0-11.5-3.7-22.9-10.4-32.1
		c-1.3-1.8-1.8-4.2-1.2-6.3s2.1-4,4.2-4.9c19.6-8.8,32.3-28.4,32.3-49.9c0-10.7-3.1-21.1-9-30.1c-5.8-8.7-13.8-15.6-23.3-19.8
		c-2.1-0.9-3.6-2.7-4.2-4.9c-0.6-2.2-0.2-4.5,1.2-6.3c12.6-17.4,13.8-40.8,3.1-59.4c-9.7-16.9-27.9-27.3-47.4-27.3
		c-1.9,0-3.8,0.1-5.5,0.3c-2.2,0.2-4.5-0.6-6.1-2.2c-1.6-1.6-2.4-3.8-2.2-6.1c2.2-21.4-8.4-42.2-27-53c-8.3-4.8-17.7-7.3-27.2-7.3
		c-11.5,0-22.9,3.7-32.1,10.4c-1.8,1.3-4.2,1.8-6.3,1.2c-2.2-0.6-4-2.1-4.9-4.2C297.1,27.7,277.5,15,256,15c-10.7,0-21.1,3.1-30.1,9
		c-8.7,5.7-15.6,13.8-19.8,23.3c-0.9,2.1-2.7,3.6-4.9,4.2c-2.2,0.6-4.5,0.2-6.3-1.2c-17.4-12.6-40.8-13.8-59.4-3.1
		c-16.9,9.7-27.3,27.9-27.3,47.4c0,1.9,0.1,3.8,0.3,5.5c0.2,2.2-0.6,4.5-2.2,6.1c-1.6,1.6-3.8,2.4-6.1,2.2
		c-16.6-1.7-33.5,4.5-45,16.5c-2.9,3-7.6,3.1-10.6,0.2s-3.1-7.6-0.2-10.6c12.7-13.3,30.5-20.9,48.8-21.4
		C93.7,68.9,107,46.4,128,34.3c21.2-12.3,47.2-12.3,68.4-0.7c5.3-8.8,12.6-16.4,21.3-22.1C229,4,242.3,0,256,0
		c24.5,0,47.1,12.9,59.6,33.6c10.3-5.6,21.9-8.6,33.6-8.6c12.2,0,24.2,3.2,34.8,9.3c21.2,12.3,34.3,34.8,34.8,58.9
		c24.3,0.5,46.7,13.8,58.9,34.8c12.3,21.2,12.3,47.2,0.7,68.4c8.8,5.3,16.4,12.6,22.1,21.3C508,229,512,242.3,512,256
		c0,24.5-12.9,47.1-33.6,59.6c5.6,10.3,8.6,21.9,8.6,33.6c0,12.2-3.2,24.2-9.3,34.8c-12.3,21.2-34.8,34.3-58.9,34.8
		c-0.5,24.3-13.8,46.7-34.8,58.9c-21.2,12.3-47.2,12.3-68.4,0.7c-5.3,8.8-12.6,16.4-21.3,22.1C283,508,269.7,512,256,512L256,512z"
		/>
	<path class="st0" d="M259.4,446.9c-105.3,0-190.9-85.6-190.9-190.9S154.1,65.1,259.4,65.1S450.3,150.7,450.3,256
		S364.7,446.9,259.4,446.9L259.4,446.9z M259.4,80.1c-97,0-175.9,78.9-175.9,175.9s78.9,175.9,175.9,175.9S435.3,353,435.3,256
		S356.4,80.1,259.4,80.1L259.4,80.1z"/>
	<path class="st0" d="M222.5,381.2c-9.6,0-18.6-5.1-23.6-13.4L140,269.3c-7.8-13-3.5-30,9.5-37.8l29.7-17.8
		c6.3-3.8,13.7-4.9,20.8-3.1c7.1,1.8,13.1,6.3,16.9,12.6l22.8,38.2L295,149.9c6.8-13.6,23.3-19.2,36.9-12.4l31,15.4
		c6.6,3.3,11.5,8.9,13.9,15.9s1.8,14.4-1.4,21l-21.7,43.8c-1.8,3.7-6.3,5.2-10.1,3.4c-3.7-1.8-5.2-6.3-3.4-10.1l21.7-43.8
		c1.5-3,1.7-6.4,0.7-9.6c-1.1-3.2-3.3-5.7-6.3-7.2l-31-15.4c-6.2-3.1-13.7-0.5-16.8,5.7l-61.4,123.8c-2.4,5.2-10.4,5.5-13.2,0.5
		L204,231c-1.7-2.9-4.5-4.9-7.7-5.7s-6.6-0.3-9.5,1.4l-29.7,17.8c-5.9,3.5-7.9,11.3-4.3,17.2l58.9,98.5c2.4,3.9,6.7,6.3,11.2,6.1
		l41.8-1.6c4.6-0.2,8.7-2.8,10.7-6.9l51.5-103.8c1.8-3.7,6.3-5.2,10.1-3.4c3.7,1.8,5.2,6.3,3.4,10.1l-51.5,103.8
		c-4.5,9-13.5,14.9-23.6,15.3l-41.8,1.6C223.2,381.2,222.8,381.2,222.5,381.2L222.5,381.2z"/>
</g>
</svg>
