<?xml version="1.0" encoding="utf-8"?>
<!-- Generator: Adobe Illustrator 22.1.0, SVG Export Plug-In . SVG Version: 6.00 Build 0)  -->
<svg version="1.1" id="Layer_1" xmlns="http://www.w3.org/2000/svg" xmlns:xlink="http://www.w3.org/1999/xlink" x="0px" y="0px"
	 viewBox="0 0 512 512" style="enable-background:new 0 0 512 512;" xml:space="preserve">
<style type="text/css">
	.st0{fill:#C78664;}
</style>
<g>
	<g>
		<path class="st0" d="M367,182.2c17.8-13.6,29.4-35.1,29.4-59.2c0-41.1-33.4-74.5-74.5-74.5c-29.3,0-54.7,17-66.9,41.7
			c-12.2-24.7-37.6-41.7-66.9-41.7c-41.1,0-74.5,33.4-74.5,74.5c0,24.1,11.5,45.6,29.4,59.2H52.3V264h12.4v248h149.4h15.3h51.3h15.3
			h149.4V264h12.4v-81.8L367,182.2L367,182.2z M214.1,496.7H80V264h134.1L214.1,496.7L214.1,496.7z M214.1,248.7H67.6v-51.3h120.5
			h26L214.1,248.7L214.1,248.7z M214.1,182.2h-26c-32.7,0-59.2-26.6-59.2-59.2s26.6-59.2,59.2-59.2c32.7,0,59.2,26.6,59.2,59.2v59.2
			h-18H214.1z M280.6,248.7V264v232.7h-51.3V264v-15.3v-51.3h18h15.3h18L280.6,248.7L280.6,248.7z M280.6,182.2h-18V123
			c0-32.7,26.6-59.2,59.2-59.2c32.7,0,59.2,26.6,59.2,59.2s-26.6,59.2-59.2,59.2h-26H280.6z M430,496.7L430,496.7H295.9V264H430
			L430,496.7L430,496.7z M442.4,248.7H295.9v-51.3h26h120.5L442.4,248.7L442.4,248.7z"/>
	</g>
</g>
<g>
	<g>
		<rect x="405.4" y="429.3" class="st0" width="15.3" height="16.9"/>
	</g>
</g>
<g>
	<g>
		<polygon class="st0" points="405.4,456.5 405.4,475 376.5,475 376.5,490.3 420.7,490.3 420.7,456.5 		"/>
	</g>
</g>
<g>
	<g>
		<rect x="88.8" y="313.1" class="st0" width="15.3" height="71.6"/>
	</g>
</g>
<g>
	<g>
		<rect x="88.8" y="277.8" class="st0" width="15.3" height="25.1"/>
	</g>
</g>
<g>
	<g>
		<polygon class="st0" points="458.7,100.8 451.1,108.4 443.4,100.7 432.6,111.5 451.1,130 469.5,111.6 		"/>
	</g>
</g>
<g>
	<g>
		<polygon class="st0" points="68.6,60.7 61,68.3 53.3,60.7 42.5,71.5 61,89.9 79.4,71.5 		"/>
	</g>
</g>
<g>
	<g>
		<polygon class="st0" points="242.4,0.1 234.8,7.7 227.1,0 216.3,10.8 234.8,29.3 253.2,10.9 		"/>
	</g>
</g>
</svg>
