<?xml version="1.0" encoding="utf-8"?>
<!-- Generator: Adobe Illustrator 22.1.0, SVG Export Plug-In . SVG Version: 6.00 Build 0)  -->
<svg version="1.1" id="Layer_1" xmlns="http://www.w3.org/2000/svg" xmlns:xlink="http://www.w3.org/1999/xlink" x="0px" y="0px"
	 viewBox="0 0 512 443" style="enable-background:new 0 0 512 443;" xml:space="preserve">
<style type="text/css">
	.st0{fill:#C78665;}
</style>
<g>
	<g>
		<path class="st0" d="M256.7,52.3C149,52.3,61.4,139.9,61.4,247.7C61.4,355.4,149,443,256.7,443c107.7,0,195.3-87.6,195.3-195.3
			S364.5,52.3,256.7,52.3z M256.7,427.8c-99.3,0-180.1-80.8-180.1-180.1S157.4,67.5,256.7,67.5c99.3,0,180.1,80.8,180.1,180.1
			S356.1,427.8,256.7,427.8z"/>
	</g>
</g>
<g>
	<g>
		<path class="st0" d="M256.7,121.4c-69.6,0-126.2,56.6-126.2,126.2c0,11.2,1.5,22.4,4.4,33.1l14.7-4c-2.6-9.4-3.9-19.2-3.9-29.1
			c0-61.2,49.8-111,111-111c17.8,0,34.8,4.1,50.6,12.2l6.9-13.5C296.4,126.1,277,121.4,256.7,121.4z"/>
	</g>
</g>
<g>
	<g>
		<path class="st0" d="M156.8,295.9l-13.7,6.6c8,16.5,19.7,31.3,34,43l9.6-11.8C174.1,323.5,163.8,310.4,156.8,295.9z"/>
	</g>
</g>
<g>
	<g>
		<path class="st0" d="M333.7,147.6l-9.3,12c27.5,21.2,43.3,53.3,43.3,88c0,61.2-49.8,111-111,111c-21.8,0-42.9-6.3-61-18.2
			l-8.4,12.7c20.6,13.6,44.6,20.8,69.4,20.8c69.6,0,126.2-56.6,126.2-126.2C383,208.2,365,171.7,333.7,147.6z"/>
	</g>
</g>
<g>
	<g>
		<path class="st0" d="M63.9,13.6v88.1H47.2V13.6H32v88.1H15.2V13.6H0v88.1v13.1v2.1h0.1c1,18.3,14.4,33.3,31.9,36.7v281.8h15.2
			V153.6c17.5-3.4,31-18.5,31.9-36.7h0.1v-2.1v-13.1V13.6H63.9z M39.6,139.1c-12.7,0-23.2-9.8-24.3-22.3h48.6
			C62.8,129.3,52.3,139.1,39.6,139.1z"/>
	</g>
</g>
<g>
	<g>
		<path class="st0" d="M499.3,7.7c-22.5,13.7-36.5,38.6-36.5,65v166.4h33.9v196.3H512V239.1v-92.4V0L499.3,7.7z M496.8,146.7v77.2
			h-18.7V72.7c0-16.6,6.9-32.5,18.7-43.9V146.7z"/>
	</g>
</g>
</svg>
