<?xml version="1.0" encoding="utf-8"?>
<!-- Generator: Adobe Illustrator 22.1.0, SVG Export Plug-In . SVG Version: 6.00 Build 0)  -->
<svg version="1.1" id="Livello_1" xmlns="http://www.w3.org/2000/svg" xmlns:xlink="http://www.w3.org/1999/xlink" x="0px" y="0px"
	 viewBox="0 0 425.2 425.2" style="enable-background:new 0 0 425.2 425.2;" xml:space="preserve">
<style type="text/css">
	.st0{fill:#C78665;}
</style>
<path class="st0" d="M284.8,351.1c-0.2,3-0.8,5.7-0.5,8.3c0.2,1.8,0.2,3.7,1.1,5.4c0.5,1,0.6,2.1,1,3.2c0.4,1,0.9,1.9,1.3,2.8
	c0.3,0.7,0.5,1.4,0.7,2.1c0.4,1.3,0.7,2.7,1.2,4c1,2.7,0.8,5.5,0.8,8.2c0.1,3,0.3,6.1-0.3,9.1c-0.3,1.5-0.1,3.3-1.2,4.8
	c-0.6,0.8-0.6,2.1-1,3.2c-0.4,1-1,2-1.4,3.1c-0.4,1-0.5,2.1-1,3c-0.7,1.4-0.7,2.8-0.8,4.3c-0.2,1.5-0.6,2.9-0.9,4.5
	c-3.8,0-7.7,0-11.7,0c0-2.2-0.3-4.4,0.1-6.4c0.3-1.3,0.4-2.5,0.7-3.8c0.2-1.1,0.8-2.2,1.2-3.2c0.4-1.1,0.8-2.2,1.2-3.4
	c0.2-0.7,0.5-1.3,0.8-2c0.5-1,1-2,1.4-3c0.1-0.1,0.1-0.2,0.1-0.3c0.3-2.2,0.6-4.4,0.8-6.6c0.1-1.7,0.3-3.4-0.1-5
	c-0.3-1.7-0.4-3.4-1.2-5c-0.5-1-0.7-2.1-1.1-3.2c-0.4-1-0.9-2-1.3-3c-0.4-0.8-0.7-1.7-0.9-2.5c-0.3-0.9-0.6-1.7-0.8-2.6
	c-0.5-3.7-1.2-7.5-1-11.3c0-0.5,0-1.1,0-1.7c-1.1,0-2.2,0-3.2,0c-2.3,0.1-4.5,0.1-6.6-0.9c-1.9-1-3.4-2.2-4.7-4
	c-1.9-2.8-2.5-5.9-2.2-9.2c0.1-0.8,0.9-3.6,1.4-4.6c0.4-0.8,0.5-1.7,1-2.4c0.9-1.3,1.5-2.8,2.9-3.9c0.3-0.2,0.3-1.3,0.1-1.5
	c-0.7-0.6-1.7-1.1-2.5-1.6c-1.5-1-2.9-2.2-4.6-2.9c-1.9-0.8-3.2-2.3-4.8-3.5c-2.5-1.9-5.1-3.7-7.2-6.2c-1.8-2.1-4-3.8-6-5.8
	c-1-1.1-1.8-2.3-2.8-3.5c-1.5-1.8-3-3.5-4.4-5.3c-0.4-0.5-0.7-1-1.1-1.5c-1.5-2.2-3.1-4.4-4.6-6.7c-1-1.6-1.8-3.3-2.7-4.9
	c-0.6-1-1.3-1.9-1.8-3c-0.8-1.3-1.5-2.7-2.2-4.1c-0.6-1.2-1.3-2.4-1.9-3.7c-0.4-0.9-0.8-1.8-1.2-2.6c-0.3-0.6-0.6-1.2-0.9-1.8
	c-0.7-1.5-1.5-3-2.2-4.6c-0.4-0.8-0.6-1.7-1-2.6c-0.4-1.1-0.9-2.2-1.3-3.3c-0.3-0.8-0.6-1.6-0.9-2.4c-0.3-1.1-0.6-2.3-1-3.4
	c-0.5-1.4-1.1-2.7-1.7-4.2c-2.5,2.2-4.8,4.2-7.2,6.1c-1.6,1.2-3.3,2.3-4.9,3.4c-1.5,1-3.1,2.1-4.7,3.1c-1.2,0.7-2.5,1.2-3.8,1.8
	c-1,0.4-1.4,1.5-0.6,2.2c1.4,1.3,2.2,3,3.1,4.6c0.8,1.6,1.4,3.2,1.5,5c0.1,0.7,0.5,1.5,0.5,2.2c-0.1,2-0.6,3.9-1.1,5.8
	c-0.9,2.9-3.1,4.6-5.2,6.3c-0.8,0.7-2.1,0.9-3.3,1.2c-1.3,0.3-2.7,0.9-3.9,0.6c-2.4-0.5-5-0.5-7.2-2c-1-0.7-2.2-1.2-3.4-1.8
	c-0.3-0.2-0.7-0.2-1-0.2c-1.7,3.5-1.3,7.2-1,10.8c0.2,1.7,1.1,3.4,1.8,5c0.8,1.6,1.9,3.1,2.8,4.7c1.1,1.9,2.1,3.9,3.2,5.9
	c0.1,0.1,0.1,0.2,0.1,0.3c0.3,1.8,0.5,3.6,1,5.4c0.8,2.8,0.6,5.5,0.4,8.3c-0.1,1.7-0.2,3.4-0.8,4.9c-0.7,1.8-0.8,3.8-2.1,5.4
	c-1.1,1.5-1.7,3.4-2.7,5.1c-0.9,1.6-1.9,3.1-2.9,4.6c0,0.1,0,0.2-0.1,0.2c-0.9,2.5-1.1,5-1,7.7c0,0.9,0.1,1.8,0.1,2.6
	c0,1.7,0.7,3.1,1.5,4.6c0.9,1.7,1.7,3.4,2.6,5c0.5,1,1.2,1.9,1.7,2.9c0.5,0.8,1,1.7,1.4,2.6c2,4.9,2.8,10,2.3,15.3
	c-0.1,1.7-0.2,3.6-0.8,5.2c-0.6,1.7-0.7,3.6-2.1,5.1c-0.6,0.7-0.6,1.8-1,2.6c-0.5,0.9-1.1,1.8-1.7,2.7c-0.5,0.7-1,1.3-1.4,2.1
	c-0.8,1.6-1.7,3.2-2.2,4.8c-0.4,1.1-0.4,2.4-0.3,3.7c0,1.2-0.4,1.5-1.5,1.5c-3.2-0.1-6.5,0-9.7,0c-0.4,0-0.9-0.1-1.5-0.1
	c0.1-0.9,0.1-1.6,0.2-2.4c0.1-1.1,0.2-2.3,0.5-3.4c0.4-1.8,1-3.6,1.5-5.4c0.5-1.5,1.1-3,1.8-4.4c0.6-1.1,1.4-1.9,2.1-2.9
	c0.4-0.5,0.6-1.2,0.9-1.8c0.8-1.6,1.6-3.2,2.3-4.8c0.1-0.3,0.1-0.6,0.1-0.9c0-3,0.2-5.9-0.1-8.8c-0.1-1.2-0.5-2.5-1.4-3.6
	c-0.8-1-1.1-2.4-1.8-3.6c-0.5-1-1.3-1.8-1.8-2.8c-0.8-1.4-1.5-2.8-2.1-4.2c-0.6-1.3-1-2.7-1.4-4.1c0-0.1-0.1-0.2-0.1-0.3
	c-0.3-2.8-0.8-5.5-0.8-8.3c0-2.1,0.1-4.4,0.8-6.4c0.7-1.9,0.7-4,2-5.8c0.9-1.2,1.2-2.7,1.9-3.9c0.6-1.1,1.4-2,2.1-3.1
	c0.3-0.5,0.6-1.1,0.9-1.7c1-2.1,1.7-4.2,1.9-6.6c0.2-2.4-0.1-4.7-0.3-7.1c-0.1-1-0.8-2-1.3-3c-0.3-0.6-0.7-1.1-0.9-1.7
	c-0.5-1.4-1.3-2.7-2.2-3.9c-0.8-1.1-1.3-2.5-1.9-3.7c-0.4-0.9-0.9-1.8-1.3-2.6c0-0.1-0.1-0.1-0.1-0.2c-0.3-1.6-0.8-3.3-1-4.9
	c-0.4-2.9-0.6-5.9-1-8.9c-0.3,0-0.7-0.1-1,0c-1.6,0.8-3,0.7-4.6,0c-1-0.5-2.1-0.6-3.1-0.9c-1.6-0.6-2.9-1.5-3.9-2.9
	c-0.7-0.9-1.5-1.7-2.1-2.7c-0.5-0.9-1-1.9-1-2.9c-0.1-2.4-0.2-4.8,0-7.2c0.1-1.2,0.8-2.4,1.3-3.5c0.6-1.2,1.2-2.5,1.9-3.7
	c0.2-0.4,0.5-0.8,0.8-1.1c1.1-1.3,1-1.7-0.6-2.5c-2.2-1-4.4-2.1-6.5-3.4c-2.4-1.5-4.8-3.1-7.1-4.8c-2.1-1.6-4-3.5-6.1-5.3
	c-0.8-0.7-1.7-1.2-2.5-1.9c-1.5-1.4-3.1-2.8-4.5-4.3c-1.6-1.6-3-3.4-4.5-5c-1.4-1.5-2.8-2.9-4.1-4.5c-1.5-1.9-2.9-3.9-4.4-5.8
	c-1-1.3-2-2.4-2.9-3.7c-1-1.4-1.8-2.9-2.7-4.3c-1.2-1.9-2.5-3.7-3.7-5.5c-0.6-1-1.2-2-1.8-3c-0.7-1.2-1.5-2.4-2.2-3.6
	c-0.7-1.2-1.2-2.4-1.9-3.6c-0.7-1.3-1.4-2.6-2.1-4c-0.4-0.8-0.7-1.7-1.1-2.5c-0.3-0.6-0.6-1.1-0.9-1.7c-0.8-1.6-1.5-3.1-2.2-4.7
	c-0.6-1.5-1.1-3.2-1.7-4.7c-0.3-0.7-0.6-1.4-0.9-2.1c-0.5-1.2-1-2.5-1.5-3.7c-0.4-1-0.9-2-1.3-3c-0.3-0.8-0.7-1.7-1-2.6
	c-0.4-1.1-0.6-2.3-1-3.4c-0.4-1.2-0.9-2.4-1.4-3.6c0-0.1,0-0.2-0.1-0.2c-0.3-1.5-0.6-3-1-4.5c-0.4-1.5-0.9-2.9-1.4-4.3
	c0-0.1,0-0.2,0-0.2c-0.3-1.6-0.7-3.3-1-4.9c-0.3-1.4-0.3-3-0.9-4.3c-0.6-1.5-0.4-3-0.7-4.5c-0.4-1.9-1-3.7-1.4-5.6
	c-0.2-1.2,0.1-2.5-0.3-3.7c-0.8-2.8-0.2-5.7-0.8-8.3c-1.1-4.6-0.4-9.2-0.8-13.8c-0.1-1.1-0.4-2.3-0.4-3.4c0-1.7,0.3-3.4,0.3-5.1
	c0.1-2,0.1-4.1,0.2-6.1c0.1-1.6-0.3-3.3,0.7-4.8c0.1-0.2,0-0.5,0.1-0.8c0.3-2.5,0.5-5,0.9-7.5c0.3-1.5,0.9-3,1.4-4.5
	c0.1-0.2,0.1-0.4,0.1-0.6c0-1.9,0.7-3.5,1.4-5.2c0.5-1.2,0.6-2.5,1.1-3.8c0.6-1.6,1.4-3.2,2.1-4.8c0.3-0.8,0.6-1.6,1-2.4
	c0.5-1.1,1-2.1,1.5-3.1c0.6-1.2,1-2.4,1.7-3.6c1-1.8,2.1-3.4,3.1-5.2c0.6-0.9,1-1.9,1.6-2.8c1-1.5,2.1-2.8,3.2-4.3
	c0.6-0.8,1.1-1.7,1.7-2.5c1.8-2.1,3.6-4.3,5.6-6.3C88,36,90.4,33.4,93,31c1.2-1.1,2.8-1.9,4.1-2.9c0.7-0.5,1.3-1.1,2-1.6
	c1.4-1,2.9-2.1,4.4-3c1.5-1,3.1-2.1,4.7-3c1.3-0.7,2.7-1.2,4-1.8c1.3-0.6,2.6-1.3,3.9-1.9c1.7-0.7,3.3-1.4,5-2.1
	c1.1-0.4,2.1-0.9,3.2-1.3c0.8-0.3,1.6-0.6,2.5-0.9c1.4-0.4,2.7-0.7,4.1-1c1.6-0.4,3.1-0.9,4.7-1.3c0.1,0,0.2-0.1,0.3-0.1
	c2-0.3,4-0.7,6-1c3.2-0.5,6.4-0.9,9.6-1.3c0.4,0,0.7-0.1,1.1-0.1c5.3,0,10.6-0.1,15.8,0c2.6,0.1,5.3,0.1,7.8,0.8
	c2,0.5,3.9,0.4,5.8,0.7c1.6,0.3,3.2,0.9,4.9,1.3c0.1,0,0.2,0.1,0.3,0.1c1.8,0.3,3.6,0.5,5.3,1c1.2,0.3,2.4,0.9,3.6,1.3
	c0.2,0.1,0.4,0.1,0.6,0.2c2,0.6,4.1,1.1,6,1.9c2,0.8,3.8,1.9,5.7,2.8c1.4,0.7,2.9,1.1,4.2,1.8c1.2,0.6,2.2,1.4,3.4,2
	c1.2,0.7,2.4,1.3,3.5,2c1.2,0.8,2.4,1.7,3.6,2.6c1.3,0.9,2.5,2,3.7,2.9c1.5,1.2,3,2.3,4.4,3.7c1.7,1.8,3.6,3.4,5.3,5.1
	c0.9,1,1.7,2.1,2.6,3.1c0.9,1.1,1.9,2.2,2.7,3.3c0.8,1.1,1.5,2.3,2.2,3.4c0.8,1.3,1.7,2.5,2.6,3.8c0.4,0.6,0.9,1.1,1.2,1.8
	c0.9,1.8,1.7,3.7,2.7,5.4c1,1.7,1.8,3.4,2.4,5.2c0.7,2,1.5,3.9,2.4,5.8c0.8,1.6,1.1,3.3,1.6,5c0.3,1.2,0.9,2.3,1.4,3.5
	c0,0.1,0,0.2,0.1,0.2c0.3,1.6,0.5,3.3,0.9,4.9c0.4,1.9,1,3.8,1.5,5.8c0.2,0.8,0.1,1.7,0.2,2.6c0.4,4.4,1,8.7,1.3,13.1
	c0.2,3.3,0.1,6.6,0.2,10c0,0.7,0,1.4,0,2.4c0.9-0.3,1.4-0.4,2-0.6c0.3-0.1,0.5-0.2,0.8-0.3c4.1-0.3,8.2-0.7,12.2-1
	c1.3-0.1,2.5-0.3,3.8-0.4c0.6,0,1.2,0.2,1.9,0.3c1.6,0.1,3.1,0,4.7,0.2c3.9,0.3,7.8,0.5,11.6,1c1.7,0.2,3.3,0.9,4.9,1.3
	c1.5,0.4,3.1,0.6,4.6,1c1.2,0.3,2.3,0.7,3.4,1c1.4,0.4,2.8,0.9,4.2,1.4c0.8,0.3,1.5,0.6,2.2,0.9c1.3,0.7,2.6,1.4,4,2.1
	c1.3,0.6,2.7,1.1,4,1.8c1,0.6,2,1.3,3,2c0.9,0.6,1.8,1.2,2.7,1.8c1.3,1,2.6,2,4,2.9c3.2,2.1,5.5,5.1,8.3,7.6c1.6,1.4,2.8,3.3,4.2,5
	c1.1,1.3,2.1,2.7,3.1,4.1c0.7,1,1.2,2.2,1.8,3.2c1,1.8,2.1,3.5,3.1,5.4c0.7,1.3,1.1,2.8,1.7,4.1c0.4,0.8,0.8,1.7,1.2,2.5
	c0.3,0.7,0.7,1.5,0.9,2.2c0.4,1.2,0.7,2.3,1,3.5c0.4,1.4,0.8,2.8,1.2,4.2c0,0.1,0.2,0.2,0.2,0.3c0.3,1.7,0.7,3.4,1,5.2
	c0.2,1.3,0.5,2.5,0.7,3.8c0.2,1.3,0.4,2.6,0.6,3.9c0.1,0.4,0.1,0.8,0.1,1.2c0.1,2.6,0.1,5.1,0.3,7.7c0.1,1.9,0.8,3.8,0.5,5.6
	c-0.9,4.4-0.3,8.9-0.8,13.3c-0.3,2.4-0.5,4.9-0.8,7.3c-0.2,1.6-0.4,3.2-0.7,4.8c-0.4,1.8-0.9,3.5-1.4,5.3c0,0.1-0.1,0.2-0.1,0.3
	c-0.3,1.9-0.5,3.8-0.9,5.7c-0.3,1.4-0.9,2.7-1.3,4c0,0.1-0.1,0.2-0.1,0.3c-0.3,1.5-0.5,3-0.9,4.5c-0.3,1.1-0.8,2.1-1.1,3.1
	c-0.4,1.2-0.8,2.5-1.2,3.7c-0.4,1.1-0.8,2.2-1.2,3.3c-0.1,0.4-0.3,0.7-0.5,1c-0.5,1.1-0.9,2.2-1.4,3.3c-0.3,0.7-0.6,1.4-0.9,2
	c-0.3,0.9-0.6,1.9-1,2.8c-0.3,0.7-0.6,1.3-0.9,1.9c-0.5,1.2-1,2.5-1.6,3.7c-0.5,1.1-1.3,2.1-1.9,3.1c-0.7,1.2-1.4,2.5-2,3.8
	c-0.9,1.6-1.7,3.2-2.6,4.8c-0.7,1.2-1.5,2.2-2.2,3.4c-1.3,1.9-2.5,3.9-3.8,5.8c-1.4,2-2.8,4-4.2,5.9c-1.6,2.1-3.2,4.2-4.9,6.2
	c-1.3,1.5-2.7,2.9-4.1,4.3c-1.5,1.5-3,3-4.5,4.4c-1.4,1.3-2.9,2.5-4.3,3.7c-1,0.9-2,1.8-3.1,2.7c-1.3,1-2.8,2-4.2,2.9
	c-0.9,0.6-1.9,1.2-2.9,1.8c-0.8,0.5-1.6,1-2.5,1.4c-0.8,0.4-0.9,1-0.4,1.7c1.4,1.8,2.7,3.6,3.8,5.7c1.8,3.4,1.7,7,1.4,10.6
	c-0.1,1.5-1,3-2,4.2c-0.9,1-1.8,2-2.8,2.9c-0.5,0.4-1.1,0.8-1.7,1c-1.2,0.4-2.4,0.8-3.6,0.9c-1.5,0.2-3.1,0-4.7,0
	c-1.6,0-3-0.7-4.4-1.4C287.1,351.9,286.1,351.6,284.8,351.1z M249.5,111.7c-0.4-4.8,0.7-9.8-0.6-14.6c-0.6-2.1,0.1-4.4-0.8-6.5
	c-0.5-1.2-0.6-2.5-0.8-3.8c-0.4-2.4-0.7-4.7-1.6-7c-0.8-2-1.2-4.1-1.7-6.2c0-0.1-0.1-0.3-0.2-0.4c-0.4-0.8-0.9-1.7-1.3-2.5
	c-0.7-1.5-1.2-3.1-1.8-4.7c-0.2-0.5-0.4-1.1-0.7-1.6c-0.8-1.3-1.5-2.7-2.3-4c-0.7-1.2-1.5-2.3-2.3-3.5c-0.8-1.2-1.6-2.4-2.5-3.6
	c-1.2-1.6-2.4-3.3-3.6-4.9c-0.9-1.1-1.9-2.1-2.9-3.1c-1.5-1.5-3-3-4.6-4.3c-1.9-1.6-3.8-3.1-5.7-4.6c-1.3-1-2.6-1.8-4-2.7
	c-1-0.6-2.1-1.1-3-1.7c-1.1-0.7-2.1-1.5-3.2-2.1c-1.4-0.7-3-1.2-4.5-1.8c-0.6-0.3-1.3-0.6-1.9-0.9c-1.7-0.7-3.3-1.5-5.1-2.2
	c-1.3-0.5-2.7-0.6-4-1.1c-1.9-0.7-3.8-1.4-5.8-1.5c-0.2,0-0.5-0.1-0.7-0.1c-1.6-0.4-3.2-1.1-4.9-1.3c-3.6-0.4-7.3-0.7-11-1
	c-1.8-0.1-3.7,0-5.5-0.3c-1.4-0.2-2.8-0.1-4.2,0c-4.8,0.2-9.6,0.5-14.3,1.1c-0.6,0.1-1.3,0.2-1.9,0.3c-1.7,0.4-3.4,0.9-5.1,1.2
	c-1.5,0.3-3,0.6-4.4,0.9c-0.1,0-0.2,0.1-0.3,0.2c-1.1,0.4-2.3,0.9-3.5,1.3c-1.1,0.4-2.3,0.6-3.4,1c-0.7,0.2-1.4,0.5-2,0.9
	c-1.5,0.7-2.9,1.4-4.4,2.1c-1.4,0.7-2.8,1.4-4.2,2.1c-1.1,0.6-2.2,1.3-3.4,1.9c-1,0.6-2.1,1.1-3.1,1.8c-1.3,0.9-2.6,2-3.8,3
	c-0.8,0.6-1.8,1.2-2.6,1.8c-1.3,1.2-2.6,2.4-3.9,3.7c-1,0.9-1.9,1.9-2.8,2.9c-0.9,1-1.9,1.9-2.8,2.9c-0.8,0.9-1.7,1.8-2.4,2.8
	c-1.1,1.4-2.1,2.8-3.1,4.3c-0.7,0.9-1.3,1.9-1.9,2.9c-0.7,1.1-1.4,2.1-2,3.2c-0.6,1-1.3,2.1-1.8,3.1c-0.4,0.8-0.7,1.8-1.1,2.6
	c-0.7,1.4-1.5,2.8-2.1,4.2c-0.8,2-1.8,4-2.3,6.1c-0.6,2.3-1.9,4.5-1.8,6.9c0,0.2,0,0.3-0.1,0.5c-0.5,1.6-1.1,3.1-1.5,4.7
	c-0.3,1.4-0.6,2.7-0.7,4.1c-0.2,2.1,0.1,4.3-0.8,6.3c0,8.1-0.8,16.2,0.6,24.3c0.4,2.5,0.3,5,0.6,7.5c0.5,3.7,0.7,7.5,1.7,11.2
	c0.6,2,0.6,4.1,0.9,6.1c0.1,0.6,0.3,1.2,0.5,1.8c0.4,1.3,0.8,2.6,1.1,3.9c0.4,1.6,0.6,3.2,0.9,4.8c0,0.1,0.1,0.2,0.1,0.3
	c0.5,1.3,1,2.7,1.3,4c0.4,1.3,0.5,2.6,0.9,3.8c0.6,1.9,1.5,3.7,2.2,5.6c0.6,1.6,1.1,3.2,1.7,4.7c0.5,1.3,1,2.6,1.5,3.8
	c0.3,0.7,0.6,1.3,0.9,1.9c0.6,1.6,1.1,3.2,1.7,4.8c0.3,0.7,0.6,1.4,0.9,2c0.9,1.7,2,3.4,2.9,5.2c0.9,1.8,1.7,3.7,2.6,5.6
	c0.3,0.6,0.6,1.2,1,1.8c0.7,1.1,1.4,2.2,2.1,3.3c0.7,1.1,1.4,2.2,2.1,3.3c0.6,1,1.2,2,1.9,2.9c0.7,1.1,1.4,2.3,2.1,3.3
	c1.1,1.6,2.3,3.1,3.5,4.6c1,1.4,2,2.8,3,4.1c1.1,1.4,2.3,2.8,3.5,4.1c1,1.1,2,2.3,3,3.4c1.1,1.1,2.3,2.2,3.4,3.3
	c1.4,1.5,2.8,3.1,4.3,4.4c2,1.7,4.1,3.3,6.1,4.9c0.9,0.7,1.8,1.2,2.8,1.9c0.9,0.6,1.8,1.3,2.7,1.9c1.5,0.9,3,1.9,4.6,2.7
	c1.4,0.8,2.8,1.5,4.2,2.2c0.8,0.4,1.7,0.8,2.5,1c1.2,0.4,2.5,0.5,3.6,1c2,0.8,4.1,1.4,6.3,1.4c1,0,2,0.1,3,0.1
	c2.1,0,4.3,0.1,6.3-0.3c2.3-0.4,4.5-1.3,6.7-2.2c2.2-0.8,4.4-1.6,6.4-2.7c2.2-1.1,4.4-2.5,6.5-3.9c2-1.3,3.9-2.7,5.7-4.1
	c1.7-1.4,3.3-2.9,4.9-4.4c1.3-1.2,2.6-2.3,3.8-3.6c1.2-1.1,2.3-2.2,3.4-3.4c1.8-2,3.6-4,5.3-6.1c1.2-1.5,2.3-3,3.5-4.5
	c1.3-1.7,2.6-3.3,3.8-5c1-1.4,1.8-2.8,2.7-4.2c0.6-1,1.2-2,1.9-2.9c1-1.5,2-2.9,2.9-4.4c0.7-1.1,1.2-2.3,1.8-3.5
	c0.7-1.4,1.5-2.7,2.3-4c0.4-0.6,0.8-1.2,1.2-1.9c0.7-1.2,1.3-2.3,1.9-3.5c0.7-1.4,1.2-2.9,1.8-4.4c0.4-0.9,0.9-1.8,1.4-2.7
	c0.3-0.6,0.6-1.3,0.9-1.9c0.4-0.9,0.8-1.8,1.2-2.8c0.4-0.9,0.8-1.9,1.2-2.8c0.4-1.1,0.5-2.2,0.9-3.2c0.7-1.8,1.6-3.5,2.2-5.4
	c0.7-2.1,1.2-4.3,1.8-6.5c0-0.1,0-0.2,0.1-0.3c0.5-1.4,1-2.8,1.4-4.2c0.4-1.4,0.7-2.9,1-4.3c0,0,0-0.1,0-0.1c0.5-1.8,1-3.5,1.4-5.3
	c0.4-2.1,0.7-4.2,1-6.3c0-0.1,0-0.2,0-0.2c0.4-1.8,0.9-3.6,1.3-5.4c0.4-2,0.2-4.1,0.8-6.2c0.7-2.8,0.8-5.9,0.9-8.8
	C249.6,119,249.5,115.3,249.5,111.7z M353.5,201.8c-0.2-4.2,0.6-8.4-0.6-12.5c-0.5-1.9,0.1-3.9-0.8-5.8c-0.5-1.1-0.3-2.4-0.8-3.6
	c-0.9-2.3-1.2-4.8-1.8-7.2c0-0.1,0-0.2-0.1-0.3c-0.5-1.1-1-2.1-1.5-3.2c-0.3-0.6-0.6-1.3-0.8-1.9c-0.4-1-0.6-2-1.1-2.9
	c-0.7-1.4-1.5-2.7-2.3-4.1c-0.6-1-1-2.1-1.7-3.1c-0.9-1.3-2-2.6-3-3.8c-1-1.2-1.9-2.4-2.9-3.5c-1.4-1.5-2.8-3-4.3-4.4
	c-0.9-0.9-1.9-1.9-2.9-2.7c-1.4-1.1-2.8-2.1-4.2-3c-1.4-0.9-2.9-1.8-4.4-2.7c-1.1-0.6-2.3-1.2-3.5-1.8c-1.4-0.7-2.7-1.5-4.2-2.1
	c-1.1-0.5-2.3-0.7-3.4-1.1c-1.9-0.7-3.8-1.5-5.7-2c-2.5-0.7-5-1.2-7.5-1.6c-2.2-0.4-4.5-0.7-6.7-0.8c-7.4-0.2-14.9-0.6-22.2,1.3
	c-1.6,0.4-3.2,0.6-4.9,0.8c-1,0.1-1.4,0.5-1.5,1.6c-0.3,3.3-0.7,6.6-1,9.9c0,0.2-0.1,0.3-0.1,0.5c-0.4,2.1-0.9,4.1-1.3,6.2
	c-0.4,1.9-0.7,3.8-1,5.7c0,0.1-0.1,0.1-0.1,0.2c-0.4,1.6-0.9,3.1-1.3,4.7c-0.4,1.5-0.7,3-1,4.6c0,0.1-0.1,0.2-0.2,0.3
	c-0.4,1.3-0.8,2.6-1.2,4c-0.4,1.3-0.7,2.6-1.1,3.9c-0.2,0.8-0.4,1.6-0.7,2.3c-0.4,1.1-1,2.3-1.4,3.4c-0.4,1.1-0.7,2.2-1,3.3
	c-0.2,0.7-0.5,1.5-0.8,2.2c-0.5,1.2-1.1,2.4-1.6,3.7c-0.3,0.8-0.5,1.7-0.9,2.4c-0.7,1.4-1.5,2.7-2.1,4.1c-0.7,1.5-1.2,3.1-1.9,4.6
	c-0.3,0.6-0.5,1.3-0.9,1.9c-0.7,1.3-1.5,2.5-2.1,3.7c-0.6,1.2-1.2,2.5-1.8,3.7c-0.7,1.2-1.5,2.4-2.2,3.6c-0.7,1.1-1.2,2.3-1.9,3.5
	c-0.7,1.3-1.5,2.5-2.3,3.7c-0.5,0.9-1,1.8-1.6,2.7c-0.9,1.3-2,2.5-2.9,3.8c-1,1.4-1.8,2.9-2.8,4.2c-1.4,1.9-3,3.8-4.5,5.6
	c-1.2,1.5-2.5,2.9-3.8,4.3c-1,1.1-1.4,3.3-0.9,4.5c0.6,1.2,1,2.6,1.4,3.9c0.4,1.3,0.7,2.6,1,3.8c0.2,0.8,0.5,1.6,0.8,2.4
	c0.4,1,0.9,2,1.3,3.1c0.3,0.7,0.6,1.5,0.9,2.2c0.5,1.2,0.9,2.3,1.4,3.5c0.3,0.8,0.7,1.6,1,2.4c0.4,0.9,0.7,1.9,1.1,2.8
	c0.6,1.3,1.4,2.5,2,3.8c0.7,1.3,1.2,2.7,1.9,4.1c1,1.8,2,3.5,3,5.2c0.6,1,1.2,2,1.8,3c0.7,1,1.4,2,2.1,3c0.9,1.4,1.7,2.8,2.7,4.1
	c1.4,1.8,3.2,3.4,4.4,5.3c1.7,2.7,4.1,4.8,6.2,7c1.2,1.3,2.4,2.5,3.6,3.7c0.9,0.9,1.8,1.7,2.7,2.4c1.7,1.3,3.4,2.6,5.1,3.8
	c1.4,1,2.9,1.9,4.4,2.8c0.6,0.4,1.4,0.6,2,1c1.3,0.7,2.6,1.5,4,2.1c1,0.5,2.1,0.7,3.2,1c1.5,0.5,3,1.2,4.6,1.4
	c4.7,0.5,9.3-0.1,13.7-1.6c0.8-0.3,1.6-0.6,2.3-1c1.3-0.7,2.6-1.4,3.8-2.1c1.1-0.6,2.3-1.2,3.4-1.9c1.4-0.9,2.7-1.9,4-2.9
	c1.4-1.1,2.9-2.2,4.2-3.4c1.9-1.7,3.7-3.6,5.6-5.4c1.4-1.5,2.8-3.1,4.2-4.6c0.9-1.1,1.6-2.3,2.6-3.2c1.5-1.3,2.4-3.1,3.6-4.6
	c1.1-1.3,2-2.8,3-4.2c0.9-1.3,1.8-2.6,2.6-3.9c0.9-1.6,1.7-3.2,2.6-4.8c1-1.7,2-3.3,2.9-5c0.9-1.8,1.7-3.7,2.6-5.5
	c1-2.1,2-4.2,3-6.2c0.3-0.6,0.6-1.2,0.9-1.8c0.5-1.4,1-2.7,1.5-4.1c0.3-0.8,0.6-1.6,0.9-2.5c0.5-1.3,0.9-2.7,1.4-4
	c0.4-1.1,0.7-2.2,1-3.3c0.4-1.4,0.6-2.8,0.9-4.2c0-0.1,0.1-0.2,0.2-0.3c0.5-1.4,1-2.7,1.3-4.2c0.4-1.9,0.6-3.8,0.9-5.7
	c0-0.1,0.1-0.2,0.1-0.3c0.5-1.7,1-3.3,1.3-5c0.3-1.9,0.2-3.8,0.6-5.7c0.7-3.2,0.7-6.6,0.9-10C353.6,206.4,353.5,204.1,353.5,201.8z
	 M144.9,279.3c1.4,0.4,2.6,0,3.8-0.7c2-1.2,3.4-2.9,4.5-4.8c0.6-1,0.4-2.1,0.3-3.1C149.7,270.1,144.3,275.9,144.9,279.3z
	 M175.1,279.4c0-0.3,0.1-0.4,0.1-0.6c0.1-2.4-1.4-4.1-2.9-5.7c-0.4-0.5-1.4-1-1.7-0.8c-0.7,0.4-1.2,1.2-1,2.1c0,0.3,0,0.7-0.2,0.9
	c-0.8,0.7-0.7,1.1,0.2,1.9C171.2,278.7,172.8,279.7,175.1,279.4z M267.9,340.4c0.1,0.4,0.2,0.9,0.3,1.3c0.5-0.1,0.9-0.3,1.4-0.4
	c0.1,0,0.3-0.1,0.4-0.2c1.3-0.2,2.1-1.2,2.8-2.2c0.8-1,1.5-2.2,2.2-3.4c0.1-0.2,0.2-0.6,0.1-0.9c-0.1-0.1-0.5-0.2-0.7-0.2
	c-1.9-0.3-3.3,1-4.4,2.2C269.1,337.6,267.7,338.6,267.9,340.4z M295,341.8c0.3-2.9-2.9-6.6-5.3-6.2c0.1,1.5-0.8,3.2,0.8,4.3
	C291.9,340.8,293.2,341.8,295,341.8z"/>
<path class="st0" d="M240.9,80.8c-0.4-1.4-0.7-2.5-1.1-3.6c-0.6-1.5-1.5-3-2.2-4.4c-0.9-1.9-1.7-3.8-2.6-5.7c-0.3-0.6-0.6-1.2-1-1.7
	c-0.9-1.4-1.9-2.7-2.8-4c-0.7-1-1.2-2.2-2-3.1c-2-2.4-4.1-4.8-6.2-7.2c-1.2-1.3-2.5-2.4-3.8-3.6c-1.1-1-2.2-2-3.4-3
	c-0.1-0.1-0.6-0.1-0.7,0.1c-1.1,1.3-2.2,2.7-3.3,4.1c-1.2,1.5-2.5,3-3.6,4.5c-0.2,0.3-0.2,1.1,0,1.3c1.3,1.2,2.8,2.3,4.1,3.5
	c1.2,1.2,2.4,2.4,3.6,3.6c0.8,0.9,1.5,1.8,2.3,2.8c0.6,0.7,1.2,1.4,1.7,2.1c1.2,1.8,2.2,3.7,3.3,5.6c0.8,1.4,1.6,2.7,2.3,4.1
	c0.4,0.8,0.7,1.6,1,2.4c0.4,0.9,0.9,1.8,1.3,2.7c0.4,0.9,0.5,2,1,2.8c0.3,0.4,0.8,1.7,1.8,0.5c0.2-0.2,0.7-0.2,1-0.3
	c1.1-0.3,2.2-0.6,3.3-0.9c1.4-0.5,2.9-1,4.3-1.6C239.9,81.5,240.5,81.1,240.9,80.8z M210.8,41.2c-0.4-0.4-0.7-0.8-1-1
	c-0.6-0.5-1.2-0.9-1.9-1.3c-1-0.6-2-1.2-3-1.7c-0.8-0.4-1.7-0.6-2.5-1.1c-1.9-1.1-2.7-0.8-3.3,1.2c-0.2,0.8-0.5,1.7-0.9,2.5
	c-0.7,1.3-1.5,2.6-2.2,3.9c-0.3,0.6-0.6,1.2-0.7,1.8c-0.1,0.3,0.2,0.8,0.4,0.9c0.7,0.4,1.5,0.7,2.3,1c0.6,0.3,1.3,0.7,1.9,1
	c1,0.6,2,1.4,3.1,2c0.4,0.2,1.3,0.3,1.5,0c0.9-1.1,1.7-2.3,2.4-3.5c0.9-1.4,1.8-2.8,2.6-4.2C210,42.3,210.4,41.8,210.8,41.2z"/>
<path class="st0" d="M240.9,80.8c-0.5,0.3-1,0.7-1.6,1c-1.4,0.6-2.8,1.1-4.3,1.6c-1.1,0.4-2.2,0.6-3.3,0.9c-0.3,0.1-0.8,0-1,0.3
	c-1,1.1-1.5-0.1-1.8-0.5c-0.5-0.8-0.6-1.9-1-2.8c-0.4-0.9-0.9-1.8-1.3-2.7c-0.4-0.8-0.6-1.6-1-2.4c-0.7-1.4-1.5-2.7-2.3-4.1
	c-1.1-1.9-2.2-3.8-3.3-5.6c-0.5-0.8-1.1-1.4-1.7-2.1c-0.8-0.9-1.5-1.9-2.3-2.8c-1.2-1.2-2.3-2.5-3.6-3.6c-1.3-1.2-2.8-2.3-4.1-3.5
	c-0.2-0.2-0.2-1,0-1.3c1.2-1.5,2.4-3,3.6-4.5c1.1-1.4,2.2-2.7,3.3-4.1c0.1-0.1,0.6-0.2,0.7-0.1c1.2,1,2.3,2,3.4,3
	c1.3,1.2,2.6,2.3,3.8,3.6c2.1,2.3,4.2,4.7,6.2,7.2c0.8,0.9,1.3,2.1,2,3.1c0.9,1.4,1.9,2.7,2.8,4c0.4,0.6,0.7,1.1,1,1.7
	c0.9,1.9,1.7,3.8,2.6,5.7c0.7,1.5,1.5,2.9,2.2,4.4C240.3,78.2,240.5,79.3,240.9,80.8z"/>
<path class="st0" d="M210.8,41.2c-0.4,0.6-0.8,1.1-1.1,1.5c-0.9,1.4-1.7,2.8-2.6,4.2c-0.8,1.2-1.5,2.4-2.4,3.5
	c-0.2,0.3-1.1,0.2-1.5,0c-1.1-0.6-2.1-1.3-3.1-2c-0.6-0.4-1.2-0.7-1.9-1c-0.8-0.4-1.6-0.6-2.3-1c-0.3-0.2-0.5-0.7-0.4-0.9
	c0.1-0.6,0.4-1.3,0.7-1.8c0.7-1.3,1.5-2.6,2.2-3.9c0.4-0.8,0.7-1.6,0.9-2.5c0.5-2.1,1.4-2.4,3.3-1.2c0.8,0.5,1.7,0.7,2.5,1.1
	c1,0.5,2,1.1,3,1.7c0.7,0.4,1.3,0.9,1.9,1.3C210.2,40.5,210.4,40.8,210.8,41.2z"/>
<path class="st0" d="M281.2,192.7c1.9-1,3.8-2,5.7-3c1.6-0.9,3.3-1.4,5.2-1.6c1.1-0.1,2.2-0.6,3.3-0.5c2.1,0.1,4.3,0.2,6.4,0.8
	c2.1,0.7,4.1,1.4,6,2.8c2,1.4,3.6,3.1,5.3,4.8c1.7,1.7,2.5,3.8,3.6,5.8c0.7,1.3,0.8,2.9,1.1,4.4c0.3,1.5,0.8,3.1,0.7,4.6
	c-0.2,2.2-0.9,4.3-1.4,6.5c-0.3,1-0.5,2.1-0.9,3.1c-0.4,1-1,2-1.7,2.9c-1,1.4-2,2.8-3,4.1c-1.1,1.4-2.3,2.7-3.5,4
	c-1.5,1.5-3,3-4.5,4.5c-1.8,1.7-3.6,3.5-5.5,5.2c-2.7,2.4-5.3,4.8-8.1,7.2c-2.7,2.3-5.4,4.6-8.1,6.9c-0.2,0.1-0.6,0.2-0.7,0.1
	c-2-1.7-3.9-3.5-5.8-5.2c-1.1-0.9-2.3-1.7-3.4-2.7c-1.3-1.2-2.5-2.5-3.8-3.6c-1.1-1-2.3-1.8-3.4-2.8c-1.3-1.2-2.5-2.5-3.7-3.7
	c-1.5-1.4-2.9-2.8-4.4-4.3c-1.9-1.9-3.9-3.7-5.3-6c-0.5-0.8-1.3-1.3-1.8-2.1c-0.8-1.3-1.6-2.6-2.2-3.9c-0.8-1.6-1.4-3.4-2.1-5
	c-0.2-0.4-0.2-0.9-0.2-1.4c0-2.9-0.1-5.8,0.1-8.6c0.1-1.4,0.8-2.7,1.3-4c0.3-0.7,0.6-1.3,0.9-2c0.9-2.5,2.6-4.4,4.6-6.1
	c1.2-1,2.3-2.2,3.6-3c1.4-0.8,3-1.3,4.6-1.8c1.7-0.5,3.3-1,5.1-1.3c1.4-0.2,2.9-0.1,4.3,0c0.9,0.1,1.7,0.2,2.6,0.5
	c1.2,0.4,2.4,0.8,3.6,1.3c0.7,0.3,1.5,0.6,2.1,1C278.8,191.2,280,192,281.2,192.7z M281.2,239.4c0.6-0.5,1.1-1,1.7-1.5
	c1.4-1.2,2.9-2.3,4.2-3.6c1.8-1.7,3.4-3.6,5.2-5.2c2-1.7,4-3.3,5.7-5.4c1.9-2.4,4.1-4.4,5.9-6.9c0.9-1.3,1.4-3.1,1.7-4.7
	c0.3-1.7,0.4-3.6-0.2-5.1c-0.7-2-1.8-3.9-3.7-5.1c-0.9-0.6-1.8-1.5-2.8-1.6c-3.3-0.4-6.6-0.6-9.4,2.1c-1.6,1.5-2.7,3.1-3.7,4.9
	c-0.8,1.4-1.6,2.9-2.3,4.3c-0.4,0.7-0.6,1.4-1,2.1c-0.3,0.6-0.6,1.1-1,1.6c0,0.1-0.5-0.1-0.5-0.2c-0.5-1-1.1-1.9-1.6-2.9
	c-0.9-1.8-1.8-3.6-2.6-5.4c-0.3-0.6-0.5-1.2-0.9-1.7c-0.9-1-1.8-2.1-2.9-3c-0.9-0.8-2-1.7-3.1-1.8c-2.3-0.2-4.6-0.6-6.9,0.5
	c-3.1,1.5-5,4.1-5.9,7.2c-0.9,3,0.1,6,1.7,8.7c1.3,2.1,3,4,4.7,5.8c2.3,2.5,4.8,4.8,7.2,7.2c1.8,1.7,3.8,3.3,5.7,5
	C277.9,236.2,279.6,237.8,281.2,239.4z"/>
<path class="st0" d="M226.6,263.6c1.6-0.6,3.2-1.2,4.8-1.9c1.4-0.6,2.8-1.4,4.2-2c0.6-0.3,1.4-0.3,2.1-0.4c0.2,0,0.5,0.2,0.6,0.4
	c0.9,1.9,1.6,3.8,2.6,5.6c0.9,1.6,2,3.1,2.9,4.7c0.6,1.1,1.1,2.3,1.7,3.3c1.4,2.1,3,4.2,4.5,6.2c0.8,1.1,1.6,2.2,2.5,3.2
	c1.1,1.3,2.3,2.5,3.4,3.8c1.1,1.3,0.9,2.1-0.3,3.2c-1.6,1.5-3,3.1-4.5,4.6c-0.6,0.6-1.1,1.3-1.8,1.8c-1,0.6-1.6-0.3-2.1-0.8
	c-1.7-1.8-3.5-3.6-5.1-5.5c-1.1-1.3-1.9-2.8-2.9-4.2c-0.6-0.8-1.2-1.5-1.8-2.3c-0.8-1.1-1.5-2.3-2.2-3.5c-1-1.5-2-2.9-2.9-4.5
	c-0.7-1.2-1.2-2.4-1.9-3.6c-0.7-1.4-1.5-2.9-2.2-4.3c-0.4-0.8-0.7-1.6-1-2.4C227.1,264.6,226.9,264.2,226.6,263.6z"/>
<path class="st0" d="M140.2,92.1c2.6,0.4,4.8,0.5,7,1.1c1.8,0.5,3.5,1.4,5.2,2.1c1.2,0.6,2.5,1.1,3.7,1.8c0.9,0.5,1.6,1.2,2.4,1.9
	c1.4,1.4,1.7,1.4,3,0.1c1.3-1.3,2.7-2.3,4.4-3.1c1.3-0.6,2.6-1.4,3.9-2c1-0.4,2.1-0.8,3.1-0.9c2.3-0.4,4.6-0.8,6.9-0.8
	c2.6,0.1,5.2,0.4,7.7,1.4c1,0.4,2.2,0.5,3.2,1c1.3,0.5,2.4,1.3,3.7,1.9c1.4,0.7,2.5,1.7,3.6,2.8c1.2,1.2,2.5,2.4,3.6,3.7
	c1.4,1.7,2.4,3.6,3.4,5.6c0.7,1.4,0.9,3,1.6,4.3c0.8,1.8,0.6,3.6,0.8,5.5c0.2,1,0.7,2,0.5,3c-0.3,2.4-0.9,4.7-1.4,7
	c-0.2,1.1-0.6,2.2-0.9,3.3c-0.3,0.9-0.7,1.9-1.2,2.7c-0.9,1.6-1.9,3-2.8,4.6c-0.8,1.4-1.8,2.6-2.9,3.7c-1,1-1.7,2.2-2.6,3.2
	c-1.2,1.3-2.5,2.6-3.7,3.9c-1.2,1.2-2.3,2.5-3.5,3.7c-1.1,1.2-2.3,2.3-3.5,3.4c-1.2,1.2-2.5,2.3-3.7,3.4c-1.4,1.3-2.9,2.6-4.3,3.9
	c-1,1-2,2-3,2.9c-1,0.9-2.1,1.7-3.2,2.6c-1.3,1.1-2.6,2.3-4,3.4c-2.1,1.8-4.2,3.6-6.4,5.3c-0.3,0.3-1.2,0.2-1.5,0
	c-2-1.6-3.9-3.4-5.9-5c-2.5-2.1-5-4-7.5-6.1c-1.8-1.6-3.4-3.5-5.2-5.2c-1.3-1.2-2.8-2.3-4.2-3.5c-1.8-1.7-3.5-3.5-5.3-5.3
	c-1.7-1.7-3.5-3.4-5.2-5.2c-1.3-1.3-2.4-2.7-3.6-4.1c-0.9-1-1.7-2-2.5-3c-0.8-1-1.5-2-2.2-3.1c-0.7-1.2-1.4-2.5-2.1-3.7
	c-0.5-0.9-0.8-1.9-1.2-2.9c-0.4-1-0.7-2.1-1-3.2c-0.3-1.3-0.5-2.5-0.7-3.8c-0.2-1.1-0.4-2.2-0.5-3.4c0-0.4,0.3-0.8,0.4-1.2
	c0.1-0.8,0-1.7,0.1-2.5c0.3-1.7,0.4-3.5,1-5.2c0.8-2.3,1.8-4.7,3.2-6.7c1.2-1.9,2.9-3.4,4.5-5c0.8-0.9,1.7-1.7,2.7-2.5
	c0.5-0.5,1.1-1,1.8-1.2c2.2-0.8,4.1-2.2,6.5-2.8c1.5-0.4,2.9-0.5,4.4-0.8C138.1,92.7,139.3,92.3,140.2,92.1z M160.4,122.8
	c-0.7,0.1-1.1-0.1-1.3-1c-0.2-0.7-0.6-1.4-1-2.1c-0.7-1.3-1.4-2.6-2.1-3.9c-0.4-0.7-0.9-1.4-1.3-2.2c-0.6-1.1-1.2-2.1-1.9-3.1
	c-0.3-0.5-0.7-1-1.2-1.3c-1.6-0.9-2.8-2.4-4.6-3c-1-0.4-2-0.9-3.1-1c-2.2-0.2-4.4-0.2-6.6,0c-1.2,0.1-2.4,0.5-3.4,1
	c-1.1,0.5-2,1.5-3.1,2.1c-1.5,0.8-2.5,2.3-3.4,3.6c-1.1,1.7-2,3.8-2.4,5.8c-0.4,2.2-0.5,4.5,0,6.7c0.5,2.3,1.4,4.7,2.9,6.7
	c1.2,1.7,2.2,3.5,3.6,5.1c1.8,2.1,3.9,3.9,5.8,5.9c1.5,1.5,2.8,3,4.3,4.5c1.5,1.4,2.9,2.8,4.5,4.2c1.4,1.3,2.9,2.5,4.3,3.8
	c1.3,1.2,2.6,2.3,3.9,3.5c1.4,1.3,2.9,2.6,4.3,3.9c0.9,0.9,1.7,1.2,2.8,0.1c1-1,2.2-1.7,3.3-2.6c2.6-2.3,5.3-4.7,7.9-7.1
	c1.5-1.3,2.9-2.7,4.3-4.1c1.8-1.7,3.4-3.6,5.2-5.3c1.4-1.4,3-2.8,4.3-4.2c1.4-1.5,2.6-3,3.8-4.6c1-1.3,1.9-2.8,2.7-4.2
	c0.4-0.7,0.6-1.4,0.9-2.2c0.5-1.1,1.2-2.3,1.3-3.4c0.3-3.6,0.6-7.2-1.4-10.5c-0.9-1.4-1.5-3.1-2.7-4.3c-1.4-1.4-3.1-2.4-4.9-3.3
	c-1.4-0.6-3-0.8-4.5-1c-1.6-0.1-3.2-0.1-4.8,0.1c-1.2,0.2-2.4,0.7-3.7,1.1c-0.5,0.2-1.2,0.3-1.6,0.6c-1.4,1.2-2.7,2.4-4.1,3.7
	c-0.2,0.2-0.2,0.6-0.4,0.8c-1.6,1.3-2.1,3.2-3,4.9c-0.7,1.2-1.1,2.5-1.8,3.7C161.7,120.8,161.1,121.7,160.4,122.8z"/>
</svg>
