<?xml version="1.0" encoding="utf-8"?>
<!-- Generator: Adobe Illustrator 22.1.0, SVG Export Plug-In . SVG Version: 6.00 Build 0)  -->
<svg version="1.1" id="Layer_1" xmlns="http://www.w3.org/2000/svg" xmlns:xlink="http://www.w3.org/1999/xlink" x="0px" y="0px"
	 viewBox="0 0 512 512" style="enable-background:new 0 0 512 512;" xml:space="preserve">
<style type="text/css">
	.st0{fill:#121F38;}
</style>
<g>
	<g>
		<path class="st0" d="M415.3,426.3V160c0-88.2-71.8-160-160-160c-88.2,0-160,71.8-160,160v266.2c-15.7,8.6-25.3,23.6-25.3,40.2V512
			h55h122.7h15.2h122.7h55v-45.5C440.6,449.9,431,434.9,415.3,426.3z M110.4,160c0-79.8,65-144.8,144.8-144.8
			c79.8,0,144.8,65,144.8,144.8v259.8c-0.1,0-0.1-0.1-0.2-0.1c-0.2-0.1-0.4-0.2-0.6-0.3c-0.2-0.1-0.3-0.1-0.5-0.2
			c-0.2-0.1-0.5-0.2-0.7-0.3c-0.1-0.1-0.2-0.1-0.4-0.2c-0.3-0.1-0.6-0.2-0.9-0.4c-0.1,0-0.1,0-0.2-0.1
			c-18.5-7.9-47.4-22.2-58.5-27.7l0-0.3l-4.5-2c-1.2-0.8-14.5-10.2-15.3-44.3c21.8-19.6,34.2-47.6,34.2-77.3v-27.3
			c5.9,1.2,11.9,2.1,17.9,2.7l5.2,0.5l2.3-4.7c7.5-14.9,11.2-30.8,11.2-47.3c0-34.8-17.4-67.6-47.6-90c-0.5-0.4-1-0.7-1.5-1.1
			c-2.1-36.3-39.4-65.3-85.1-65.3c-45.7,0-83,29-85.1,65.3c-0.5,0.4-1,0.7-1.5,1.1c-30.3,22.4-47.6,55.2-47.6,90
			c0,16.4,3.8,32.3,11.2,47.3l2.3,4.7l5.2-0.5c6.1-0.6,12.1-1.5,17.9-2.7v27.3c0,29.7,12.4,57.7,34.2,77.4
			c-0.8,34.1-14.1,43.5-15.3,44.3l-16.9,7.4l1.1,0.4c-0.1,0.1-0.3,0.1-0.4,0.2c-0.1,0.1-0.2,0.1-0.4,0.2c-0.3,0.1-0.6,0.3-0.9,0.4
			c-0.1,0.1-0.2,0.1-0.4,0.2c-0.3,0.1-0.6,0.3-0.8,0.4c-0.1,0.1-0.3,0.1-0.5,0.2c-0.3,0.1-0.5,0.3-0.8,0.4c0,0,0,0,0,0
			c-0.7,0.3-1.3,0.6-2,1c-0.2,0.1-0.4,0.2-0.5,0.3c-0.2,0.1-0.3,0.2-0.5,0.2c-0.3,0.1-0.6,0.3-0.9,0.4c-0.1,0.1-0.3,0.1-0.4,0.2
			c-0.3,0.1-0.6,0.3-0.9,0.4c-0.2,0.1-0.4,0.2-0.6,0.3c-0.3,0.1-0.6,0.3-0.9,0.4c-0.2,0.1-0.3,0.2-0.5,0.2c-0.4,0.2-0.7,0.3-1.1,0.5
			c-0.1,0-0.2,0.1-0.3,0.1c-0.4,0.2-0.8,0.4-1.1,0.6c-0.1,0.1-0.2,0.1-0.3,0.2c-0.4,0.2-0.7,0.4-1.1,0.5c-0.1,0.1-0.2,0.1-0.4,0.2
			c-2,0.9-3.9,1.9-5.9,2.8c-0.1,0-0.2,0.1-0.2,0.1c-0.4,0.2-0.8,0.4-1.2,0.6c-0.1,0-0.2,0.1-0.3,0.1c-0.4,0.2-0.8,0.4-1.2,0.6
			c-0.1,0-0.2,0.1-0.3,0.1c-0.4,0.2-0.8,0.4-1.3,0.6c-0.1,0-0.1,0.1-0.2,0.1c-0.5,0.2-1,0.5-1.4,0.7c0,0,0,0,0,0
			c-2.5,1.2-5,2.3-7.5,3.5c-0.1,0-0.1,0.1-0.2,0.1c-0.4,0.2-0.8,0.4-1.2,0.6c-0.1,0-0.2,0.1-0.3,0.1c-0.4,0.2-0.8,0.3-1.1,0.5
			c-0.1,0-0.2,0.1-0.3,0.1c-0.4,0.2-0.8,0.3-1.2,0.5c-0.1,0-0.2,0.1-0.2,0.1c-0.4,0.2-0.8,0.4-1.2,0.6c0,0-0.1,0-0.1,0.1
			c-1.4,0.6-2.7,1.2-4,1.8c0,0-0.1,0-0.1,0c-0.4,0.2-0.8,0.3-1.2,0.5c-0.1,0-0.2,0.1-0.3,0.1c-0.3,0.1-0.6,0.3-0.9,0.4
			c-0.1,0.1-0.2,0.1-0.3,0.1c-0.3,0.1-0.6,0.2-0.8,0.4c-0.1,0.1-0.2,0.1-0.4,0.2c-0.3,0.1-0.5,0.2-0.8,0.3c-0.1,0-0.2,0.1-0.4,0.1
			c-0.1,0-0.2,0.1-0.3,0.1L110.4,160L110.4,160z M305.9,334.9c-1.3,1.1-2.5,2.1-3.8,3c-7.5,5.6-15.9,9.9-24.8,12.8
			c-7.7,2.5-15.1,3.8-22.1,3.8c-7,0-14.4-1.3-22.1-3.7c-8.9-2.9-17.3-7.2-24.8-12.8c-1.2-0.9-2.5-1.9-3.8-3
			c-20.1-16.8-31.6-41.6-31.6-68.1v-31.1h0c0.1,0,0.2-0.1,0.2-0.1c41.9-13.2,65.3-46.1,75.7-65c2.5-4.5,4.5-8.7,6.3-12.4
			c1.8,3.8,3.8,8,6.3,12.4c10.4,19,33.8,51.8,75.7,65c0.1,0,0.1,0.1,0.2,0.1v31.1C337.5,293.2,326,318.1,305.9,334.9z M316.3,392.1
			l-21,7.6c-20.8,7.5-43.3,9-64.8,4.4c-5.2-1.1-10.3-2.6-15.3-4.4l-21-7.6c5.1-7,10.5-18.6,12.4-37c0.9,0.6,1.9,1.1,2.8,1.7
			c0.2,0.1,0.4,0.2,0.7,0.4c0.9,0.5,1.7,1,2.6,1.4c0.3,0.2,0.6,0.3,1,0.5c0.9,0.5,1.9,0.9,2.8,1.4c0.2,0.1,0.4,0.2,0.5,0.3
			c1.1,0.5,2.2,1,3.4,1.5c0.3,0.1,0.6,0.2,0.9,0.4c0.9,0.4,1.8,0.7,2.6,1c0.3,0.1,0.7,0.3,1,0.4c1.2,0.4,2.3,0.8,3.5,1.2
			c9.2,3,18.2,4.5,26.8,4.5s17.6-1.5,26.8-4.5c1.2-0.4,2.3-0.8,3.5-1.2c0.3-0.1,0.7-0.2,1-0.4c0.9-0.3,1.8-0.7,2.6-1
			c0.3-0.1,0.6-0.2,0.9-0.4c1.1-0.5,2.2-1,3.4-1.5c0.2-0.1,0.4-0.2,0.6-0.3c0.9-0.4,1.9-0.9,2.8-1.4c0.3-0.2,0.7-0.3,1-0.5
			c0.9-0.5,1.7-0.9,2.6-1.4c0.2-0.1,0.5-0.3,0.7-0.4c1-0.5,1.9-1.1,2.8-1.7C305.8,373.5,311.2,385.1,316.3,392.1z M255.3,88.3
			c26.8,0,52.2,7.5,73.3,21.8c1.5,1,2.9,2,4.2,3c26.4,19.5,41.5,47.9,41.5,77.8c0,12.3-2.5,24.3-7.4,35.7
			c-6.8-0.9-13.4-2.2-19.8-3.9c-1-0.3-2-0.6-3.1-0.9c-57.2-17-80.8-84.4-81.5-86.2l-7.2-22.8l-7.2,22.8c-0.6,1.7-24,69.1-81.4,86.2
			c-1,0.3-2,0.6-3.1,0.9c-6.4,1.7-13.1,3-19.8,3.9c-4.9-11.4-7.4-23.4-7.4-35.7c0-29.9,15.1-58.2,41.5-77.8c1.3-1,2.7-2,4.2-3
			C203.1,95.8,228.4,88.3,255.3,88.3z M187.7,89c8-22.6,35.3-39.4,67.6-39.4c32.3,0,59.5,16.7,67.6,39.4c-1.4-0.7-2.7-1.4-4.1-2
			c-0.3-0.2-0.7-0.3-1-0.5c-1.2-0.5-2.3-1.1-3.5-1.6c-0.5-0.2-1-0.4-1.5-0.6c-1-0.4-2.1-0.8-3.1-1.3c-0.5-0.2-1-0.4-1.6-0.6
			c-1.1-0.4-2.3-0.8-3.4-1.2c-0.4-0.1-0.8-0.3-1.2-0.4c-1.6-0.5-3.1-1-4.7-1.5c-0.3-0.1-0.6-0.2-0.9-0.2c-1.3-0.4-2.6-0.7-3.9-1.1
			c-0.5-0.1-1.1-0.3-1.6-0.4c-1.1-0.3-2.2-0.5-3.3-0.8c-0.6-0.1-1.1-0.3-1.7-0.4c-1.2-0.2-2.3-0.5-3.5-0.7c-0.5-0.1-1-0.2-1.4-0.3
			c-1.6-0.3-3.3-0.6-4.9-0.8c-0.2,0-0.4,0-0.6-0.1c-1.5-0.2-2.9-0.4-4.4-0.6c-0.5-0.1-1.1-0.1-1.6-0.2c-1.2-0.1-2.3-0.2-3.5-0.3
			c-0.6,0-1.2-0.1-1.8-0.1c-1.2-0.1-2.4-0.1-3.5-0.2c-0.5,0-1.1-0.1-1.6-0.1c-1.7-0.1-3.4-0.1-5.1-0.1c-1.7,0-3.4,0-5.1,0.1
			c-0.5,0-1.1,0-1.6,0.1c-1.2,0.1-2.4,0.1-3.5,0.2c-0.6,0-1.2,0.1-1.8,0.1c-1.2,0.1-2.3,0.2-3.5,0.3c-0.5,0.1-1.1,0.1-1.6,0.2
			c-1.5,0.2-3,0.3-4.4,0.6c-0.2,0-0.4,0-0.6,0.1c-1.7,0.2-3.3,0.5-4.9,0.8c-0.5,0.1-1,0.2-1.4,0.3c-1.2,0.2-2.3,0.4-3.5,0.7
			c-0.6,0.1-1.1,0.2-1.7,0.4c-1.1,0.2-2.2,0.5-3.3,0.8c-0.5,0.1-1.1,0.3-1.6,0.4c-1.3,0.3-2.6,0.7-3.9,1.1c-0.3,0.1-0.6,0.2-0.9,0.2
			c-1.6,0.5-3.1,1-4.7,1.5c-0.4,0.1-0.8,0.3-1.3,0.4c-1.1,0.4-2.3,0.8-3.4,1.2c-0.5,0.2-1.1,0.4-1.6,0.6c-1,0.4-2.1,0.8-3.1,1.2
			c-0.5,0.2-1,0.4-1.5,0.6c-1.2,0.5-2.3,1-3.4,1.5c-0.3,0.2-0.7,0.3-1,0.5C190.4,87.7,189,88.3,187.7,89z M145.2,496.8
			c8.3-6.9,26.1-14.2,48.7-14.2s40.4,7.3,48.7,14.2H145.2z M267.9,496.8c8.3-6.9,26.1-14.2,48.7-14.2s40.4,7.3,48.7,14.2H267.9z
			 M425.4,496.8L425.4,496.8H384c-3-7.2-10.1-13.9-20.6-19.2c-13.1-6.6-29.7-10.3-46.8-10.3s-33.7,3.6-46.8,10.3
			c-6,3-10.9,6.5-14.6,10.3c-3.7-3.8-8.6-7.3-14.6-10.3c-13.1-6.6-29.7-10.3-46.8-10.3s-33.7,3.6-46.8,10.3
			c-10.4,5.3-17.6,12-20.6,19.2H85.1v-30.3c0-12.2,7.8-22.9,20.8-28.5c1-0.4,1.9-0.8,2.8-1.1c17.1-6.1,60.3-27.5,72-33.4l29.3,10.6
			c2.7,1,5.5,1.9,8.3,2.7c12,3.5,24.5,5.2,36.9,5.2c12.4,0,24.9-1.7,36.9-5.2c2.8-0.8,5.5-1.7,8.3-2.7l29.3-10.6
			c11.8,5.9,54.9,27.3,72,33.4c0.9,0.3,1.9,0.7,2.8,1.1h0c13,5.7,20.8,16.4,20.8,28.5L425.4,496.8L425.4,496.8z"/>
	</g>
</g>
<g>
	<g>
		<polygon class="st0" points="66.2,58 58.7,65.5 51,57.9 40.3,68.7 58.7,87.1 77,68.8 		"/>
	</g>
</g>
<g>
	<g>
		<polygon class="st0" points="461,222.9 453.4,230.4 445.8,222.8 435,233.6 453.4,251.9 471.7,233.6 		"/>
	</g>
</g>
</svg>
