<?xml version="1.0" encoding="utf-8"?>
<!-- Generator: Adobe Illustrator 22.1.0, SVG Export Plug-In . SVG Version: 6.00 Build 0)  -->
<svg version="1.1" id="Layer_1" xmlns="http://www.w3.org/2000/svg" xmlns:xlink="http://www.w3.org/1999/xlink" x="0px" y="0px"
	 viewBox="0 0 512 423.9" style="enable-background:new 0 0 512 423.9;" xml:space="preserve">
<style type="text/css">
	.st0{fill:#C78665;}
</style>
<g>
	<g>
		<polygon class="st0" points="74,0.1 66.2,7.9 58.4,0 47.3,11.1 66.2,30.1 85.1,11.2 		"/>
	</g>
</g>
<g>
	<g>
		<polygon class="st0" points="445.4,53.3 437.7,61 429.8,53.2 418.7,64.3 437.7,83.2 456.5,64.4 		"/>
	</g>
</g>
<g>
	<g>
		<polygon class="st0" points="238.1,393.9 230.3,401.7 222.4,393.8 211.3,404.9 230.3,423.9 249.2,405 		"/>
	</g>
</g>
<g>
	<g>
		<path class="st0" d="M277.7,4.4c-9.3,0-16.2,3.7-21.8,8.2c-5.9-4.8-12.4-8.2-21.7-8.2c-17.7,0-32,14.5-32,32.4
			c0,8.1,2.5,13.1,4.1,16.4l0.1,0.2c6.6,13.4,38.3,40.1,44.6,45.3l5,4.1l5-4.1c6.3-5.2,38.3-32,44.6-45.4l0.2-0.4
			c1.6-3.4,4-8.4,4-16.1C309.8,18.9,295.4,4.4,277.7,4.4z M291.6,46.2l-0.2,0.4c-3.3,7-21.8,24.2-35.4,35.8
			c-13.6-11.6-32-28.8-35.5-35.9l-0.1-0.2c-1.3-2.7-2.5-5-2.5-9.4c0-9.4,7.2-16.7,16.3-16.7c6.3,0,10,2.8,16.4,8.8L256,34l5.4-5.2
			c6-5.8,10.2-8.7,16.3-8.7c9.2,0,16.4,7.3,16.4,16.7C294.1,40.9,292.9,43.5,291.6,46.2z"/>
	</g>
</g>
<g>
	<g>
		
			<rect x="146.3" y="149.5" transform="matrix(0.9816 -0.1912 0.1912 0.9816 -27.2497 32.2779)" class="st0" width="14.7" height="15.7"/>
	</g>
</g>
<g>
	<g>
		<path class="st0" d="M222.3,183l31.2-59l-55.6,12.2c-4-3.5-11.5-9.3-21.5-13.7c-20.4-8.9-41.5-7.9-61.1,3
			c-45.5,25.4-28.1,97.6-21.8,118.8c-31.7,19.7-81.6,27.2-82.1,27.3L0,273.3l5.8,10c0.4,0.7,9.5,16.2,26.5,29.3
			c20.3,15.6,43.4,21.2,67.2,16.2c-4.3,39.7-35.4,64-35.7,64.2l-21.9,16.6l27.4-2.6c4.2-0.4,104.4-10.2,146.6-51.8
			c30.1-29.7,40.2-69.8,29.3-116C238.8,212.7,227.3,191.5,222.3,183z M204.8,344.2c-26.9,26.5-83.1,39.1-114.5,44.3
			c11.2-13.9,24-35.8,25.2-64.2c8.4-3.1,23.1-9.8,38.1-22.5l-10.1-12c-12.7,10.7-25.2,16.6-32.5,19.4l-6.9,2.3
			c-22.1,7.1-42.9,3.5-61.9-10.9c-6.8-5.2-12.2-10.9-16.1-15.6c18.8-3.8,54.9-13,79.9-30l0.8-0.6c2.5-1.3,13.6-7.5,24.2-17.1
			l-10.6-11.6c-4.5,4.1-9.2,7.5-13.1,10.1c-6-22.3-17.2-78.3,15.5-96.5c36.5-20.3,65.7,9.6,66.9,10.9l3,3.2l30.9-6.8l-19.7,37.2
			l2.6,3.9c0.2,0.2,15.7,23.9,23.2,55.4C239.6,284.2,231.2,318.2,204.8,344.2z"/>
	</g>
</g>
<g>
	<g>
		
			<rect x="350.5" y="150" transform="matrix(0.1911 -0.9816 0.9816 0.1911 135.4185 479.0248)" class="st0" width="15.7" height="14.7"/>
	</g>
</g>
<g>
	<g>
		<path class="st0" d="M500.6,271.7c-0.5-0.1-50.5-7.6-82.1-27.3c6.3-21.3,23.7-93.5-21.8-118.8c-19.6-10.9-40.7-12-61.1-3
			c-10,4.4-17.5,10.2-21.5,13.7L257.2,124l32.5,59c-5.1,8.6-16.5,29.8-22.8,56.3c-10.9,46.2-0.8,86.3,29.3,116
			c42.2,41.6,142.4,51.4,146.6,51.8l27.2,2.5l-21.7-16.6c-0.3-0.3-31.4-24.5-35.7-64.2c23.7,4.9,46.8-0.6,67.1-16.2
			c17-13.1,26.1-28.7,26.5-29.3l5.8-10L500.6,271.7z M469.8,300.5c-18.9,14.4-39.8,18.1-61.8,10.9l-7-2.3
			c-7.3-2.8-19.8-8.6-32.5-19.4l-10.1,12c15,12.7,29.7,19.4,38.1,22.5c1.2,28.5,14,50.3,25.2,64.2c-31.4-5.2-87.6-17.8-114.5-44.3
			c-26.3-25.9-34.7-59.8-25.1-100.8c7.4-31.5,23.1-55.6,23.3-55.8l2.6-4l-20.4-37.1l27.3,5.8l4.3,0.9l3-3.2
			c1.2-1.3,30.4-31.2,66.9-10.9c32.7,18.2,21.5,74.2,15.5,96.5c-3.8-2.5-8.6-5.9-13.1-10.1l-10.6,11.6c10.6,9.6,21.7,15.7,24.2,17.1
			l0.9,0.6c24.9,17,61,26.1,79.8,29.9C482,289.6,476.6,295.3,469.8,300.5z"/>
	</g>
</g>
</svg>
