<?xml version="1.0" encoding="utf-8"?>
<!-- Generator: Adobe Illustrator 22.1.0, SVG Export Plug-In . SVG Version: 6.00 Build 0)  -->
<svg version="1.1" id="Layer_1" xmlns="http://www.w3.org/2000/svg" xmlns:xlink="http://www.w3.org/1999/xlink" x="0px" y="0px"
	 viewBox="0 0 512 435.7" style="enable-background:new 0 0 512 435.7;" xml:space="preserve">
<style type="text/css">
	.st0{fill:#C78665;}
</style>
<g>
	<g>
		<rect x="468.6" y="343.3" class="st0" width="15.2" height="24.3"/>
	</g>
</g>
<g>
	<g>
		<polygon class="st0" points="468.6,377 468.6,392.9 406,392.9 406,408.2 483.8,408.2 483.8,377 		"/>
	</g>
</g>
<g>
	<g>
		<rect x="54.2" y="154.3" class="st0" width="70.5" height="15.2"/>
	</g>
</g>
<g>
	<g>
		<path class="st0" d="M347.4,121L347.4,121l-33.7-57h-100L180,121h-47.7V92.5H46.6V121H15.4v88.8v15.2v210.6H512V225.1v-15.2V121
			H347.4z M222.4,79.3H305l24.7,41.8h-132L222.4,79.3z M61.8,107.8h55.2v13.2H61.8V107.8z M496.8,420.4H30.6V225.1h120.2
			c-0.5,1.1-1,2.2-1.5,3.4c-0.1,0.3-0.3,0.6-0.4,0.9c-0.4,0.9-0.7,1.8-1.1,2.7c-0.2,0.4-0.3,0.9-0.5,1.3c-0.3,0.8-0.6,1.6-0.9,2.4
			c-0.2,0.4-0.3,0.9-0.5,1.3c-0.3,0.9-0.6,1.8-0.9,2.7c-0.1,0.3-0.2,0.7-0.3,1c-0.4,1.2-0.8,2.5-1.1,3.7c-0.1,0.3-0.1,0.5-0.2,0.8
			c-0.3,1-0.5,2-0.8,3c-0.1,0.4-0.2,0.9-0.3,1.3c-0.2,0.8-0.4,1.7-0.6,2.5c-0.1,0.5-0.2,0.9-0.3,1.4c-0.2,0.9-0.4,1.8-0.5,2.7
			c-0.1,0.4-0.1,0.8-0.2,1.1c-0.2,1.3-0.4,2.6-0.6,3.8c0,0.2,0,0.4-0.1,0.5c-0.1,1.1-0.3,2.2-0.4,3.4c0,0.4-0.1,0.9-0.1,1.3
			c-0.1,0.9-0.2,1.8-0.2,2.7c0,0.5-0.1,0.9-0.1,1.4c-0.1,0.9-0.1,1.8-0.1,2.7c0,0.4,0,0.8-0.1,1.2c0,1.3-0.1,2.6-0.1,3.9
			c0,68.8,56,124.8,124.8,124.8c68.8,0,124.8-56,124.8-124.8c0-1.3,0-2.6-0.1-3.9c0-0.4,0-0.8-0.1-1.2c0-0.9-0.1-1.8-0.1-2.7
			c0-0.5-0.1-0.9-0.1-1.4c-0.1-0.9-0.1-1.8-0.2-2.7c0-0.4-0.1-0.9-0.1-1.3c-0.1-1.1-0.3-2.2-0.4-3.3c0-0.2,0-0.4-0.1-0.5
			c-0.2-1.3-0.4-2.6-0.6-3.8c-0.1-0.4-0.1-0.8-0.2-1.2c-0.2-0.9-0.3-1.8-0.5-2.7c-0.1-0.5-0.2-0.9-0.3-1.4c-0.2-0.9-0.4-1.7-0.6-2.5
			c-0.1-0.4-0.2-0.9-0.3-1.3c-0.2-1-0.5-2-0.8-3c-0.1-0.3-0.1-0.5-0.2-0.8c-0.3-1.2-0.7-2.5-1.1-3.7c-0.1-0.3-0.2-0.7-0.3-1
			c-0.3-0.9-0.6-1.8-0.9-2.7c-0.2-0.4-0.3-0.9-0.5-1.3c-0.3-0.8-0.6-1.6-0.9-2.4c-0.2-0.4-0.3-0.9-0.5-1.3c-0.4-0.9-0.7-1.8-1.1-2.7
			c-0.1-0.3-0.3-0.6-0.4-0.9c-0.5-1.1-1-2.2-1.5-3.4h120.2L496.8,420.4L496.8,420.4z M154.1,278.3c0-20.1,5.5-39.8,15.9-56.9
			c16.3-26.8,42.5-44.8,72.4-50.6c6.9-1.3,14-2,21.2-2s14.3,0.7,21.2,2c29.9,5.8,56.1,23.8,72.4,50.6c10.4,17.1,15.9,36.8,15.9,56.9
			c0,60.4-49.1,109.6-109.6,109.6c-54.7,0-100.2-40.4-108.3-92.9C154.6,289.6,154.1,284,154.1,278.3z M496.8,209.9H368v0
			c-0.5-0.7-1-1.5-1.5-2.2c-0.2-0.3-0.3-0.5-0.5-0.8c-0.7-1-1.5-2.1-2.2-3.1c-0.2-0.3-0.4-0.6-0.7-0.9c-0.5-0.7-1.1-1.4-1.7-2.1
			c-0.3-0.4-0.6-0.8-0.9-1.1c-0.5-0.6-1-1.2-1.5-1.8c-0.3-0.4-0.7-0.8-1.1-1.2c-0.5-0.6-1-1.1-1.4-1.6c-0.4-0.4-0.8-0.8-1.1-1.2
			c-0.5-0.5-1-1-1.5-1.6c-0.4-0.4-0.8-0.8-1.2-1.2c-0.5-0.5-1-1-1.5-1.5c-0.4-0.4-0.8-0.8-1.2-1.2c-0.5-0.5-1-1-1.5-1.4
			c-0.4-0.4-0.8-0.8-1.3-1.2c-0.5-0.5-1-0.9-1.6-1.4c-0.4-0.4-0.9-0.8-1.3-1.1c-0.5-0.5-1.1-0.9-1.6-1.3c-0.4-0.4-0.9-0.7-1.3-1.1
			c-0.6-0.4-1.1-0.9-1.7-1.3c-0.4-0.3-0.9-0.7-1.3-1c-0.6-0.4-1.2-0.9-1.8-1.3c-0.4-0.3-0.9-0.6-1.3-0.9c-0.6-0.4-1.3-0.9-1.9-1.3
			c-0.4-0.3-0.8-0.6-1.3-0.8c-0.7-0.5-1.4-0.9-2.1-1.4c-0.4-0.2-0.7-0.5-1.1-0.7c-1.1-0.7-2.2-1.3-3.3-1.9
			c-18.8-10.8-40.3-16.5-62.1-16.5s-43.3,5.7-62.1,16.5c-1.1,0.6-2.2,1.3-3.3,1.9c-0.4,0.2-0.7,0.4-1.1,0.7
			c-0.7,0.5-1.4,0.9-2.2,1.4c-0.4,0.3-0.8,0.6-1.3,0.8c-0.6,0.4-1.3,0.9-1.9,1.3c-0.4,0.3-0.9,0.6-1.3,0.9c-0.6,0.4-1.2,0.9-1.8,1.3
			c-0.4,0.3-0.9,0.7-1.3,1c-0.6,0.4-1.1,0.9-1.7,1.3c-0.4,0.4-0.9,0.7-1.3,1.1c-0.5,0.4-1.1,0.9-1.6,1.3c-0.4,0.4-0.9,0.7-1.3,1.1
			c-0.5,0.5-1,0.9-1.6,1.4c-0.4,0.4-0.9,0.8-1.3,1.2c-0.5,0.5-1,0.9-1.5,1.4c-0.4,0.4-0.8,0.8-1.2,1.2c-0.5,0.5-1,1-1.5,1.5
			c-0.4,0.4-0.8,0.8-1.2,1.2c-0.5,0.5-1,1-1.5,1.6c-0.4,0.4-0.8,0.8-1.1,1.2c-0.5,0.5-1,1.1-1.4,1.6c-0.4,0.4-0.7,0.8-1.1,1.2
			c-0.5,0.6-1,1.2-1.5,1.8c-0.3,0.4-0.6,0.8-0.9,1.2c-0.6,0.7-1.1,1.4-1.7,2.1c-0.2,0.3-0.4,0.6-0.7,0.9c-0.8,1-1.5,2-2.2,3.1
			c-0.2,0.3-0.3,0.5-0.5,0.8c-0.5,0.7-1,1.5-1.5,2.2H30.6v-73.6H171h185.4h140.4L496.8,209.9L496.8,209.9z"/>
	</g>
</g>
<g>
	<g>
		<path class="st0" d="M430.9,154.3v37.6h46v-37.6H430.9z M461.7,176.6h-15.5v-7.2h15.5V176.6z"/>
	</g>
</g>
<g>
	<g>
		<path class="st0" d="M297.2,218.7c-13,0-25.1,5.5-33.6,14.8c-8.5-9.3-20.6-14.8-33.6-14.8c-12.2,0-23.5,4.8-31.9,13.4
			c-8.4,8.6-13,20-13,32.1c0,11.5,3.4,18.3,5.8,23.3l0.2,0.3c10,20.3,61.8,63.6,67.7,68.4l4.8,4l4.9-4c5.9-4.9,58.1-48.3,67.7-68.5
			l0.3-0.5c2.3-4.8,5.8-12.1,5.8-22.9C342.2,239.1,322,218.7,297.2,218.7z M322.7,280.6l-0.3,0.6c-0.6,1.2-1.4,2.6-2.5,4.2
			c-1.5,2.1-3.3,4.5-5.5,7c-0.7,0.8-1.4,1.6-2.1,2.4c-1.5,1.7-3.1,3.4-4.8,5.2c-1.9,2-3.9,4-5.9,6c0,0,0,0,0,0
			c-12.6,12.5-28,26-38,34.5c-17.2-14.6-50.1-44.1-58.2-58.1c-0.3-0.5-0.5-0.9-0.7-1.3l-0.2-0.3c-2.1-4.2-4.3-8.6-4.3-16.5
			c0-17,13-30.3,29.7-30.3c11.3,0,21.6,6.2,26.8,16.2l6.7,12.8l6.7-12.8c5.3-10,15.5-16.2,26.8-16.2c16.7,0,29.8,13.3,29.8,30.3
			C327,271.6,324.7,276.3,322.7,280.6z"/>
	</g>
</g>
<g>
	<g>
		<rect x="81.8" class="st0" width="15.2" height="53.8"/>
	</g>
</g>
<g>
	<g>
		
			<rect x="133.8" y="36.1" transform="matrix(0.4198 -0.9076 0.9076 0.4198 53.5255 171.2353)" class="st0" width="53.8" height="15.2"/>
	</g>
</g>
<g>
	<g>
		
			<rect x="10.6" y="16.8" transform="matrix(0.9076 -0.4198 0.4198 0.9076 -16.6845 11.6862)" class="st0" width="15.2" height="53.8"/>
	</g>
</g>
</svg>
